<svg xmlns="http://www.w3.org/2000/svg" xmlns:xlink="http://www.w3.org/1999/xlink" width="800" zoomAndPan="magnify" viewBox="0 0 600 675.000002" height="900" preserveAspectRatio="xMidYMid meet" version="1.0"><defs><clipPath id="252e0fc8a0"><path d="M 332.410156 171.902344 L 365.363281 171.902344 L 365.363281 219.082031 L 332.410156 219.082031 Z M 332.410156 171.902344 " clip-rule="nonzero"/></clipPath></defs><path fill="#d9d9d9" d="M 306.328125 45.480469 C 306.328125 45.480469 289.042969 44.152344 291.035156 55.457031 C 293.023438 66.757812 296.035156 82.722656 290.871094 90.035156 C 285.710938 97.347656 269.085938 121.953125 263.105469 122.621094 C 257.121094 123.285156 248.472656 119.960938 245.8125 122.621094 C 243.152344 125.28125 239.828125 125.945312 235.171875 125.945312 C 230.515625 125.945312 221.207031 131.925781 225.863281 133.265625 C 230.515625 134.589844 241.820312 141.238281 238.5 144.566406 C 235.171875 147.890625 227.855469 150.550781 220.542969 152.542969 C 213.222656 154.542969 207.910156 157.203125 200.589844 155.871094 C 193.277344 154.542969 195.9375 153.878906 185.964844 152.542969 C 175.984375 151.21875 173.992188 155.203125 169.339844 149.890625 C 164.679688 144.566406 166.011719 143.898438 164.679688 135.917969 C 163.351562 127.945312 162.6875 122.621094 158.699219 124.613281 C 154.707031 126.605469 150.046875 131.925781 146.726562 129.933594 C 143.402344 127.945312 144.726562 121.292969 143.402344 127.945312 C 142.074219 134.589844 144.726562 143.238281 146.726562 145.898438 C 148.71875 148.558594 151.378906 149.273438 150.714844 156.234375 C 150.046875 163.183594 149.386719 166.515625 150.046875 171.167969 C 150.714844 175.824219 150.046875 187.128906 154.039062 189.121094 C 158.03125 191.121094 162.6875 190.453125 162.019531 193.773438 C 161.359375 197.101562 161.359375 201.753906 155.367188 201.753906 C 149.386719 201.753906 147.339844 198.433594 143.042969 201.753906 C 138.746094 205.082031 134.753906 208.40625 131.429688 205.082031 C 128.101562 201.753906 129.433594 197.765625 125.449219 197.765625 C 121.457031 197.765625 121.457031 202.421875 116.796875 199.09375 C 112.144531 195.773438 116.796875 188.460938 112.144531 195.773438 C 107.488281 203.085938 108.816406 209.828125 102.171875 206.460938 C 95.523438 203.085938 94.851562 197.765625 90.199219 197.765625 C 85.546875 197.765625 89.53125 191.78125 84.878906 187.789062 C 80.226562 183.800781 80.890625 181.808594 74.238281 183.800781 C 67.585938 185.800781 66.257812 183.800781 64.265625 188.460938 C 62.273438 193.113281 67.585938 197.101562 58.945312 195.105469 C 50.300781 193.113281 50.300781 192.449219 44.3125 192.449219 C 38.328125 192.449219 39.660156 185.128906 32.34375 189.789062 C 25.03125 194.441406 25.695312 195.773438 20.375 196.441406 C 15.050781 197.101562 9.125 195.105469 5.742188 198.433594 C 2.363281 201.753906 0.425781 207.746094 5.742188 204.414062 C 11.0625 201.09375 1.75 199.09375 11.0625 201.09375 C 20.375 203.085938 17.050781 199.09375 20.375 203.085938 C 23.703125 207.074219 21.703125 209.738281 25.03125 211.734375 C 28.355469 213.726562 33.007812 210.40625 28.355469 213.726562 C 23.703125 217.054688 19.710938 213.726562 16.382812 213.726562 C 13.058594 213.726562 2.417969 212.027344 9.070312 215.203125 C 15.722656 218.386719 19.042969 219.046875 21.042969 220.378906 C 23.035156 221.707031 24.363281 215.058594 23.035156 221.707031 C 21.703125 228.359375 29.683594 237.003906 21.042969 232.351562 C 12.390625 227.691406 16.382812 225.699219 12.390625 227.691406 C 8.402344 229.691406 5.742188 233.660156 9.070312 233.667969 C 12.390625 233.679688 18.382812 236.335938 18.382812 236.335938 C 18.382812 236.335938 23.703125 235.011719 21.703125 239.664062 C 19.710938 244.316406 17.710938 240.992188 19.710938 244.316406 C 21.703125 247.644531 21.042969 244.984375 25.695312 244.316406 C 30.347656 243.652344 29.683594 241.609375 36.996094 245.953125 C 44.3125 250.304688 40.988281 246.976562 48.96875 250.304688 C 56.953125 253.628906 55.621094 250.304688 60.273438 254.957031 C 64.925781 259.617188 68.917969 260.277344 71.578125 261.609375 C 74.238281 262.9375 74.238281 259.617188 78.230469 258.28125 C 82.21875 256.949219 82.21875 255.625 85.546875 258.949219 C 88.871094 262.269531 86.871094 264.929688 88.871094 266.929688 C 90.863281 268.921875 92.859375 263.601562 98.183594 266.929688 C 103.503906 270.253906 102.835938 262.269531 103.503906 270.253906 C 104.164062 278.234375 104.828125 281.5625 101.503906 282.222656 C 98.183594 282.886719 100.84375 288.207031 107.488281 286.214844 C 114.136719 284.214844 109.484375 280.894531 118.796875 283.554688 C 128.101562 286.214844 132.761719 282.453125 132.761719 286.65625 C 132.761719 290.867188 140.074219 289.539062 138.082031 292.199219 C 136.082031 294.859375 142.734375 300.179688 134.753906 298.1875 C 126.777344 296.1875 124.117188 292.199219 122.121094 294.859375 C 120.128906 297.519531 108.816406 297.0625 116.136719 298.621094 C 123.449219 300.179688 128.769531 302.839844 126.777344 306.160156 C 124.78125 309.492188 129.433594 311.484375 122.789062 314.144531 C 116.136719 316.804688 121.457031 322.792969 124.78125 324.117188 C 128.101562 325.445312 130.769531 324.785156 131.429688 328.109375 C 132.09375 331.4375 134.753906 334.015625 134.753906 337.714844 C 134.753906 341.410156 133.421875 344.070312 138.746094 346.730469 C 144.066406 349.390625 140.742188 353.382812 149.386719 353.382812 C 158.03125 353.382812 160.027344 349.390625 161.359375 353.382812 C 162.6875 357.371094 168.671875 352.050781 162.6875 357.371094 C 156.699219 362.6875 154.039062 368.675781 158.03125 369.339844 C 162.019531 370.007812 166.011719 374.660156 166.011719 374.660156 C 166.011719 374.660156 166.679688 381.980469 165.347656 385.96875 C 164.019531 389.953125 162.6875 389.292969 160.691406 392.613281 C 158.699219 395.941406 159.359375 398.601562 166.011719 403.257812 C 172.664062 407.914062 181.304688 414.558594 181.972656 417.21875 C 182.636719 419.878906 189.285156 426.53125 185.964844 430.523438 C 182.636719 434.511719 189.285156 441.824219 186.625 446.484375 C 183.964844 451.136719 181.304688 445.15625 177.316406 437.171875 C 173.332031 429.191406 172.664062 427.863281 170 423.871094 C 167.339844 419.878906 172.664062 426.53125 167.339844 419.878906 C 162.019531 413.230469 158.699219 416.558594 158.699219 423.210938 C 158.699219 429.855469 162.019531 433.84375 160.027344 438.503906 C 158.03125 443.15625 149.40625 449.808594 154.386719 453.796875 C 159.359375 457.789062 160.027344 457.789062 162.019531 463.109375 C 164.019531 468.425781 168.671875 473.082031 164.679688 475.074219 C 160.691406 477.074219 154.726562 471.753906 154.386719 480.394531 C 154.039062 489.039062 155.394531 495.027344 154.386719 501.011719 C 153.378906 507 157.367188 501.011719 151.378906 512.984375 C 145.394531 524.957031 149.386719 526.285156 148.054688 533.597656 C 146.726562 540.914062 142.734375 549.5625 142.734375 549.5625 C 142.734375 549.5625 146.726562 550.222656 140.074219 552.882812 C 133.421875 555.542969 137.414062 561.527344 133.421875 562.195312 C 129.433594 562.859375 129.433594 570.175781 134.753906 568.847656 C 140.074219 567.515625 139.414062 565.519531 144.066406 564.855469 C 148.71875 564.1875 154.039062 567.835938 150.714844 569.007812 C 147.394531 570.175781 145.394531 573.5 141.40625 574.828125 C 137.414062 576.160156 134.09375 577.492188 139.414062 582.8125 C 144.726562 588.132812 145.394531 582.8125 150.046875 586.132812 C 154.707031 589.460938 153.378906 584.140625 160.691406 586.132812 C 168.007812 588.132812 171.992188 588.132812 172.664062 592.121094 C 173.332031 596.105469 177.316406 598.765625 179.3125 600.765625 C 181.304688 602.757812 185.296875 598.765625 188.625 600.765625 C 191.945312 602.757812 191.945312 601.429688 196.601562 604.089844 C 201.257812 606.75 201.921875 605.417969 205.25 608.078125 C 208.570312 610.738281 207.910156 612.738281 213.894531 612.070312 C 219.875 611.40625 223.203125 609 234.507812 612.195312 C 245.8125 615.398438 244.480469 614.324219 244.480469 612.195312 C 244.480469 610.078125 241.820312 602.757812 245.8125 602.097656 C 249.800781 601.429688 251.132812 603.425781 256.453125 605.417969 C 261.773438 607.417969 264.433594 604.757812 268.425781 607.417969 C 272.417969 610.078125 268.425781 607.417969 278.398438 607.417969 C 288.371094 607.417969 285.710938 607.417969 291.035156 611.40625 C 296.355469 615.398438 302.898438 614.070312 298.960938 619.382812 C 295.023438 624.703125 294.363281 628.695312 301.675781 628.695312 C 308.988281 628.695312 306.996094 626.035156 313.640625 628.695312 C 320.296875 631.355469 312.980469 630.023438 321.621094 628.695312 C 330.273438 627.363281 322.953125 627.777344 334.925781 630.230469 C 346.898438 632.683594 342.90625 633.761719 354.878906 630.230469 C 366.84375 626.703125 372.164062 631.355469 371.503906 625.371094 C 370.835938 619.382812 362.191406 622.710938 366.183594 615.398438 C 370.171875 608.078125 372.164062 609.410156 368.171875 601.429688 C 364.183594 593.453125 359.53125 588.132812 366.84375 583.472656 C 374.164062 578.820312 366.84375 574.828125 381.476562 573.5 C 396.109375 572.167969 389.457031 570.175781 391.449219 564.855469 C 393.449219 559.535156 392.78125 562.859375 401.429688 560.199219 C 410.074219 557.535156 402.753906 555.542969 411.402344 553.546875 C 420.046875 551.554688 416.722656 552.882812 424.035156 553.546875 C 431.351562 554.214844 427.359375 558.867188 435.339844 552.882812 C 443.320312 546.902344 449.304688 546.902344 445.3125 552.882812 C 441.328125 558.867188 435.21875 560.867188 446.585938 559.535156 C 457.953125 558.207031 450.636719 558.207031 457.953125 558.207031 C 465.269531 558.207031 468.597656 562.195312 471.917969 564.1875 C 475.242188 566.1875 480.5625 577.492188 489.207031 575.492188 C 497.855469 573.5 493.863281 578.820312 503.835938 578.820312 C 513.8125 578.820312 533.765625 583.472656 535.757812 578.152344 C 537.753906 572.835938 537.753906 572.167969 543.738281 570.175781 C 549.722656 568.179688 549.058594 569.507812 549.722656 561.527344 C 550.390625 553.546875 549.722656 556.875 556.371094 553.546875 C 563.023438 550.222656 563.691406 548.894531 567.683594 544.902344 C 571.667969 540.914062 572.335938 544.902344 574.996094 537.589844 C 577.65625 530.277344 578.984375 534.929688 583.640625 530.277344 C 588.292969 525.617188 580.976562 524.289062 583.640625 519.636719 C 586.300781 514.976562 589.011719 514.3125 592.28125 507 C 595.558594 499.679688 599.601562 497.019531 587.628906 501.011719 C 575.65625 505.003906 575.65625 507 568.34375 506.332031 C 561.03125 505.671875 560.363281 489.039062 554.378906 487.046875 C 548.398438 485.050781 556.371094 485.71875 553.050781 482.394531 C 549.722656 479.066406 546.398438 471.753906 551.71875 467.761719 C 557.039062 463.773438 565.023438 462.441406 559.703125 457.121094 C 554.378906 451.800781 556.371094 449.144531 549.722656 448.476562 C 543.078125 447.808594 550.390625 452.46875 543.738281 443.824219 C 537.085938 435.175781 534.425781 439.835938 537.085938 435.175781 C 539.746094 430.523438 537.085938 427.863281 544.40625 428.53125 C 551.71875 429.191406 553.710938 431.183594 557.039062 426.53125 C 560.363281 421.871094 563.691406 419.878906 559.03125 411.898438 C 554.378906 403.925781 556.371094 401.265625 550.390625 396.605469 C 544.40625 391.953125 542.40625 395.273438 541.078125 389.953125 C 539.746094 384.632812 549.722656 384.632812 550.390625 376.65625 C 551.050781 368.675781 552.382812 374.660156 545.070312 361.363281 C 537.753906 348.0625 542.40625 344.070312 531.773438 346.0625 C 521.132812 348.0625 512.480469 342.738281 513.148438 348.722656 C 513.8125 354.710938 526.453125 360.695312 515.140625 362.023438 C 503.835938 363.355469 495.855469 373.996094 499.183594 363.355469 C 502.507812 352.714844 513.8125 358.695312 508.492188 344.738281 C 503.175781 330.769531 501.175781 333.429688 509.160156 326.777344 C 517.140625 320.125 512.480469 329.4375 517.140625 320.125 C 521.792969 310.820312 518.46875 310.820312 525.113281 306.832031 C 531.773438 302.839844 533.097656 304.832031 537.085938 296.855469 C 541.078125 288.875 549.722656 287.546875 545.730469 282.886719 C 541.746094 278.234375 540.417969 266.261719 545.730469 268.261719 C 551.050781 270.253906 554.378906 275.574219 557.703125 272.25 C 561.03125 268.921875 573.664062 270.253906 571.003906 261.609375 C 568.34375 252.964844 569.011719 245.644531 570.34375 231.683594 C 571.667969 217.71875 574.996094 223.039062 575.65625 213.726562 C 576.324219 204.414062 577.65625 194.441406 576.988281 186.460938 C 576.324219 178.480469 574.332031 182.46875 579.648438 176.488281 C 584.96875 170.503906 593.613281 167.84375 583.640625 166.515625 C 573.664062 165.183594 572.335938 167.84375 565.683594 163.851562 C 559.03125 159.863281 563.691406 155.871094 554.378906 158.53125 C 545.070312 161.191406 549.722656 165.84375 539.085938 159.195312 C 528.445312 152.542969 530.4375 155.203125 525.113281 153.210938 C 519.800781 151.21875 516.472656 151.21875 511.152344 143.898438 C 505.835938 136.585938 499.183594 135.917969 495.195312 136.585938 C 491.203125 137.25 489.875 145.230469 485.222656 141.238281 C 480.5625 137.25 487.875 135.257812 480.5625 137.25 C 473.25 139.246094 477.238281 141.90625 467.929688 135.257812 C 458.617188 128.605469 461.277344 128.605469 453.296875 123.953125 C 445.3125 119.292969 449.304688 116.632812 442.660156 114.640625 C 436.007812 112.648438 433.347656 113.972656 434.011719 105.996094 C 434.679688 98.015625 440.660156 98.015625 434.679688 98.015625 C 428.691406 98.015625 428.691406 104 423.367188 104 C 418.054688 104 410.074219 107.328125 406.082031 102.007812 C 402.089844 96.6875 403.421875 87.375 400.097656 84.714844 C 396.769531 82.054688 393.449219 86.710938 389.457031 85.382812 C 385.464844 84.050781 384.136719 78.730469 380.808594 74.070312 C 377.484375 69.417969 377.484375 74.070312 370.171875 70.75 C 362.859375 67.421875 364.851562 63.429688 360.859375 58.117188 C 356.871094 52.796875 352.21875 52.796875 346.898438 54.789062 C 341.574219 56.785156 339.578125 50.703125 334.261719 45.429688 C 328.941406 40.160156 312.078125 45.25 306.328125 45.480469 " fill-opacity="1" fill-rule="nonzero"/><g clip-path="url(#252e0fc8a0)"><path fill="#545454" d="M 348.886719 171.910156 C 339.789062 171.910156 332.410156 179.300781 332.410156 188.417969 C 332.410156 200.800781 348.886719 219.078125 348.886719 219.078125 C 348.886719 219.078125 365.363281 200.800781 365.363281 188.417969 C 365.363281 179.300781 357.984375 171.910156 348.886719 171.910156 Z M 348.886719 194.3125 C 345.636719 194.3125 343.003906 191.671875 343.003906 188.417969 C 343.003906 185.164062 345.636719 182.523438 348.886719 182.523438 C 352.132812 182.523438 354.769531 185.164062 354.769531 188.417969 C 354.769531 191.671875 352.132812 194.3125 348.886719 194.3125 Z M 348.886719 194.3125 " fill-opacity="1" fill-rule="nonzero"/></g></svg>