<svg xmlns="http://www.w3.org/2000/svg" xmlns:xlink="http://www.w3.org/1999/xlink" width="600" zoomAndPan="magnify" viewBox="0 0 450 506.249968" height="675" preserveAspectRatio="xMidYMid meet" version="1.0"><defs><g/><clipPath id="04f83d57ba"><path d="M 249.273438 128.734375 L 273.949219 128.734375 L 273.949219 164.070312 L 249.273438 164.070312 Z M 249.273438 128.734375 " clip-rule="nonzero"/></clipPath></defs><path fill="#d9d9d9" d="M 229.738281 34.058594 C 229.738281 34.058594 216.792969 33.066406 218.285156 41.53125 C 219.773438 49.996094 222.03125 61.949219 218.164062 67.425781 C 214.300781 72.902344 201.847656 91.328125 197.371094 91.828125 C 192.886719 92.328125 186.410156 89.835938 184.417969 91.828125 C 182.425781 93.820312 179.9375 94.320312 176.449219 94.320312 C 172.964844 94.320312 165.992188 98.796875 169.480469 99.800781 C 172.964844 100.792969 181.429688 105.773438 178.941406 108.265625 C 176.449219 110.753906 170.972656 112.746094 165.496094 114.238281 C 160.011719 115.734375 156.035156 117.726562 150.550781 116.730469 C 145.078125 115.734375 147.070312 115.238281 139.601562 114.238281 C 132.125 113.246094 130.632812 116.230469 127.148438 112.25 C 123.660156 108.265625 124.65625 107.765625 123.660156 101.789062 C 122.664062 95.816406 122.167969 91.828125 119.179688 93.320312 C 116.191406 94.8125 112.703125 98.796875 110.214844 97.304688 C 107.726562 95.816406 108.71875 90.835938 107.726562 95.816406 C 106.730469 100.792969 108.71875 107.269531 110.214844 109.261719 C 111.707031 111.253906 113.699219 111.789062 113.203125 117.003906 C 112.703125 122.207031 112.207031 124.703125 112.703125 128.1875 C 113.203125 131.671875 112.703125 140.140625 115.691406 141.632812 C 118.679688 143.128906 122.167969 142.628906 121.667969 145.113281 C 121.171875 147.609375 121.171875 151.089844 116.6875 151.089844 C 112.207031 151.089844 110.675781 148.605469 107.457031 151.089844 C 104.238281 153.582031 101.25 156.074219 98.757812 153.582031 C 96.265625 151.089844 97.265625 148.105469 94.28125 148.105469 C 91.289062 148.105469 91.289062 151.589844 87.800781 149.097656 C 84.316406 146.613281 87.800781 141.136719 84.316406 146.613281 C 80.828125 152.089844 81.824219 157.136719 76.847656 154.617188 C 71.871094 152.089844 71.367188 148.105469 67.882812 148.105469 C 64.398438 148.105469 67.382812 143.625 63.898438 140.632812 C 60.414062 137.648438 60.910156 136.15625 55.929688 137.648438 C 50.949219 139.144531 49.953125 137.648438 48.460938 141.136719 C 46.96875 144.621094 50.949219 147.609375 44.476562 146.113281 C 38.003906 144.621094 38.003906 144.125 33.519531 144.125 C 29.035156 144.125 30.035156 138.640625 24.554688 142.132812 C 19.078125 145.617188 19.574219 146.613281 15.589844 147.113281 C 11.605469 147.609375 7.167969 146.113281 4.632812 148.605469 C 2.101562 151.089844 0.652344 155.578125 4.632812 153.082031 C 8.617188 150.597656 1.644531 149.097656 8.617188 150.597656 C 15.589844 152.089844 13.101562 149.097656 15.589844 152.089844 C 18.082031 155.074219 16.585938 157.070312 19.078125 158.566406 C 21.566406 160.058594 25.050781 157.570312 21.566406 160.058594 C 18.082031 162.550781 15.09375 160.058594 12.601562 160.058594 C 10.113281 160.058594 2.144531 158.785156 7.125 161.164062 C 12.105469 163.546875 14.59375 164.042969 16.089844 165.039062 C 17.582031 166.035156 18.578125 161.054688 17.582031 166.035156 C 16.585938 171.015625 22.5625 177.488281 16.089844 174.003906 C 9.613281 170.515625 12.601562 169.023438 9.613281 170.515625 C 6.625 172.015625 4.632812 174.984375 7.125 174.992188 C 9.613281 175 14.097656 176.988281 14.097656 176.988281 C 14.097656 176.988281 18.082031 175.996094 16.585938 179.480469 C 15.09375 182.964844 13.597656 180.476562 15.09375 182.964844 C 16.585938 185.457031 16.089844 183.464844 19.574219 182.964844 C 23.058594 182.46875 22.5625 180.9375 28.039062 184.191406 C 33.519531 187.449219 31.027344 184.957031 37.003906 187.449219 C 42.984375 189.941406 41.988281 187.449219 45.472656 190.933594 C 48.957031 194.425781 51.945312 194.917969 53.9375 195.917969 C 55.929688 196.910156 55.929688 194.425781 58.917969 193.425781 C 61.90625 192.425781 61.90625 191.433594 64.398438 193.925781 C 66.886719 196.410156 65.390625 198.402344 66.886719 199.902344 C 68.378906 201.394531 69.875 197.410156 73.863281 199.902344 C 77.847656 202.390625 77.347656 196.410156 77.847656 202.390625 C 78.339844 208.367188 78.835938 210.859375 76.347656 211.355469 C 73.863281 211.851562 75.855469 215.835938 80.828125 214.34375 C 85.808594 212.847656 82.324219 210.359375 89.296875 212.351562 C 96.265625 214.34375 99.757812 211.527344 99.757812 214.675781 C 99.757812 217.828125 105.234375 216.832031 103.742188 218.824219 C 102.242188 220.816406 107.226562 224.800781 101.25 223.308594 C 95.273438 221.8125 93.28125 218.824219 91.789062 220.816406 C 90.296875 222.808594 81.824219 222.46875 87.304688 223.632812 C 92.78125 224.800781 96.765625 226.792969 95.273438 229.28125 C 93.78125 231.777344 97.265625 233.269531 92.289062 235.261719 C 87.304688 237.253906 91.289062 241.738281 93.78125 242.726562 C 96.265625 243.722656 98.265625 243.226562 98.757812 245.71875 C 99.257812 248.210938 101.25 250.140625 101.25 252.910156 C 101.25 255.679688 100.25 257.671875 104.238281 259.664062 C 108.222656 261.65625 105.734375 264.644531 112.207031 264.644531 C 118.679688 264.644531 120.175781 261.65625 121.171875 264.644531 C 122.167969 267.632812 126.648438 263.648438 122.167969 267.632812 C 117.683594 271.613281 115.691406 276.097656 118.679688 276.59375 C 121.667969 277.09375 124.65625 280.578125 124.65625 280.578125 C 124.65625 280.578125 125.15625 286.0625 124.160156 289.046875 C 123.164062 292.03125 122.167969 291.539062 120.671875 294.023438 C 119.179688 296.515625 119.675781 298.507812 124.65625 301.996094 C 129.640625 305.484375 136.109375 310.457031 136.609375 312.449219 C 137.109375 314.441406 142.085938 319.425781 139.601562 322.414062 C 137.109375 325.402344 142.085938 330.878906 140.09375 334.367188 C 138.101562 337.851562 136.109375 333.375 133.125 327.394531 C 130.140625 321.417969 129.640625 320.421875 127.644531 317.433594 C 125.652344 314.441406 129.640625 319.425781 125.652344 314.441406 C 121.667969 309.464844 119.179688 311.957031 119.179688 316.9375 C 119.179688 321.914062 121.667969 324.902344 120.175781 328.390625 C 118.679688 331.875 112.222656 336.855469 115.953125 339.84375 C 119.675781 342.832031 120.175781 342.832031 121.667969 346.816406 C 123.164062 350.800781 126.648438 354.285156 123.660156 355.777344 C 120.671875 357.277344 116.207031 353.292969 115.953125 359.761719 C 115.691406 366.238281 116.707031 370.722656 115.953125 375.203125 C 115.195312 379.6875 118.183594 375.203125 113.699219 384.167969 C 109.21875 393.136719 112.207031 394.128906 111.210938 399.605469 C 110.214844 405.085938 107.226562 411.5625 107.226562 411.5625 C 107.226562 411.5625 110.214844 412.054688 105.234375 414.046875 C 100.25 416.039062 103.242188 420.523438 100.25 421.023438 C 97.265625 421.519531 97.265625 427 101.25 426.003906 C 105.234375 425.007812 104.738281 423.511719 108.222656 423.015625 C 111.707031 422.515625 115.691406 425.246094 113.203125 426.125 C 110.714844 427 109.21875 429.488281 106.230469 430.484375 C 103.242188 431.480469 100.753906 432.476562 104.738281 436.460938 C 108.71875 440.445312 109.21875 436.460938 112.703125 438.949219 C 116.191406 441.441406 115.195312 437.457031 120.671875 438.949219 C 126.152344 440.445312 129.136719 440.445312 129.640625 443.433594 C 130.140625 446.417969 133.125 448.410156 134.617188 449.90625 C 136.109375 451.398438 139.101562 448.410156 141.59375 449.90625 C 144.078125 451.398438 144.078125 450.40625 147.566406 452.398438 C 151.054688 454.390625 151.550781 453.390625 154.042969 455.382812 C 156.527344 457.375 156.035156 458.875 160.515625 458.375 C 164.996094 457.875 167.488281 456.074219 175.953125 458.46875 C 184.417969 460.867188 183.421875 460.0625 183.421875 458.46875 C 183.421875 456.882812 181.429688 451.398438 184.417969 450.90625 C 187.40625 450.40625 188.402344 451.898438 192.386719 453.390625 C 196.371094 454.890625 198.363281 452.898438 201.355469 454.890625 C 204.34375 456.882812 201.355469 454.890625 208.824219 454.890625 C 216.292969 454.890625 214.300781 454.890625 218.285156 457.875 C 222.269531 460.867188 227.171875 459.871094 224.222656 463.851562 C 221.273438 467.835938 220.777344 470.824219 226.253906 470.824219 C 231.730469 470.824219 230.238281 468.832031 235.214844 470.824219 C 240.199219 472.816406 234.722656 471.820312 241.191406 470.824219 C 247.671875 469.828125 242.1875 470.136719 251.15625 471.972656 C 260.121094 473.8125 257.132812 474.617188 266.097656 471.972656 C 275.058594 469.332031 279.042969 472.816406 278.546875 468.335938 C 278.046875 463.851562 271.574219 466.34375 274.5625 460.867188 C 277.550781 455.382812 279.042969 456.382812 276.054688 450.40625 C 273.066406 444.429688 269.582031 440.445312 275.058594 436.957031 C 280.539062 433.472656 275.058594 430.484375 286.015625 429.488281 C 296.976562 428.492188 291.992188 427 293.484375 423.015625 C 294.984375 419.03125 294.484375 421.519531 300.960938 419.527344 C 307.433594 417.53125 301.953125 416.039062 308.429688 414.546875 C 314.902344 413.054688 312.414062 414.046875 317.890625 414.546875 C 323.367188 415.046875 320.378906 418.53125 326.355469 414.046875 C 332.332031 409.570312 336.8125 409.570312 333.824219 414.046875 C 330.839844 418.53125 326.265625 420.027344 334.777344 419.03125 C 343.289062 418.035156 337.808594 418.035156 343.289062 418.035156 C 348.769531 418.035156 351.261719 421.023438 353.746094 422.515625 C 356.238281 424.011719 360.222656 432.476562 366.695312 430.980469 C 373.171875 429.488281 370.183594 433.472656 377.652344 433.472656 C 385.121094 433.472656 400.066406 436.957031 401.558594 432.972656 C 403.050781 428.992188 403.050781 428.492188 407.535156 427 C 412.015625 425.503906 411.519531 426.5 412.015625 420.523438 C 412.515625 414.546875 412.015625 417.039062 416.992188 414.546875 C 421.976562 412.054688 422.476562 411.0625 425.464844 408.070312 C 428.449219 405.085938 428.949219 408.070312 430.941406 402.597656 C 432.933594 397.121094 433.929688 400.605469 437.414062 397.121094 C 440.898438 393.628906 435.421875 392.636719 437.414062 389.152344 C 439.40625 385.660156 441.4375 385.164062 443.886719 379.6875 C 446.339844 374.207031 449.367188 372.214844 440.402344 375.203125 C 431.4375 378.191406 431.4375 379.6875 425.960938 379.1875 C 420.484375 378.691406 419.984375 366.238281 415.5 364.746094 C 411.023438 363.25 416.992188 363.75 414.507812 361.261719 C 412.015625 358.769531 409.527344 353.292969 413.507812 350.300781 C 417.492188 347.316406 423.472656 346.316406 419.488281 342.332031 C 415.5 338.347656 416.992188 336.359375 412.015625 335.859375 C 407.039062 335.359375 412.515625 338.847656 407.535156 332.375 C 402.550781 325.898438 400.558594 329.390625 402.550781 325.898438 C 404.542969 322.414062 402.550781 320.421875 408.035156 320.921875 C 413.507812 321.417969 415 322.910156 417.492188 319.425781 C 419.984375 315.933594 422.476562 314.441406 418.984375 308.464844 C 415.5 302.496094 416.992188 300.503906 412.515625 297.015625 C 408.035156 293.53125 406.535156 296.015625 405.542969 292.03125 C 404.542969 288.046875 412.015625 288.046875 412.515625 282.074219 C 413.007812 276.097656 414.007812 280.578125 408.53125 270.621094 C 403.050781 260.660156 406.535156 257.671875 398.574219 259.164062 C 390.605469 260.660156 384.125 256.671875 384.625 261.15625 C 385.121094 265.640625 394.589844 270.121094 386.117188 271.117188 C 377.652344 272.113281 371.675781 280.082031 374.167969 272.113281 C 376.65625 264.144531 385.121094 268.625 381.136719 258.171875 C 377.15625 247.710938 375.660156 249.703125 381.636719 244.71875 C 387.613281 239.738281 384.125 246.710938 387.613281 239.738281 C 391.097656 232.769531 388.609375 232.769531 393.585938 229.785156 C 398.574219 226.792969 399.566406 228.285156 402.550781 222.3125 C 405.542969 216.335938 412.015625 215.339844 409.023438 211.851562 C 406.042969 208.367188 405.046875 199.402344 409.023438 200.898438 C 413.007812 202.390625 415.5 206.375 417.992188 203.886719 C 420.484375 201.394531 429.945312 202.390625 427.953125 195.917969 C 425.960938 189.441406 426.460938 183.960938 427.457031 173.503906 C 428.449219 163.046875 430.941406 167.03125 431.4375 160.058594 C 431.9375 153.082031 432.933594 145.617188 432.433594 139.640625 C 431.9375 133.664062 430.445312 136.648438 434.425781 132.171875 C 438.410156 127.6875 444.882812 125.695312 437.414062 124.703125 C 429.945312 123.703125 428.949219 125.695312 423.96875 122.707031 C 418.984375 119.71875 422.476562 116.730469 415.5 118.722656 C 408.53125 120.714844 412.015625 124.199219 404.050781 119.21875 C 396.082031 114.238281 397.574219 116.230469 393.585938 114.738281 C 389.605469 113.246094 387.113281 113.246094 383.128906 107.765625 C 379.148438 102.289062 374.167969 101.789062 371.179688 102.289062 C 368.191406 102.785156 367.195312 108.761719 363.710938 105.773438 C 360.222656 102.785156 365.699219 101.292969 360.222656 102.785156 C 354.746094 104.28125 357.730469 106.273438 350.761719 101.292969 C 343.785156 96.3125 345.777344 96.3125 339.800781 92.828125 C 333.824219 89.335938 336.8125 87.34375 331.835938 85.851562 C 326.855469 84.359375 324.863281 85.351562 325.359375 79.378906 C 325.859375 73.402344 330.339844 73.402344 325.859375 73.402344 C 321.375 73.402344 321.375 77.882812 317.386719 77.882812 C 313.410156 77.882812 307.433594 80.378906 304.445312 76.394531 C 301.453125 72.410156 302.453125 65.433594 299.960938 63.441406 C 297.46875 61.449219 294.984375 64.9375 291.992188 63.941406 C 289.003906 62.945312 288.007812 58.960938 285.515625 55.46875 C 283.027344 51.988281 283.027344 55.46875 277.550781 52.984375 C 272.074219 50.492188 273.566406 47.5 270.578125 43.523438 C 267.589844 39.539062 264.105469 39.539062 260.121094 41.03125 C 256.132812 42.527344 254.640625 37.972656 250.660156 34.023438 C 246.675781 30.074219 234.046875 33.886719 229.738281 34.058594 " fill-opacity="1" fill-rule="nonzero"/><g clip-path="url(#04f83d57ba)"><path fill="#545454" d="M 261.609375 128.742188 C 254.796875 128.742188 249.273438 134.277344 249.273438 141.105469 C 249.273438 150.378906 261.609375 164.066406 261.609375 164.066406 C 261.609375 164.066406 273.949219 150.378906 273.949219 141.105469 C 273.949219 134.277344 268.425781 128.742188 261.609375 128.742188 Z M 261.609375 145.519531 C 259.175781 145.519531 257.207031 143.542969 257.207031 141.105469 C 257.207031 138.667969 259.175781 136.691406 261.609375 136.691406 C 264.042969 136.691406 266.015625 138.667969 266.015625 141.105469 C 266.015625 143.542969 264.042969 145.519531 261.609375 145.519531 Z M 261.609375 145.519531 " fill-opacity="1" fill-rule="nonzero"/></g><g fill="#000000" fill-opacity="1"><g transform="translate(210.959012, 186.936201)"><g><path d="M 0.625 0 L 2.765625 -10.96875 L 4.25 -10.96875 L 2.109375 0 Z M 0.625 0 "/></g></g></g><g fill="#000000" fill-opacity="1"><g transform="translate(215.861811, 186.936201)"><g><path d="M 0.25 0 L 2.5 -11.546875 L 3.90625 -11.546875 L 1.65625 0 Z M 0.25 0 "/></g></g></g><g fill="#000000" fill-opacity="1"><g transform="translate(219.878126, 186.936201)"><g><path d="M 2 -3.921875 C 1.96875 -3.734375 1.941406 -3.4375 1.921875 -3.03125 C 1.921875 -2.34375 2.09375 -1.8125 2.4375 -1.4375 C 2.78125 -1.070312 3.300781 -0.890625 4 -0.890625 C 4.5 -0.890625 4.953125 -1.015625 5.359375 -1.265625 C 5.773438 -1.515625 6.097656 -1.851562 6.328125 -2.28125 L 7.40625 -1.796875 C 7.019531 -1.117188 6.535156 -0.625 5.953125 -0.3125 C 5.367188 0 4.664062 0.15625 3.84375 0.15625 C 2.789062 0.15625 1.972656 -0.128906 1.390625 -0.703125 C 0.816406 -1.285156 0.53125 -2.101562 0.53125 -3.15625 C 0.53125 -4.195312 0.710938 -5.128906 1.078125 -5.953125 C 1.453125 -6.785156 1.972656 -7.429688 2.640625 -7.890625 C 3.316406 -8.347656 4.070312 -8.578125 4.90625 -8.578125 C 5.96875 -8.578125 6.789062 -8.304688 7.375 -7.765625 C 7.96875 -7.234375 8.265625 -6.484375 8.265625 -5.515625 C 8.265625 -4.960938 8.203125 -4.429688 8.078125 -3.921875 Z M 6.84375 -4.984375 L 6.875 -5.546875 C 6.875 -6.191406 6.707031 -6.6875 6.375 -7.03125 C 6.039062 -7.375 5.5625 -7.546875 4.9375 -7.546875 C 4.238281 -7.546875 3.648438 -7.320312 3.171875 -6.875 C 2.703125 -6.425781 2.367188 -5.796875 2.171875 -4.984375 Z M 6.84375 -4.984375 "/></g></g></g><g fill="#000000" fill-opacity="1"><g transform="translate(229.213351, 186.936201)"><g><path d="M 0.8125 -3.609375 L 1.0625 -4.859375 L 4.953125 -4.859375 L 4.703125 -3.609375 Z M 0.8125 -3.609375 "/></g></g></g><g fill="#000000" fill-opacity="1"><g transform="translate(234.994855, 186.936201)"><g><path d="M 3.125 0.15625 C 2.3125 0.15625 1.675781 -0.0859375 1.21875 -0.578125 C 0.757812 -1.066406 0.53125 -1.738281 0.53125 -2.59375 C 0.53125 -3.644531 0.691406 -4.664062 1.015625 -5.65625 C 1.335938 -6.644531 1.785156 -7.375 2.359375 -7.84375 C 2.941406 -8.320312 3.679688 -8.5625 4.578125 -8.5625 C 5.210938 -8.5625 5.726562 -8.425781 6.125 -8.15625 C 6.53125 -7.894531 6.816406 -7.519531 6.984375 -7.03125 L 7.03125 -7.03125 L 7.25 -8.28125 L 7.890625 -11.546875 L 9.28125 -11.546875 L 7.375 -1.734375 C 7.226562 -1.003906 7.128906 -0.425781 7.078125 0 L 5.75 0 C 5.75 -0.257812 5.800781 -0.675781 5.90625 -1.25 L 5.875 -1.25 C 5.488281 -0.75 5.082031 -0.390625 4.65625 -0.171875 C 4.238281 0.046875 3.726562 0.15625 3.125 0.15625 Z M 3.53125 -0.921875 C 4.039062 -0.921875 4.476562 -1.023438 4.84375 -1.234375 C 5.207031 -1.441406 5.515625 -1.753906 5.765625 -2.171875 C 6.023438 -2.597656 6.226562 -3.128906 6.375 -3.765625 C 6.519531 -4.398438 6.59375 -4.972656 6.59375 -5.484375 C 6.59375 -6.128906 6.425781 -6.628906 6.09375 -6.984375 C 5.769531 -7.347656 5.3125 -7.53125 4.71875 -7.53125 C 4.09375 -7.53125 3.59375 -7.34375 3.21875 -6.96875 C 2.851562 -6.59375 2.554688 -5.976562 2.328125 -5.125 C 2.109375 -4.269531 2 -3.507812 2 -2.84375 C 2 -2.207031 2.117188 -1.726562 2.359375 -1.40625 C 2.609375 -1.082031 3 -0.921875 3.53125 -0.921875 Z M 3.53125 -0.921875 "/></g></g></g><g fill="#000000" fill-opacity="1"><g transform="translate(244.330077, 186.936201)"><g><path d="M 2 -3.921875 C 1.96875 -3.734375 1.941406 -3.4375 1.921875 -3.03125 C 1.921875 -2.34375 2.09375 -1.8125 2.4375 -1.4375 C 2.78125 -1.070312 3.300781 -0.890625 4 -0.890625 C 4.5 -0.890625 4.953125 -1.015625 5.359375 -1.265625 C 5.773438 -1.515625 6.097656 -1.851562 6.328125 -2.28125 L 7.40625 -1.796875 C 7.019531 -1.117188 6.535156 -0.625 5.953125 -0.3125 C 5.367188 0 4.664062 0.15625 3.84375 0.15625 C 2.789062 0.15625 1.972656 -0.128906 1.390625 -0.703125 C 0.816406 -1.285156 0.53125 -2.101562 0.53125 -3.15625 C 0.53125 -4.195312 0.710938 -5.128906 1.078125 -5.953125 C 1.453125 -6.785156 1.972656 -7.429688 2.640625 -7.890625 C 3.316406 -8.347656 4.070312 -8.578125 4.90625 -8.578125 C 5.96875 -8.578125 6.789062 -8.304688 7.375 -7.765625 C 7.96875 -7.234375 8.265625 -6.484375 8.265625 -5.515625 C 8.265625 -4.960938 8.203125 -4.429688 8.078125 -3.921875 Z M 6.84375 -4.984375 L 6.875 -5.546875 C 6.875 -6.191406 6.707031 -6.6875 6.375 -7.03125 C 6.039062 -7.375 5.5625 -7.546875 4.9375 -7.546875 C 4.238281 -7.546875 3.648438 -7.320312 3.171875 -6.875 C 2.703125 -6.425781 2.367188 -5.796875 2.171875 -4.984375 Z M 6.84375 -4.984375 "/></g></g></g><g fill="#000000" fill-opacity="1"><g transform="translate(253.665302, 186.936201)"><g><path d="M 0.8125 -3.609375 L 1.0625 -4.859375 L 4.953125 -4.859375 L 4.703125 -3.609375 Z M 0.8125 -3.609375 "/></g></g></g><g fill="#000000" fill-opacity="1"><g transform="translate(259.446806, 186.936201)"><g><path d="M 3.875 -9.75 L 3.078125 -5.671875 L 9.265625 -5.671875 L 9.03125 -4.4375 L 2.828125 -4.4375 L 1.984375 0 L 0.484375 0 L 2.609375 -10.96875 L 10.484375 -10.96875 L 10.25 -9.75 Z M 3.875 -9.75 "/></g></g></g><g fill="#000000" fill-opacity="1"><g transform="translate(269.652964, 186.936201)"><g><path d="M 5.59375 -7.296875 C 5.363281 -7.367188 5.128906 -7.40625 4.890625 -7.40625 C 4.335938 -7.40625 3.84375 -7.117188 3.40625 -6.546875 C 2.96875 -5.972656 2.671875 -5.253906 2.515625 -4.390625 L 1.671875 0 L 0.265625 0 L 1.53125 -6.453125 L 1.71875 -7.53125 L 1.859375 -8.421875 L 3.1875 -8.421875 L 2.90625 -6.703125 L 2.9375 -6.703125 C 3.28125 -7.390625 3.617188 -7.875 3.953125 -8.15625 C 4.285156 -8.4375 4.671875 -8.578125 5.109375 -8.578125 C 5.347656 -8.578125 5.59375 -8.539062 5.84375 -8.46875 Z M 5.59375 -7.296875 "/></g></g></g><g fill="#000000" fill-opacity="1"><g transform="translate(275.434468, 186.936201)"><g><path d="M 7.21875 0.078125 C 6.726562 0.078125 6.375 -0.0195312 6.15625 -0.21875 C 5.9375 -0.414062 5.828125 -0.710938 5.828125 -1.109375 L 5.875 -1.609375 L 5.828125 -1.609375 C 5.390625 -0.953125 4.941406 -0.492188 4.484375 -0.234375 C 4.023438 0.0234375 3.46875 0.15625 2.8125 0.15625 C 2.082031 0.15625 1.488281 -0.0625 1.03125 -0.5 C 0.582031 -0.9375 0.359375 -1.488281 0.359375 -2.15625 C 0.359375 -3.125 0.703125 -3.851562 1.390625 -4.34375 C 2.078125 -4.832031 3.171875 -5.085938 4.671875 -5.109375 L 6.484375 -5.140625 C 6.578125 -5.648438 6.625 -5.976562 6.625 -6.125 C 6.625 -6.59375 6.488281 -6.941406 6.21875 -7.171875 C 5.945312 -7.398438 5.566406 -7.515625 5.078125 -7.515625 C 4.453125 -7.515625 3.984375 -7.398438 3.671875 -7.171875 C 3.359375 -6.953125 3.128906 -6.617188 2.984375 -6.171875 L 1.609375 -6.390625 C 1.835938 -7.160156 2.238281 -7.71875 2.8125 -8.0625 C 3.394531 -8.40625 4.175781 -8.578125 5.15625 -8.578125 C 6.039062 -8.578125 6.738281 -8.367188 7.25 -7.953125 C 7.769531 -7.535156 8.03125 -6.976562 8.03125 -6.28125 C 8.03125 -5.945312 7.984375 -5.539062 7.890625 -5.0625 L 7.3125 -2.109375 C 7.25 -1.867188 7.21875 -1.644531 7.21875 -1.4375 C 7.21875 -1.050781 7.429688 -0.859375 7.859375 -0.859375 C 7.992188 -0.859375 8.144531 -0.878906 8.3125 -0.921875 L 8.203125 -0.046875 C 7.867188 0.0351562 7.539062 0.078125 7.21875 0.078125 Z M 6.296875 -4.171875 L 4.75 -4.140625 C 4.132812 -4.117188 3.648438 -4.0625 3.296875 -3.96875 C 2.941406 -3.875 2.664062 -3.753906 2.46875 -3.609375 C 2.269531 -3.460938 2.113281 -3.273438 2 -3.046875 C 1.894531 -2.816406 1.84375 -2.539062 1.84375 -2.21875 C 1.84375 -1.832031 1.96875 -1.515625 2.21875 -1.265625 C 2.46875 -1.023438 2.796875 -0.90625 3.203125 -0.90625 C 3.703125 -0.90625 4.15625 -1.015625 4.5625 -1.234375 C 4.96875 -1.453125 5.300781 -1.734375 5.5625 -2.078125 C 5.832031 -2.421875 6.003906 -2.796875 6.078125 -3.203125 Z M 6.296875 -4.171875 "/></g></g></g><g fill="#000000" fill-opacity="1"><g transform="translate(284.769693, 186.936201)"><g><path d="M 5.578125 0 L 6.5625 -5.015625 C 6.65625 -5.472656 6.703125 -5.863281 6.703125 -6.1875 C 6.703125 -7.050781 6.238281 -7.484375 5.3125 -7.484375 C 4.65625 -7.484375 4.078125 -7.234375 3.578125 -6.734375 C 3.078125 -6.234375 2.742188 -5.5625 2.578125 -4.71875 L 1.671875 0 L 0.265625 0 L 1.5625 -6.625 C 1.664062 -7.113281 1.765625 -7.710938 1.859375 -8.421875 L 3.1875 -8.421875 C 3.1875 -8.359375 3.15625 -8.15625 3.09375 -7.8125 C 3.039062 -7.46875 3 -7.191406 2.96875 -6.984375 L 2.984375 -6.984375 C 3.421875 -7.578125 3.851562 -7.988281 4.28125 -8.21875 C 4.71875 -8.445312 5.234375 -8.5625 5.828125 -8.5625 C 6.597656 -8.5625 7.175781 -8.375 7.5625 -8 C 7.945312 -7.625 8.140625 -7.078125 8.140625 -6.359375 C 8.140625 -6.023438 8.082031 -5.597656 7.96875 -5.078125 L 6.984375 0 Z M 5.578125 0 "/></g></g></g><g fill="#000000" fill-opacity="1"><g transform="translate(294.104918, 186.936201)"><g><path d="M 3.65625 -0.953125 C 4.71875 -0.953125 5.46875 -1.546875 5.90625 -2.734375 L 7.109375 -2.359375 C 6.484375 -0.679688 5.320312 0.15625 3.625 0.15625 C 2.625 0.15625 1.851562 -0.125 1.3125 -0.6875 C 0.78125 -1.257812 0.515625 -2.054688 0.515625 -3.078125 C 0.515625 -4.109375 0.703125 -5.070312 1.078125 -5.96875 C 1.460938 -6.863281 1.960938 -7.519531 2.578125 -7.9375 C 3.203125 -8.363281 3.960938 -8.578125 4.859375 -8.578125 C 5.734375 -8.578125 6.425781 -8.351562 6.9375 -7.90625 C 7.457031 -7.46875 7.742188 -6.863281 7.796875 -6.09375 L 6.40625 -5.90625 C 6.375 -6.40625 6.21875 -6.789062 5.9375 -7.0625 C 5.664062 -7.34375 5.289062 -7.484375 4.8125 -7.484375 C 4.164062 -7.484375 3.640625 -7.304688 3.234375 -6.953125 C 2.828125 -6.597656 2.507812 -6.039062 2.28125 -5.28125 C 2.0625 -4.519531 1.953125 -3.769531 1.953125 -3.03125 C 1.953125 -1.644531 2.519531 -0.953125 3.65625 -0.953125 Z M 3.65625 -0.953125 "/></g></g></g><g fill="#000000" fill-opacity="1"><g transform="translate(302.545877, 186.936201)"><g><path d="M 2 -3.921875 C 1.96875 -3.734375 1.941406 -3.4375 1.921875 -3.03125 C 1.921875 -2.34375 2.09375 -1.8125 2.4375 -1.4375 C 2.78125 -1.070312 3.300781 -0.890625 4 -0.890625 C 4.5 -0.890625 4.953125 -1.015625 5.359375 -1.265625 C 5.773438 -1.515625 6.097656 -1.851562 6.328125 -2.28125 L 7.40625 -1.796875 C 7.019531 -1.117188 6.535156 -0.625 5.953125 -0.3125 C 5.367188 0 4.664062 0.15625 3.84375 0.15625 C 2.789062 0.15625 1.972656 -0.128906 1.390625 -0.703125 C 0.816406 -1.285156 0.53125 -2.101562 0.53125 -3.15625 C 0.53125 -4.195312 0.710938 -5.128906 1.078125 -5.953125 C 1.453125 -6.785156 1.972656 -7.429688 2.640625 -7.890625 C 3.316406 -8.347656 4.070312 -8.578125 4.90625 -8.578125 C 5.96875 -8.578125 6.789062 -8.304688 7.375 -7.765625 C 7.96875 -7.234375 8.265625 -6.484375 8.265625 -5.515625 C 8.265625 -4.960938 8.203125 -4.429688 8.078125 -3.921875 Z M 6.84375 -4.984375 L 6.875 -5.546875 C 6.875 -6.191406 6.707031 -6.6875 6.375 -7.03125 C 6.039062 -7.375 5.5625 -7.546875 4.9375 -7.546875 C 4.238281 -7.546875 3.648438 -7.320312 3.171875 -6.875 C 2.703125 -6.425781 2.367188 -5.796875 2.171875 -4.984375 Z M 6.84375 -4.984375 "/></g></g></g></svg>