<svg xmlns="http://www.w3.org/2000/svg" width="100" height="100" version="1.0" viewBox="0 0 75 75"><defs><clipPath id="a"><path d="M27 46h42v28.719H27Zm0 0"/></clipPath><clipPath id="b"><path d="M51 23.719h6V30h-6Zm0 0"/></clipPath><clipPath id="c"><path d="M50 23.719h4V30h-4Zm0 0"/></clipPath><clipPath id="d"><path d="M13.063 45.758h31.453v20.144H13.063Zm0 0"/></clipPath><clipPath id="e"><path d="m42.477 65.867-25.168-.105a.845.845 0 0 1-.825-.688c-1.132-6.062-2.261-12.129-3.39-18.195a.84.84 0 0 1 .824-.992l29.719-.102a.84.84 0 0 1 .847.89c-.386 6.134-.777 12.27-1.164 18.407a.842.842 0 0 1-.843.785Zm0 0"/></clipPath><clipPath id="f"><path d="m42.477 65.867-25.168-.105a.845.845 0 0 1-.825-.688c-1.132-6.062-2.261-12.129-3.39-18.195a.84.84 0 0 1 .824-.992l29.719-.102a.84.84 0 0 1 .847.89c-.386 6.134-.777 12.27-1.164 18.407a.842.842 0 0 1-.843.785"/></clipPath><clipPath id="g"><path d="m3.375 52.773 20.594 28.028 30.164-21.926-20.59-28.023Zm0 0"/></clipPath><clipPath id="i"><path d="M.016 72.133h74.968v2.586H.016Zm0 0"/></clipPath><linearGradient id="h" x1="-.101" x2="1.019" y1="0" y2="0" gradientTransform="matrix(26.89864 -19.54804 19.65585 26.75112 16.255 64.559)" gradientUnits="userSpaceOnUse"><stop offset="0" stop-color="#E0E9F5"/><stop offset=".063" stop-color="#E0E9F5"/><stop offset=".094" stop-color="#E0E9F5"/><stop offset=".109" stop-color="#E0E9F5"/><stop offset=".125" stop-color="#E0EAF5"/><stop offset=".141" stop-color="#E1EAF5"/><stop offset=".148" stop-color="#E1EAF5"/><stop offset=".156" stop-color="#E2EAF6"/><stop offset=".188" stop-color="#E2EBF6"/><stop offset=".203" stop-color="#E3ECF6"/><stop offset=".219" stop-color="#E4ECF6"/><stop offset=".234" stop-color="#E5ECF7"/><stop offset=".25" stop-color="#E5ECF7"/><stop offset=".266" stop-color="#E6EDF7"/><stop offset=".281" stop-color="#E6EDF7"/><stop offset=".313" stop-color="#E7EDF7"/><stop offset=".32" stop-color="#E7EEF7"/><stop offset=".328" stop-color="#E8EFF8"/><stop offset=".344" stop-color="#E9EFF8"/><stop offset=".359" stop-color="#E9EFF8"/><stop offset=".375" stop-color="#EAEFF8"/><stop offset=".391" stop-color="#EAF0F8"/><stop offset=".406" stop-color="#EBF0F8"/><stop offset=".438" stop-color="#EBF1F9"/><stop offset=".445" stop-color="#ECF1F9"/><stop offset=".453" stop-color="#ECF2F9"/><stop offset=".469" stop-color="#ECF2F9"/><stop offset=".484" stop-color="#EDF3F9"/><stop offset=".5" stop-color="#EDF3F9"/><stop offset=".516" stop-color="#EEF3F9"/><stop offset=".523" stop-color="#EEF3FA"/><stop offset=".531" stop-color="#EFF4FA"/><stop offset=".563" stop-color="#EFF4FA"/><stop offset=".57" stop-color="#F0F4FA"/><stop offset=".578" stop-color="#F1F5FA"/><stop offset=".594" stop-color="#F1F5FA"/><stop offset=".602" stop-color="#F1F5FB"/><stop offset=".609" stop-color="#F2F6FB"/><stop offset=".625" stop-color="#F2F6FB"/><stop offset=".641" stop-color="#F3F6FB"/><stop offset=".648" stop-color="#F3F6FB"/><stop offset=".656" stop-color="#F3F7FB"/><stop offset=".672" stop-color="#F4F7FB"/><stop offset=".688" stop-color="#F4F8FB"/><stop offset=".695" stop-color="#F4F8FC"/><stop offset=".703" stop-color="#F5F8FC"/><stop offset=".719" stop-color="#F6F8FC"/><stop offset=".734" stop-color="#F6F9FC"/><stop offset=".75" stop-color="#F7F9FC"/><stop offset=".766" stop-color="#F7F9FC"/><stop offset=".773" stop-color="#F7F9FC"/><stop offset=".781" stop-color="#F8FAFD"/><stop offset=".797" stop-color="#F8FAFD"/><stop offset=".813" stop-color="#F8FAFD"/><stop offset=".828" stop-color="#F9FBFD"/><stop offset=".844" stop-color="#F9FBFD"/><stop offset=".852" stop-color="#FAFBFD"/><stop offset=".859" stop-color="#FAFCFE"/><stop offset=".875" stop-color="#FAFCFE"/><stop offset=".891" stop-color="#FBFCFE"/><stop offset=".906" stop-color="#FCFDFE"/><stop offset=".922" stop-color="#FCFDFE"/><stop offset=".938" stop-color="#FDFDFE"/><stop offset=".945" stop-color="#FDFEFE"/><stop offset=".953" stop-color="#FEFEFF"/><stop offset=".969" stop-color="#FEFEFF"/><stop offset=".984" stop-color="#FEFEFF"/><stop offset="1" stop-color="#FFF"/></linearGradient></defs><g clip-path="url(#a)"><path fill="#4280ac" d="M63.613 73.852c-7.023.054-14.047.113-21.07.168a50.378 50.378 0 0 0 0-13.91 46.218 46.218 0 0 1-1.848 1.706c-.715.621-2.156 1.813-4.59 3.496a65.874 65.874 0 0 1-7.253 4.356c-.438-.223-.973-.586-1.286-1.195-.859-1.668.555-4.028 4.977-9.602 7.418-9.351 9.73-10.652 11.672-11.394a17.619 17.619 0 0 1 5.457-1.137 67.22 67.22 0 0 0 8.223.176c.668.05 1.59.164 2.671.406.961.215 2.184.488 3.133 1.023 1.356.766 2.18 2.082 2.918 4.012 1.672 4.36 3.324 12.887.387 14.297-.43.207-1.211.379-2.574-.215-.418-2.16-.832-4.324-1.246-6.488a42.018 42.018 0 0 0 .43 14.3"/></g><path fill="#2b79a2" d="M57.34 50.14c0-.003 0-.007-.004-.007-.027.004.32 3.297.914 6.433 1.25 6.63 2.82 8.489 3.516 9.22.414.429.789.745 1.03.937-.01-1.067-.026-2.133-.042-3.2-3.219-7.93-5.363-13.218-5.414-13.382"/><path fill="#e28c78" d="M57.906 46.324c.121.043.149.035 1.285.297.309.07.563.133.73.172a42.825 42.825 0 0 1-2.702 2.645 43.545 43.545 0 0 1-3.262 2.648 133.126 133.126 0 0 1-3.434-2.945 127.37 127.37 0 0 1-2.832-2.606c.239-.039.594-.097 1.032-.172.632-.101.949-.156.984-.168.922-.308 1.266-1.66 1.418-2.261.23-.91.188-1.75.063-2.41h5.25c-.137.62-.266 1.69.136 2.878.227.668.555 1.63 1.332 1.922"/><path fill="#d6806d" d="M56.254 42.371c.016-.101.031-.207.055-.312.023-.13.05-.25.078-.364-.383.364-.801.657-1.242.856-.18.082-.727.304-1.391.308-1.371.004-2.328-.96-2.543-1.187a7.696 7.696 0 0 1-.043 2.047c.578.07 1.5.11 2.586-.164a7.151 7.151 0 0 0 2.5-1.184"/><path fill="#4f2e2c" d="M59.75 33.219c-.715-2.258-2.984-4.567-5.965-4.567-3.09.004-5.406 2.48-6.05 4.868-1.114 4.113 2.453 9.027 6.18 8.96 3.76-.066 7.12-5.195 5.835-9.261"/><path fill="#e89880" d="M58.828 35.84c0 3.234-2.285 7.047-5.074 7.02-2.738-.028-4.895-3.743-4.957-6.848-.067-3.27 2.168-7.168 4.957-7.192 2.766-.023 5.074 3.77 5.074 7.02"/><path fill="#4f2e2c" d="M54.688 35.02c-.032.16.496.394 1.175.523.68.133 1.258.113 1.29-.047.027-.156-.497-.39-1.176-.523-.68-.13-1.258-.11-1.29.047M52.852 35.02c.027.16-.497.394-1.176.523-.68.133-1.258.113-1.29-.047-.03-.156.497-.39 1.176-.523.68-.13 1.258-.11 1.29.047"/><path fill="#d6806d" d="M53.61 37.14s-.165 1.735-.547 1.981c-.387.242.367.336.367.336l.18-2.316"/><path fill="#e38b76" d="M55.152 37.813a.058.058 0 0 1-.058.058.06.06 0 0 1-.059-.059.06.06 0 0 1 .059-.058c.035 0 .058.027.058.059M54.688 38.39a.058.058 0 0 1-.06.06.058.058 0 0 1-.058-.06.06.06 0 0 1 .059-.058.06.06 0 0 1 .059.059M53.813 38.684c0 .03-.028.054-.06.054-.03 0-.058-.023-.058-.054 0-.036.028-.059.059-.059.031 0 .059.023.059.059M51.363 38.797a.058.058 0 0 1-.058.058c-.035 0-.059-.023-.059-.058 0-.031.024-.059.059-.059a.06.06 0 0 1 .058.059M55.152 38.797c0 .035-.023.058-.058.058a.058.058 0 0 1-.059-.058.06.06 0 0 1 .059-.059c.035 0 .058.028.058.059M55.68 38.277c0 .032-.028.055-.059.055-.031 0-.059-.023-.059-.055 0-.035.028-.058.06-.058.03 0 .058.023.058.058M56.086 38.043a.058.058 0 0 1-.059.059.06.06 0 0 1-.058-.059.06.06 0 0 1 .058-.059c.035 0 .059.028.059.059M55.91 38.738c0 .035-.023.059-.055.059-.035 0-.058-.024-.058-.059 0-.031.023-.054.058-.054.032 0 .055.023.055.054M56.203 37.523c0 .032-.027.055-.058.055-.032 0-.06-.023-.06-.055 0-.035.028-.058.06-.058.03 0 .058.023.058.058M56.844 38.043a.058.058 0 0 1-.059.059.06.06 0 0 1-.058-.059.06.06 0 0 1 .058-.059c.035 0 .059.028.059.059M54.219 38.102a.058.058 0 0 1-.059.058c-.031 0-.055-.027-.055-.058 0-.032.024-.059.055-.059.035 0 .059.027.059.059M54.746 37.695a.06.06 0 0 1-.059.059.06.06 0 0 1-.058-.059.06.06 0 0 1 .059-.058.06.06 0 0 1 .058.058M52.762 37.813a.06.06 0 0 1-.059.058.06.06 0 0 1-.058-.059.06.06 0 0 1 .058-.058.06.06 0 0 1 .059.059M50.895 38.277c0 .032-.028.055-.06.055-.03 0-.058-.023-.058-.055 0-.035.028-.058.059-.058.031 0 .059.023.059.058M52.527 38.508a.058.058 0 0 1-.058.058.06.06 0 0 1-.059-.058.06.06 0 0 1 .059-.059c.035 0 .058.028.058.059M53.23 38.277c0 .032-.027.055-.058.055-.035 0-.059-.023-.059-.055 0-.035.024-.058.059-.058.031 0 .058.023.058.058M56.496 38.45a.06.06 0 0 1-.059.058.06.06 0 0 1-.058-.059.06.06 0 0 1 .059-.058.06.06 0 0 1 .058.058M56.96 38.566a.058.058 0 0 1-.058.059.06.06 0 0 1-.058-.059.06.06 0 0 1 .058-.058c.035 0 .059.027.059.058M52.297 37.754a.06.06 0 0 1-.059.059.058.058 0 0 1-.058-.06c0-.03.023-.058.058-.058a.06.06 0 0 1 .059.059M51.71 38.219a.058.058 0 0 1-.058.058.06.06 0 0 1-.058-.058.06.06 0 0 1 .058-.059c.035 0 .059.028.059.059M50.313 38.738a.058.058 0 0 1-.06.059.058.058 0 0 1-.058-.059c0-.031.028-.054.059-.054.031 0 .059.023.059.054M50.719 37.754a.058.058 0 0 1-.059.059c-.031 0-.055-.028-.055-.06 0-.03.024-.058.055-.058.035 0 .059.028.059.059M51.477 37.637c0 .031-.024.058-.055.058a.058.058 0 0 1-.059-.058c0-.032.024-.059.059-.059.031 0 .055.027.055.059"/><path fill="#1c130f" d="M51.727 36.223a1.543 1.543 0 0 0-1.114.32c-.086.07-.12.156-.097.195.023.043.136.051.257-.023.032-.031.614-.52 1.258-.3.258.089.426.257.512.366.066.063.14.078.16.059.024-.024.008-.09-.047-.156a1.542 1.542 0 0 0-.93-.461M55.89 36.223a1.535 1.535 0 0 1 1.114.32c.086.07.125.156.098.195-.024.043-.137.051-.258-.023-.032-.031-.614-.52-1.254-.3-.262.089-.43.257-.516.366-.066.063-.14.078-.16.059-.023-.024-.008-.09.047-.156.086-.09.406-.403.93-.461"/><path fill="#d6806d" d="M51.383 31.469c.539 1.597 1.316 2.281 1.93 2.605 1.34.707 2.53.067 3.906.89.836.505 1.293 1.278 1.543 1.84a3.997 3.997 0 0 0-.34-1.324c-.125-.27-.59-1.207-1.547-1.746-.91-.515-1.465-.21-2.531-.43-.774-.156-1.824-.585-2.961-1.835"/><path fill="#4f2e2c" d="M52.883 28.695c-3.133.438-4.559 3.102-4.719 3.414-1.309 2.559-.367 5.008-.215 5.38.344-.028.688-.06 1.031-.087a10.753 10.753 0 0 1 2.403-5.933c1.043 1.472 2.094 2.043 2.894 2.281.989.297 1.551.074 2.383.453 1.168.527 1.774 1.738 2.102 2.73.238-.015.472-.035.707-.05a6.19 6.19 0 0 0 .37-2.137c-.003-.633-.109-2.598-1.632-4.215-2.105-2.23-5.094-1.867-5.324-1.836"/><path fill="#e89880" d="M59.785 38.465c-.293.84-.906 1.379-1.375 1.2-.469-.18-.61-1.009-.316-1.849.293-.84.91-1.379 1.379-1.199.465.18.605 1.008.312 1.848"/><path fill="none" stroke="#d6806d" stroke-miterlimit="10" stroke-width="20" d="M13778.796 8727.47c-12.744-16.476-24.577-35.697-35.5-56.749-50.975-104.342-39.142-208.685-28.219-261.772" transform="matrix(.0043 0 0 -.00427 .015 74.72)"/><path fill="#e89880" d="M47.71 38.465c.294.84.907 1.379 1.376 1.2.465-.18.61-1.009.316-1.849-.293-.84-.91-1.379-1.379-1.199-.464.18-.605 1.008-.312 1.848"/><path fill="none" stroke="#d6806d" stroke-miterlimit="10" stroke-width="20" d="M11263.725 8727.47c12.744-16.476 24.577-35.697 35.5-56.749 50.976-104.342 39.142-208.685 28.219-261.772" transform="matrix(.0043 0 0 -.00427 .015 74.72)"/><path fill="#1c130f" d="M56.43 36.66a.427.427 0 0 1-.852 0 .426.426 0 0 1 .852 0M52.04 36.66a.427.427 0 0 1-.852 0 .426.426 0 0 1 .851 0"/><path fill="#e86363" d="M55.246 40.27c-.3.125-.82.296-1.484.304a3.956 3.956 0 0 1-1.465-.261c.058.09.473.707 1.25.8.664.078 1.328-.254 1.7-.843"/><path fill="#e35757" d="M52.297 40.313a49.255 49.255 0 0 1 2.95-.043 3.917 3.917 0 0 1-2.95.042"/><g clip-path="url(#b)"><path fill="#4f2e2c" d="M55.355 24.328c.954.856 1.235 2.774.637 4.735-.668.097-1.422.167-2.242.18-.793.007-1.52-.044-2.168-.122-.539-1.863-.27-3.723.664-4.652.719-.715 1.594-.735 1.594-.735s.844-.015 1.515.594"/></g><path fill="#472725" d="M52.883 28.695a6.923 6.923 0 0 1 3.078.371c.012-.003.02-.003.031-.003.051-.168.094-.333.133-.497a6.976 6.976 0 0 0-3.113-.382 5.925 5.925 0 0 0-1.555.437c.027.14.063.277.102.418a5.868 5.868 0 0 1 1.324-.344"/><g clip-path="url(#c)"><path fill="#4f2e2c" d="M51.598 29.168a.058.058 0 0 1-.035-.016 3.446 3.446 0 0 1-.696-1.386c-.039-.176-.383-1.77.7-2.98.507-.571 1.132-.833 1.562-.954a.048.048 0 0 1 .055.031.04.04 0 0 1-.032.051 3.176 3.176 0 0 0-1.523.926c-1.05 1.18-.719 2.734-.676 2.906.117.492.344.945.676 1.352.016.015.012.043-.004.058a.042.042 0 0 1-.027.012"/></g><path fill="#4f2e2c" d="M51.246 29.25c-.02 0-.035-.012-.043-.031a4.683 4.683 0 0 1 .426-3.348c.207-.379.465-.726.715-1.066a.044.044 0 0 1 .062-.008c.016.015.024.039.008.058-.25.336-.508.684-.71 1.055a4.596 4.596 0 0 0-.415 3.285.048.048 0 0 1-.031.055h-.012"/><path fill="#472725" d="M55.871 28.953h-.004a.044.044 0 0 1-.035-.05 7.276 7.276 0 0 0-.848-4.712c-.011-.023-.007-.046.016-.058a.044.044 0 0 1 .059.015 7.329 7.329 0 0 1 .855 4.77.042.042 0 0 1-.043.035"/><path fill="#4f2e2c" d="M55.906 29.277c-.011 0-.02-.004-.031-.011-.016-.016-.016-.043 0-.063a2.775 2.775 0 0 0 .785-1.973 2.778 2.778 0 0 0-.847-1.945c-.016-.015-.016-.043 0-.062a.042.042 0 0 1 .058 0c.547.523.863 1.254.875 2.007a2.861 2.861 0 0 1-.809 2.032.036.036 0 0 1-.03.015M58.996 36.55a.036.036 0 0 1-.031-.015L57.75 35.32c-.21-.21-.426-.43-.691-.574-.32-.176-.684-.234-1.09-.285l-.168-.02c-1.188-.148-2.418-.3-3.297-1.082-.848-.754-1.149-1.875-1.43-3.152-.004-.023.012-.043.035-.05a.044.044 0 0 1 .051.034c.278 1.262.574 2.368 1.399 3.102.863.77 2.078.918 3.254 1.062l.167.024c.399.05.786.11 1.118.293.277.148.5.371.715.586l1.214 1.219c.016.015.016.043 0 .062a.044.044 0 0 1-.03.012"/><path fill="#4f2e2c" d="M48.762 36.707h-.008a.044.044 0 0 1-.035-.05 8.816 8.816 0 0 1 1.726-3.684c.285-.356.598-.692.903-1.02.441-.473.898-.965 1.257-1.508.016-.02.043-.027.063-.011.02.011.023.039.012.058-.367.551-.825 1.043-1.27 1.52-.3.324-.617.66-.898 1.015a8.692 8.692 0 0 0-1.707 3.649c-.004.02-.024.031-.043.031"/><path fill="#f8ac26" d="M52.063 28.688a.256.256 0 0 1-.079.355.263.263 0 0 1-.355-.078.255.255 0 0 1 .078-.356.258.258 0 0 1 .355.078"/><path fill="#f8ac26" d="m52.34 28.563-.281.18a.044.044 0 0 1-.059-.016c-.012-.02-.008-.047.012-.059l.281-.18a.044.044 0 0 1 .059.016c.011.02.007.047-.012.058M52.531 27.57a.256.256 0 0 1-.36.051.256.256 0 1 1 .31-.41.256.256 0 0 1 .05.36"/><path fill="#f8ac26" d="m52.746 27.781-.266-.195a.053.053 0 0 1-.007-.063.053.053 0 0 1 .062-.007l.266.199c.015.012.02.039.008.058a.044.044 0 0 1-.063.008M54.105 26.906a.259.259 0 0 1-.351.094.255.255 0 0 1-.098-.348.265.265 0 0 1 .352-.097c.125.07.168.226.097.351M54.863 27.836a.258.258 0 0 1 .356-.078.25.25 0 0 1 .078.351.255.255 0 0 1-.352.082.26.26 0 0 1-.082-.355"/><path fill="#f8ac26" d="m54.82 27.754.11.074c.011.008.008.027-.004.047s-.031.031-.04.027c-.038-.023-.074-.043-.109-.062a.056.056 0 0 1-.027-.074c.016-.02.043-.028.07-.012"/><path fill="#ea9d88" d="M39.527 64.805c3.922.882 4.684 1.09 5.317 1.191.37.059.953.145 1.683.215-.257.715-.515 1.426-.77 2.14-.32.07-.823.184-1.444.325-8.594 1.91-10.903 2.097-13.36 1.566-1.41-.3-2.996-.664-3.371-1.758-.473-1.398 1.176-3.566 3.14-4.472 2.005-.922 4.27-.352 8.805.793"/><path fill="#ea9d88" d="M50.887 66.75c.562.3.937.695 1.16.973.25.347.445.64.582.855.625.973.695 1.29.586 1.52-.012.02-.031.078-.086.109-.113.059-.27-.039-.328-.078-.414-.258-.82-1.121-1.317-1.688a3.393 3.393 0 0 0-.691-.59c.25.38.453.704.605.95.192.304.247.406.27.562.055.39-.133.887-.43.938a.414.414 0 0 1-.297-.078.474.474 0 0 1-.3.37.484.484 0 0 1-.45-.058c-.082.117-.21.266-.382.278-.223.015-.364-.215-.727-.563a5.594 5.594 0 0 0-.633-.523c-.652-.442-1.09-.184-1.761-.508-.254-.121-.61-.36-.946-.88l.785-2.144c.739.032 1.36.07 1.813.106 1.84.14 2.203.27 2.547.449"/><path fill="#d18272" d="M50.977 70.219a5.585 5.585 0 0 1-.153-.496c-.023-.086-.043-.164-.09-.227-.047-.062-.113-.125-.172-.187a8.054 8.054 0 0 0-.37-.36c-.126-.117-.258-.23-.387-.347.152.085.293.187.43.296a4.736 4.736 0 0 1 .48.446c.027.031.058.066.086.105.054.082.07.176.086.258.035.168.066.34.09.512M50.2 70.46a2.208 2.208 0 0 0-.157-.366 1.904 1.904 0 0 0-.223-.324c-.086-.102-.183-.188-.28-.282a1.427 1.427 0 0 1-.263-.312c.098.097.2.176.305.261.105.083.211.172.3.278.09.105.165.222.22.347.054.13.09.262.097.399"/><path fill="#f2ab9b" d="M53.063 69.305c-.024-.004-.25-.016-.31.105-.026.055-.01.117.048.242.074.157.277.602.398.567.012-.004.043-.02.067-.121.078-.32-.118-.66-.203-.793"/><path fill="#4280ac" d="M60.71 37.844c-.073 1.082-.581 1.926-1.132 1.886-.55-.039-.933-.945-.86-2.023.079-1.082.583-1.926 1.134-1.887.55.04.933.946.859 2.024"/><path fill="#4280ac" d="M47.75 35.918c-.016-.18-.309-4.438 2.457-6.152 1.2-.743 2.637-.79 3.406-.813.809-.027 2.313-.074 3.582.64.914.516 1.637 1.4 2.098 2.555.437 1.102.613 2.399.516 3.758l-.555-.039c.195-2.61-.723-4.883-2.332-5.793-1.133-.64-2.535-.594-3.29-.57-.773.023-2.062.066-3.132.73-2.484 1.54-2.21 5.473-2.2 5.641l-.55.043"/><path fill="#16223b" d="m59.117 40.05-.527-.038a.288.288 0 0 1-.274-.313l.282-4.023a.297.297 0 0 1 .316-.274l.527.04c.16.011.286.148.274.312l-.281 4.023a.297.297 0 0 1-.317.274"/><path fill="#4280ac" d="M46.758 37.848c.074 1.078.582 1.922 1.129 1.882.547-.039.93-.94.855-2.023-.074-1.078-.582-1.922-1.129-1.883-.547.04-.93.942-.855 2.024"/><path fill="#4280ac" d="M53.844 41.793c-.555 0-1.032.168-1.23.41-.36 0-.868-.008-1.59-.023-.848-.02-1.485-.461-1.895-1.313a4.28 4.28 0 0 1-.383-1.355l-.55.043c0 .03.062.777.425 1.539.5 1.043 1.328 1.61 2.39 1.636.684.016 1.231.024 1.65.024.218.215.667.363 1.183.363.734 0 1.332-.297 1.332-.664 0-.363-.598-.66-1.332-.66"/><path fill="#16223b" d="m48.344 40.05.527-.038a.288.288 0 0 0 .274-.313l-.282-4.02a.298.298 0 0 0-.312-.273l-.531.04a.298.298 0 0 0-.274.312l.285 4.02c.012.16.153.285.313.273"/><path fill="#ea9d88" d="M62.152 52.895c-.789-1.215-1.894-3-3.117-5.258-.672.23-1.347.457-2.02.687.067.39.16.95.29 1.621.379 2.024 1.054 5.512 2.53 9.524 1.903 5.156 3.216 5.96 3.864 6.273.23.11 1.946.903 2.918.168 1.211-.91.508-3.61.215-4.734-.793-3.043-2.227-4.504-4.68-8.281"/><path fill="#e89880" d="M55.773 45.86s-.617-2.215-.312-2.465 1.066 1.851 1.066 1.851l-.754.613"/><path fill="#ea9d88" d="M59.059 47.922s.308-2.703.273-3.047c-.039-.344-.125-.773-.36-.887-.23-.117-3.57-3.09-3.757-3.02-.192.071-.172.813.293 1.122 0 0-.977-.676-1.121-.473-.14.207-.274.832 1.136 1.238l-1.14.004s-.055.657 1.035.598l1.395.273.175.22-1.953.917s.367.649 1.05.23l.33-.171s.558-.051.741-.07c-.207.132-.418.261-.625.394l-.746.598c-.015.312-.012.93.328 1.57.137.258.348.656.754.879.613.332 1.469.156 2.192-.375"/><path fill="#d18272" d="M58.531 44.414a5.77 5.77 0 0 1-.695-.188c-.113-.038-.223-.078-.336-.12a3.998 3.998 0 0 1-.328-.145c.121.02.234.05.351.082.114.031.227.066.34.105.114.04.227.079.34.122.11.042.219.09.328.144M58.652 44.027c-.125-.078-.246-.16-.37-.242-.126-.082-.247-.168-.368-.25-.121-.086-.242-.168-.363-.258-.121-.082-.239-.172-.36-.257l.024.007c-.219-.011-.442-.023-.66-.043l-.332-.023-.328-.035c.109-.004.218-.004.332-.004.109 0 .218.004.328.004.222.004.441.008.664.02h.011l.012.007c.121.086.238.172.36.258.117.086.238.176.355.266l.352.27c.117.093.23.183.343.28M55.508 42.09c.117.023.234.05.347.082l.344.105c.114.04.227.082.336.125.113.043.223.09.328.145a3.46 3.46 0 0 1-.347-.082 5.004 5.004 0 0 1-.344-.106c-.113-.039-.227-.078-.336-.12-.11-.048-.223-.094-.328-.15"/><path fill="#f2ab9b" d="M55.879 41.418s-.531-.469-.664-.45c-.137.024.375.493.558.555l.106-.105M55.328 41.973s-.617-.414-.887-.387c-.265.023.489.398.801.469l.086-.082M55.05 42.855l-.667.004s.097.188.66.11l.008-.114M55.715 44.547l-.703.316a.038.038 0 0 0 .004.035c.043.07.297.028.472-.066a.812.812 0 0 0 .246-.2l-.02-.085"/><path fill="#d18272" d="M57.785 45.258a7.673 7.673 0 0 0-.723.883 6.718 6.718 0 0 0-.3.484 7.767 7.767 0 0 0-.27.504 3.295 3.295 0 0 1 .348-.793c.047-.082.101-.16.152-.242.059-.078.113-.157.176-.23a3.342 3.342 0 0 1 .617-.605"/><path fill="#e0e9f5" d="M63.328 70.996H43.766a.4.4 0 0 0-.399.399v.73h20.36v-.73a.398.398 0 0 0-.399-.399"/><path fill="#fff" d="M44.781 71v-.105a.234.234 0 0 0-.234-.23h-.395a.234.234 0 0 0-.234.23V71h.863M46.285 71v-.105a.233.233 0 0 0-.23-.23h-.399a.23.23 0 0 0-.23.23V71h.86M47.266 71v-.105a.23.23 0 0 0-.23-.23h-.395a.234.234 0 0 0-.235.23V71h.86M48.25 71v-.105a.233.233 0 0 0-.23-.23h-.399a.23.23 0 0 0-.23.23V71h.859M49.23 71v-.105a.23.23 0 0 0-.23-.23h-.395a.234.234 0 0 0-.234.23V71h.86M50.555 71v-.105a.234.234 0 0 0-.235-.23h-.394a.23.23 0 0 0-.23.23V71h.859M51.535 71v-.105a.23.23 0 0 0-.23-.23h-.399a.233.233 0 0 0-.23.23V71h.86M52.52 71v-.105a.233.233 0 0 0-.23-.23h-.4a.23.23 0 0 0-.23.23V71h.86M53.5 71v-.105a.23.23 0 0 0-.23-.23h-.395a.234.234 0 0 0-.234.23V71h.859M54.824 71v-.105a.234.234 0 0 0-.234-.23h-.395a.234.234 0 0 0-.234.23V71h.863M55.805 71v-.105a.23.23 0 0 0-.23-.23h-.4a.23.23 0 0 0-.23.23V71h.86M56.79 71v-.105a.234.234 0 0 0-.235-.23h-.395a.23.23 0 0 0-.23.23V71h.86M57.77 71v-.105a.23.23 0 0 0-.23-.23h-.4a.233.233 0 0 0-.23.23V71h.86M59.09 71v-.105a.23.23 0 0 0-.23-.23h-.4a.233.233 0 0 0-.23.23V71h.86M60.074 71v-.105a.233.233 0 0 0-.23-.23h-.399a.23.23 0 0 0-.23.23V71h.86M61.059 71v-.105a.234.234 0 0 0-.235-.23h-.394a.234.234 0 0 0-.235.23V71h.864"/><path fill="#e0e9f5" d="M34.195 70.457H26.43c-.926 0-1.68.746-1.68 1.668h11.129c0-.922-.754-1.668-1.684-1.668"/><g clip-path="url(#d)"><g clip-path="url(#e)"><g clip-path="url(#f)"><g clip-path="url(#g)"><path fill="url(#h)" d="M3.441 52.773 24.008 80.77l30.129-21.895-20.57-27.992Zm0 0"/></g></g></g></g><path fill="#e0e9f5" d="M33.895 59.793c-9.301-2.305-16.23-8.035-17.594-13.914l-2.383.008a.84.84 0 0 0-.824.992c1.129 6.066 2.258 12.133 3.39 18.195a.845.845 0 0 0 .825.688l25.168.105a.842.842 0 0 0 .843-.785c.09-1.45.184-2.898.274-4.348-3.032.184-6.336-.109-9.7-.941"/><path fill="#fff" d="M30.746 55.656h-3.539a.681.681 0 0 0-.68.602l-1.785 15.867h8.469c-.598-5.29-1.191-10.578-1.785-15.867a.681.681 0 0 0-.68-.602"/><path fill="#d1e0f0" d="M26.527 56.258a.681.681 0 0 1 .68-.602h-.898a.681.681 0 0 0-.68.602l-1.07 9.535.894.004 1.074-9.54M30.457 63.234c0 .813-.664 1.473-1.48 1.473a1.475 1.475 0 1 1 0-2.95c.816 0 1.48.661 1.48 1.477M29.32 50.023c-.445-.398-.41-.949-.406-1.011a1.413 1.413 0 0 0-1.363 1.41c0 .781.637 1.41 1.418 1.41.785 0 1.422-.629 1.422-1.41 0-.04-.004-.074-.008-.113a1.272 1.272 0 0 1-1.063-.286"/><path fill="#44773d" d="M13.488 59.59c1.075-.903 1.719-2.223 2.082-3.574.106-.399.188-.801.192-1.211.004-.407-.075-.825-.278-1.18-.113-.2-.277-.383-.496-.45-.207-.062-.43-.01-.629.067-.496.196-.91.567-1.222.996-.313.43-.532.922-.719 1.418-.29.782-.508 1.594-.645 2.414-.066.39-.097.77-.039 1.16.036.25.051.614.2.829.336.48 1.261-.227 1.554-.47M8.055 54.988c.008-.781.02-2.195.84-2.593.308-.149.613-.094.66-.086.847.16 1.238 1.37 1.59 2.46.289.895.511 1.583.44 2.56a5.416 5.416 0 0 1-.882 2.577h-.265a4.989 4.989 0 0 1-1.192-1.097c-.574-.739-.789-1.45-.926-1.93a6.594 6.594 0 0 1-.265-1.89M7.105 57.438c-.32-.325-.726-.56-1.14-.754a7.572 7.572 0 0 0-2.75-.707c-.2-.012-.418-.008-.582.109a.629.629 0 0 0-.227.36c-.086.343.059.671.18.89.781 1.422 2.375 2.219 2.375 2.219.375.187.652.324 1.07.386a3.11 3.11 0 0 0 1.715-.254l.129-.175a4.302 4.302 0 0 0-.04-.414c-.034-.246-.07-.543-.187-.836a2.482 2.482 0 0 0-.543-.825"/><path fill="#336b38" d="M10.21 64.938h.02a.116.116 0 0 0 .09-.13c-.258-1.386-.691-2.628-1.293-3.695-.68-1.203-1.593-2.203-2.64-2.894-.434-.29-.899-.528-1.352-.762-.414-.215-.84-.434-1.238-.687-.05-.036-.117-.02-.152.03a.112.112 0 0 0 .035.153c.402.262.836.484 1.254.7.445.23.906.468 1.328.75 1.02.671 1.91 1.644 2.57 2.816.594 1.047 1.02 2.27 1.27 3.629.007.054.054.09.109.09"/><path fill="#44773d" d="M16.105 59.027c.278-.277.625-.48.98-.648a6.56 6.56 0 0 1 2.368-.606c.176-.011.363-.007.504.094.098.07.164.188.191.305.079.297-.046.582-.152.77-.672 1.226-2.047 1.913-2.047 1.913-.32.16-.558.278-.918.333-.656.097-1.199-.098-1.476-.22-.04-.05-.075-.1-.114-.152.004-.09.016-.21.036-.355.03-.215.058-.473.164-.723.105-.261.261-.508.464-.71"/><path fill="#336b38" d="M13.434 65.488c-.008 0-.012 0-.02-.004a.091.091 0 0 1-.074-.109c.219-1.191.594-2.262 1.113-3.18.582-1.035 1.371-1.898 2.274-2.496.37-.246.773-.453 1.16-.652.355-.184.722-.375 1.066-.594a.097.097 0 0 1 .133.031.092.092 0 0 1-.031.13c-.348.222-.72.413-1.078.6-.387.2-.782.403-1.145.645-.879.578-1.645 1.418-2.215 2.426-.508.903-.875 1.953-1.09 3.125a.096.096 0 0 1-.093.078M11.465 64.77c.058.003.11-.04.117-.098l.223-1.723c.195-1.484.394-3.023.8-4.488.454-1.637 1.122-2.996 1.989-4.043a.111.111 0 0 0-.016-.156.111.111 0 0 0-.156.015c-.887 1.07-1.57 2.461-2.027 4.125-.41 1.48-.614 3.028-.81 4.52l-.222 1.723a.113.113 0 0 0 .094.125h.008"/><path fill="#508247" d="M8.625 63.496c-.523-.496-.809-1.195-.945-1.902a2.407 2.407 0 0 1-.059-.625 1.23 1.23 0 0 1 .18-.598.48.48 0 0 1 .27-.21.483.483 0 0 1 .32.054c.25.117.449.32.593.55.145.231.243.489.32.75.122.41.208.833.25 1.258.02.204.024.399-.019.598-.027.125-.047.313-.129.418-.187.234-.64-.16-.781-.293"/><path fill="#44773d" d="M9.488 66.219c-.031 0-.054-.024-.058-.055l-.055-.89c-.05-.77-.102-1.563-.262-2.329-.175-.851-.472-1.57-.883-2.136-.015-.028-.011-.063.016-.079a.053.053 0 0 1 .078.012c.418.578.723 1.313.903 2.18.16.773.21 1.574.261 2.344l.055.89a.051.051 0 0 1-.05.059l-.005.004"/><path fill="#336b38" d="M10.52 64.863a.108.108 0 0 0 .109-.101 34.885 34.885 0 0 0-.68-10.07.117.117 0 0 0-.133-.087.117.117 0 0 0-.086.133c.711 3.29.938 6.657.68 10.008a.107.107 0 0 0 .102.117h.008"/><path fill="#508247" d="M14.215 60.676c.05-.418.148-1.172-.258-1.446-.152-.101-.32-.093-.348-.093-.46.023-.761.64-1.027 1.195-.219.457-.39.809-.426 1.332-.043.668.16 1.184.281 1.441.047.004.094.012.141.02a2.77 2.77 0 0 0 .719-.5c.36-.352.527-.715.637-.96.203-.458.261-.845.28-.99"/><path fill="#44773d" d="M12.168 65.762c-.031-.004-.05-.032-.05-.063.109-1.82.484-3.61 1.109-5.32.011-.031.043-.047.074-.035.031.011.047.043.035.074a18.856 18.856 0 0 0-1.102 5.289c0 .031-.027.055-.062.055h-.004"/><path fill="#e65a56" d="M12.86 72.125H9.69a4.75 4.75 0 0 1-3.195-4.484c0-1.246.48-2.38 1.27-3.227h7.02c.788.848 1.269 1.98 1.269 3.227a4.755 4.755 0 0 1-3.196 4.484"/><path fill="#db4343" d="M7.766 64.414h.043c-.122.258-1.157 2.566.023 4.629 1.172 2.05 4.066 3.02 6.809 1.973-.5.492-1.106.875-1.782 1.109H9.691a4.75 4.75 0 0 1-3.195-4.484c0-1.246.48-2.38 1.27-3.227"/><path fill="#ed6262" d="M14.457 67.02c.664 1.64.113 2.957.348 3.003.27.055 1.21-1.625.843-3.324-.062-.297-.328-1.515-1.277-1.879-.312-.117-.832-.195-.988.032-.235.335.594.972 1.074 2.168"/><g clip-path="url(#i)"><path fill="#db9779" d="M73.688 74.719H1.311a1.29 1.29 0 0 1-1.296-1.29c0-.71.578-1.284 1.296-1.284h72.376c.718 0 1.296.574 1.296 1.285a1.29 1.29 0 0 1-1.296 1.289"/></g></svg>