<svg xmlns="http://www.w3.org/2000/svg" xmlns:xlink="http://www.w3.org/1999/xlink" width="100" zoomAndPan="magnify" viewBox="0 0 75 74.999997" height="100" preserveAspectRatio="xMidYMid meet" version="1.0"><defs><clipPath id="940dc110c7"><path d="M 27 46 L 69 46 L 69 74.71875 L 27 74.71875 Z M 27 46 " clip-rule="nonzero"/></clipPath><clipPath id="1163c39f15"><path d="M 51 23.71875 L 57 23.71875 L 57 30 L 51 30 Z M 51 23.71875 " clip-rule="nonzero"/></clipPath><clipPath id="5623657dae"><path d="M 50 23.71875 L 54 23.71875 L 54 30 L 50 30 Z M 50 23.71875 " clip-rule="nonzero"/></clipPath><clipPath id="39d9814ceb"><path d="M 13.0625 45.757812 L 44.515625 45.757812 L 44.515625 65.902344 L 13.0625 65.902344 Z M 13.0625 45.757812 " clip-rule="nonzero"/></clipPath><clipPath id="6ec63167c9"><path d="M 42.476562 65.867188 L 17.308594 65.761719 C 16.90625 65.757812 16.558594 65.472656 16.484375 65.074219 C 15.351562 59.011719 14.222656 52.945312 13.09375 46.878906 C 12.996094 46.367188 13.390625 45.890625 13.917969 45.886719 L 43.636719 45.785156 C 44.125 45.78125 44.515625 46.191406 44.484375 46.675781 C 44.097656 52.808594 43.707031 58.945312 43.320312 65.082031 C 43.292969 65.523438 42.921875 65.867188 42.476562 65.867188 Z M 42.476562 65.867188 " clip-rule="nonzero"/></clipPath><clipPath id="02a69b0dee"><path d="M 42.476562 65.867188 L 17.308594 65.761719 C 16.90625 65.757812 16.558594 65.472656 16.484375 65.074219 C 15.351562 59.011719 14.222656 52.945312 13.09375 46.878906 C 12.996094 46.367188 13.390625 45.890625 13.917969 45.886719 L 43.636719 45.785156 C 44.125 45.78125 44.515625 46.191406 44.484375 46.675781 C 44.097656 52.808594 43.707031 58.945312 43.320312 65.082031 C 43.292969 65.523438 42.921875 65.867188 42.476562 65.867188 " clip-rule="nonzero"/></clipPath><clipPath id="8cedf20821"><path d="M 3.375 52.773438 L 23.96875 80.800781 L 54.132812 58.875 L 33.542969 30.851562 Z M 3.375 52.773438 " clip-rule="nonzero"/></clipPath><linearGradient x1="-0.100728" gradientTransform="matrix(26.898644, -19.548045, 19.655848, 26.751117, 16.255017, 64.558693)" y1="0" x2="1.019226" gradientUnits="userSpaceOnUse" y2="0" id="e7a3b55b7c"><stop stop-opacity="1" stop-color="rgb(87.799072%, 91.398621%, 96.099854%)" offset="0"/><stop stop-opacity="1" stop-color="rgb(87.799072%, 91.398621%, 96.099854%)" offset="0.0625"/><stop stop-opacity="1" stop-color="rgb(87.799072%, 91.398621%, 96.099854%)" offset="0.09375"/><stop stop-opacity="1" stop-color="rgb(87.815857%, 91.415405%, 96.099854%)" offset="0.109375"/><stop stop-opacity="1" stop-color="rgb(88.015747%, 91.616821%, 96.099854%)" offset="0.125"/><stop stop-opacity="1" stop-color="rgb(88.206482%, 91.799927%, 96.107483%)" offset="0.140625"/><stop stop-opacity="1" stop-color="rgb(88.319397%, 91.799927%, 96.220398%)" offset="0.148437"/><stop stop-opacity="1" stop-color="rgb(88.526917%, 91.815186%, 96.411133%)" offset="0.15625"/><stop stop-opacity="1" stop-color="rgb(88.821411%, 92.019653%, 96.499634%)" offset="0.1875"/><stop stop-opacity="1" stop-color="rgb(89.205933%, 92.353821%, 96.499634%)" offset="0.203125"/><stop stop-opacity="1" stop-color="rgb(89.408875%, 92.498779%, 96.508789%)" offset="0.21875"/><stop stop-opacity="1" stop-color="rgb(89.608765%, 92.514038%, 96.708679%)" offset="0.234375"/><stop stop-opacity="1" stop-color="rgb(89.810181%, 92.713928%, 96.899414%)" offset="0.25"/><stop stop-opacity="1" stop-color="rgb(90.010071%, 92.89856%, 96.899414%)" offset="0.265625"/><stop stop-opacity="1" stop-color="rgb(90.213013%, 92.912292%, 96.899414%)" offset="0.28125"/><stop stop-opacity="1" stop-color="rgb(90.41748%, 93.118286%, 96.903992%)" offset="0.3125"/><stop stop-opacity="1" stop-color="rgb(90.711975%, 93.412781%, 97.012329%)" offset="0.320312"/><stop stop-opacity="1" stop-color="rgb(90.919495%, 93.608093%, 97.207642%)" offset="0.328125"/><stop stop-opacity="1" stop-color="rgb(91.210938%, 93.699646%, 97.299194%)" offset="0.34375"/><stop stop-opacity="1" stop-color="rgb(91.413879%, 93.713379%, 97.299194%)" offset="0.359375"/><stop stop-opacity="1" stop-color="rgb(91.61377%, 93.913269%, 97.299194%)" offset="0.375"/><stop stop-opacity="1" stop-color="rgb(91.804504%, 94.104004%, 97.299194%)" offset="0.390625"/><stop stop-opacity="1" stop-color="rgb(92.004395%, 94.303894%, 97.30835%)" offset="0.40625"/><stop stop-opacity="1" stop-color="rgb(92.349243%, 94.502258%, 97.457886%)" offset="0.4375"/><stop stop-opacity="1" stop-color="rgb(92.498779%, 94.60907%, 97.599792%)" offset="0.445312"/><stop stop-opacity="1" stop-color="rgb(92.50946%, 94.805908%, 97.599792%)" offset="0.453125"/><stop stop-opacity="1" stop-color="rgb(92.709351%, 94.90509%, 97.599792%)" offset="0.46875"/><stop stop-opacity="1" stop-color="rgb(92.912292%, 95.10498%, 97.599792%)" offset="0.484375"/><stop stop-opacity="1" stop-color="rgb(93.112183%, 95.298767%, 97.607422%)" offset="0.5"/><stop stop-opacity="1" stop-color="rgb(93.302917%, 95.301819%, 97.807312%)" offset="0.515625"/><stop stop-opacity="1" stop-color="rgb(93.409729%, 95.410156%, 97.999573%)" offset="0.523438"/><stop stop-opacity="1" stop-color="rgb(93.617249%, 95.606995%, 97.999573%)" offset="0.53125"/><stop stop-opacity="1" stop-color="rgb(93.911743%, 95.700073%, 97.999573%)" offset="0.5625"/><stop stop-opacity="1" stop-color="rgb(94.206238%, 95.805359%, 97.999573%)" offset="0.570312"/><stop stop-opacity="1" stop-color="rgb(94.404602%, 96.005249%, 98.008728%)" offset="0.578125"/><stop stop-opacity="1" stop-color="rgb(94.503784%, 96.102905%, 98.208618%)" offset="0.59375"/><stop stop-opacity="1" stop-color="rgb(94.612122%, 96.211243%, 98.399353%)" offset="0.601563"/><stop stop-opacity="1" stop-color="rgb(94.807434%, 96.408081%, 98.399353%)" offset="0.609375"/><stop stop-opacity="1" stop-color="rgb(94.90509%, 96.499634%, 98.399353%)" offset="0.625"/><stop stop-opacity="1" stop-color="rgb(95.10498%, 96.50116%, 98.399353%)" offset="0.640625"/><stop stop-opacity="1" stop-color="rgb(95.298767%, 96.607971%, 98.399353%)" offset="0.648438"/><stop stop-opacity="1" stop-color="rgb(95.307922%, 96.80481%, 98.399353%)" offset="0.65625"/><stop stop-opacity="1" stop-color="rgb(95.507812%, 96.903992%, 98.403931%)" offset="0.671875"/><stop stop-opacity="1" stop-color="rgb(95.698547%, 97.103882%, 98.603821%)" offset="0.6875"/><stop stop-opacity="1" stop-color="rgb(95.802307%, 97.299194%, 98.799133%)" offset="0.695312"/><stop stop-opacity="1" stop-color="rgb(96.009827%, 97.299194%, 98.799133%)" offset="0.703125"/><stop stop-opacity="1" stop-color="rgb(96.305847%, 97.30072%, 98.799133%)" offset="0.71875"/><stop stop-opacity="1" stop-color="rgb(96.508789%, 97.451782%, 98.799133%)" offset="0.734375"/><stop stop-opacity="1" stop-color="rgb(96.708679%, 97.599792%, 98.799133%)" offset="0.75"/><stop stop-opacity="1" stop-color="rgb(96.899414%, 97.599792%, 98.799133%)" offset="0.765625"/><stop stop-opacity="1" stop-color="rgb(97.0047%, 97.703552%, 98.904419%)" offset="0.773437"/><stop stop-opacity="1" stop-color="rgb(97.203064%, 97.903442%, 99.102783%)" offset="0.78125"/><stop stop-opacity="1" stop-color="rgb(97.30072%, 98.002625%, 99.198914%)" offset="0.796875"/><stop stop-opacity="1" stop-color="rgb(97.450256%, 98.200989%, 99.198914%)" offset="0.8125"/><stop stop-opacity="1" stop-color="rgb(97.60437%, 98.397827%, 99.198914%)" offset="0.828125"/><stop stop-opacity="1" stop-color="rgb(97.805786%, 98.400879%, 99.200439%)" offset="0.84375"/><stop stop-opacity="1" stop-color="rgb(97.999573%, 98.506165%, 99.305725%)" offset="0.851562"/><stop stop-opacity="1" stop-color="rgb(98.007202%, 98.704529%, 99.504089%)" offset="0.859375"/><stop stop-opacity="1" stop-color="rgb(98.21167%, 98.802185%, 99.598694%)" offset="0.875"/><stop stop-opacity="1" stop-color="rgb(98.602295%, 99.002075%, 99.598694%)" offset="0.890625"/><stop stop-opacity="1" stop-color="rgb(98.805237%, 99.197388%, 99.598694%)" offset="0.90625"/><stop stop-opacity="1" stop-color="rgb(99.005127%, 99.200439%, 99.598694%)" offset="0.921875"/><stop stop-opacity="1" stop-color="rgb(99.198914%, 99.397278%, 99.598694%)" offset="0.9375"/><stop stop-opacity="1" stop-color="rgb(99.299622%, 99.595642%, 99.699402%)" offset="0.945312"/><stop stop-opacity="1" stop-color="rgb(99.499512%, 99.598694%, 99.900818%)" offset="0.953125"/><stop stop-opacity="1" stop-color="rgb(99.598694%, 99.598694%, 100%)" offset="0.96875"/><stop stop-opacity="1" stop-color="rgb(99.699402%, 99.699402%, 100%)" offset="0.984375"/><stop stop-opacity="1" stop-color="rgb(99.899292%, 99.899292%, 100%)" offset="1"/></linearGradient><clipPath id="7edfaec44d"><path d="M 0.015625 72.132812 L 74.984375 72.132812 L 74.984375 74.71875 L 0.015625 74.71875 Z M 0.015625 72.132812 " clip-rule="nonzero"/></clipPath></defs><g clip-path="url(#940dc110c7)"><path fill="#4280ac" d="M 63.613281 73.851562 C 56.589844 73.90625 49.566406 73.964844 42.542969 74.019531 C 42.792969 72.230469 42.972656 70.226562 43.015625 68.046875 C 43.074219 65.070312 42.859375 62.398438 42.542969 60.109375 C 42.09375 60.546875 41.46875 61.140625 40.695312 61.816406 C 39.980469 62.4375 38.539062 63.628906 36.105469 65.3125 C 34.320312 66.550781 31.898438 68.089844 28.851562 69.667969 C 28.414062 69.445312 27.878906 69.082031 27.566406 68.472656 C 26.707031 66.804688 28.121094 64.445312 32.542969 58.871094 C 39.960938 49.519531 42.273438 48.21875 44.214844 47.476562 C 46.429688 46.625 48.40625 46.402344 49.671875 46.339844 C 50.765625 46.429688 51.90625 46.5 53.097656 46.535156 C 54.789062 46.589844 56.390625 46.574219 57.894531 46.515625 C 58.5625 46.566406 59.484375 46.679688 60.566406 46.921875 C 61.527344 47.136719 62.75 47.410156 63.699219 47.945312 C 65.054688 48.710938 65.878906 50.027344 66.617188 51.957031 C 68.289062 56.316406 69.941406 64.84375 67.003906 66.253906 C 66.574219 66.460938 65.792969 66.632812 64.429688 66.039062 C 64.011719 63.878906 63.597656 61.714844 63.183594 59.550781 C 62.808594 62.214844 62.609375 65.457031 62.925781 69.113281 C 63.074219 70.824219 63.320312 72.410156 63.613281 73.851562 " fill-opacity="1" fill-rule="nonzero"/></g><path fill="#2b79a2" d="M 57.339844 50.140625 C 57.339844 50.136719 57.339844 50.132812 57.335938 50.132812 C 57.308594 50.136719 57.65625 53.429688 58.25 56.566406 C 59.5 63.195312 61.070312 65.054688 61.765625 65.785156 C 62.179688 66.214844 62.554688 66.53125 62.796875 66.722656 C 62.785156 65.65625 62.769531 64.589844 62.753906 63.523438 C 59.535156 55.59375 57.390625 50.304688 57.339844 50.140625 " fill-opacity="1" fill-rule="nonzero"/><path fill="#e28c78" d="M 57.90625 46.324219 C 58.027344 46.367188 58.054688 46.359375 59.191406 46.621094 C 59.5 46.691406 59.753906 46.753906 59.921875 46.792969 C 59.125 47.644531 58.226562 48.535156 57.21875 49.4375 C 56.089844 50.449219 54.992188 51.324219 53.957031 52.085938 C 52.832031 51.152344 51.683594 50.171875 50.523438 49.140625 C 49.542969 48.265625 48.597656 47.394531 47.691406 46.535156 C 47.929688 46.496094 48.285156 46.4375 48.722656 46.363281 C 49.355469 46.261719 49.671875 46.207031 49.707031 46.195312 C 50.628906 45.886719 50.972656 44.535156 51.125 43.933594 C 51.355469 43.023438 51.3125 42.183594 51.1875 41.523438 C 52.9375 41.523438 54.6875 41.523438 56.4375 41.523438 C 56.300781 42.144531 56.171875 43.214844 56.574219 44.402344 C 56.800781 45.070312 57.128906 46.03125 57.90625 46.324219 " fill-opacity="1" fill-rule="nonzero"/><path fill="#d6806d" d="M 56.253906 42.371094 C 56.269531 42.269531 56.285156 42.164062 56.308594 42.058594 C 56.332031 41.929688 56.359375 41.808594 56.386719 41.695312 C 56.003906 42.058594 55.585938 42.351562 55.144531 42.550781 C 54.964844 42.632812 54.417969 42.855469 53.753906 42.859375 C 52.382812 42.863281 51.425781 41.898438 51.210938 41.671875 C 51.230469 41.847656 51.246094 42.03125 51.253906 42.226562 C 51.277344 42.78125 51.234375 43.285156 51.167969 43.71875 C 51.746094 43.789062 52.667969 43.828125 53.753906 43.554688 C 54.929688 43.257812 55.773438 42.726562 56.253906 42.371094 " fill-opacity="1" fill-rule="nonzero"/><path fill="#4f2e2c" d="M 59.75 33.21875 C 59.035156 30.960938 56.765625 28.652344 53.785156 28.652344 C 50.695312 28.65625 48.378906 31.132812 47.734375 33.519531 C 46.621094 37.632812 50.1875 42.546875 53.914062 42.480469 C 57.675781 42.414062 61.035156 37.285156 59.75 33.21875 " fill-opacity="1" fill-rule="nonzero"/><path fill="#e89880" d="M 58.828125 35.839844 C 58.828125 39.074219 56.542969 42.886719 53.753906 42.859375 C 51.015625 42.832031 48.859375 39.117188 48.796875 36.011719 C 48.730469 32.742188 50.964844 28.84375 53.753906 28.820312 C 56.519531 28.796875 58.828125 32.589844 58.828125 35.839844 " fill-opacity="1" fill-rule="nonzero"/><path fill="#4f2e2c" d="M 54.6875 35.019531 C 54.65625 35.179688 55.183594 35.414062 55.863281 35.542969 C 56.542969 35.675781 57.121094 35.65625 57.152344 35.496094 C 57.179688 35.339844 56.65625 35.105469 55.976562 34.972656 C 55.296875 34.84375 54.71875 34.863281 54.6875 35.019531 " fill-opacity="1" fill-rule="nonzero"/><path fill="#4f2e2c" d="M 52.851562 35.019531 C 52.878906 35.179688 52.355469 35.414062 51.675781 35.542969 C 50.996094 35.675781 50.417969 35.65625 50.386719 35.496094 C 50.355469 35.339844 50.882812 35.105469 51.5625 34.972656 C 52.242188 34.84375 52.820312 34.863281 52.851562 35.019531 " fill-opacity="1" fill-rule="nonzero"/><path fill="#d6806d" d="M 53.609375 37.140625 C 53.609375 37.140625 53.445312 38.875 53.0625 39.121094 C 52.675781 39.363281 53.429688 39.457031 53.429688 39.457031 L 53.609375 37.140625 " fill-opacity="1" fill-rule="nonzero"/><path fill="#e38b76" d="M 55.152344 37.8125 C 55.152344 37.84375 55.128906 37.871094 55.09375 37.871094 C 55.0625 37.871094 55.035156 37.84375 55.035156 37.8125 C 55.035156 37.78125 55.0625 37.753906 55.09375 37.753906 C 55.128906 37.753906 55.152344 37.78125 55.152344 37.8125 " fill-opacity="1" fill-rule="nonzero"/><path fill="#e38b76" d="M 54.6875 38.390625 C 54.6875 38.425781 54.660156 38.449219 54.628906 38.449219 C 54.597656 38.449219 54.570312 38.425781 54.570312 38.390625 C 54.570312 38.359375 54.597656 38.332031 54.628906 38.332031 C 54.660156 38.332031 54.6875 38.359375 54.6875 38.390625 " fill-opacity="1" fill-rule="nonzero"/><path fill="#e38b76" d="M 53.8125 38.683594 C 53.8125 38.714844 53.785156 38.738281 53.753906 38.738281 C 53.722656 38.738281 53.695312 38.714844 53.695312 38.683594 C 53.695312 38.648438 53.722656 38.625 53.753906 38.625 C 53.785156 38.625 53.8125 38.648438 53.8125 38.683594 " fill-opacity="1" fill-rule="nonzero"/><path fill="#e38b76" d="M 51.363281 38.796875 C 51.363281 38.832031 51.335938 38.855469 51.304688 38.855469 C 51.269531 38.855469 51.246094 38.832031 51.246094 38.796875 C 51.246094 38.765625 51.269531 38.738281 51.304688 38.738281 C 51.335938 38.738281 51.363281 38.765625 51.363281 38.796875 " fill-opacity="1" fill-rule="nonzero"/><path fill="#e38b76" d="M 55.152344 38.796875 C 55.152344 38.832031 55.128906 38.855469 55.09375 38.855469 C 55.0625 38.855469 55.035156 38.832031 55.035156 38.796875 C 55.035156 38.765625 55.0625 38.738281 55.09375 38.738281 C 55.128906 38.738281 55.152344 38.765625 55.152344 38.796875 " fill-opacity="1" fill-rule="nonzero"/><path fill="#e38b76" d="M 55.679688 38.277344 C 55.679688 38.308594 55.652344 38.332031 55.621094 38.332031 C 55.589844 38.332031 55.5625 38.308594 55.5625 38.277344 C 55.5625 38.242188 55.589844 38.21875 55.621094 38.21875 C 55.652344 38.21875 55.679688 38.242188 55.679688 38.277344 " fill-opacity="1" fill-rule="nonzero"/><path fill="#e38b76" d="M 56.085938 38.042969 C 56.085938 38.074219 56.0625 38.101562 56.027344 38.101562 C 55.996094 38.101562 55.96875 38.074219 55.96875 38.042969 C 55.96875 38.011719 55.996094 37.984375 56.027344 37.984375 C 56.0625 37.984375 56.085938 38.011719 56.085938 38.042969 " fill-opacity="1" fill-rule="nonzero"/><path fill="#e38b76" d="M 55.910156 38.738281 C 55.910156 38.773438 55.886719 38.796875 55.855469 38.796875 C 55.820312 38.796875 55.796875 38.773438 55.796875 38.738281 C 55.796875 38.707031 55.820312 38.683594 55.855469 38.683594 C 55.886719 38.683594 55.910156 38.707031 55.910156 38.738281 " fill-opacity="1" fill-rule="nonzero"/><path fill="#e38b76" d="M 56.203125 37.523438 C 56.203125 37.554688 56.175781 37.578125 56.144531 37.578125 C 56.113281 37.578125 56.085938 37.554688 56.085938 37.523438 C 56.085938 37.488281 56.113281 37.464844 56.144531 37.464844 C 56.175781 37.464844 56.203125 37.488281 56.203125 37.523438 " fill-opacity="1" fill-rule="nonzero"/><path fill="#e38b76" d="M 56.84375 38.042969 C 56.84375 38.074219 56.820312 38.101562 56.785156 38.101562 C 56.753906 38.101562 56.726562 38.074219 56.726562 38.042969 C 56.726562 38.011719 56.753906 37.984375 56.785156 37.984375 C 56.820312 37.984375 56.84375 38.011719 56.84375 38.042969 " fill-opacity="1" fill-rule="nonzero"/><path fill="#e38b76" d="M 54.21875 38.101562 C 54.21875 38.132812 54.195312 38.160156 54.160156 38.160156 C 54.128906 38.160156 54.105469 38.132812 54.105469 38.101562 C 54.105469 38.070312 54.128906 38.042969 54.160156 38.042969 C 54.195312 38.042969 54.21875 38.070312 54.21875 38.101562 " fill-opacity="1" fill-rule="nonzero"/><path fill="#e38b76" d="M 54.746094 37.695312 C 54.746094 37.726562 54.71875 37.753906 54.6875 37.753906 C 54.65625 37.753906 54.628906 37.726562 54.628906 37.695312 C 54.628906 37.664062 54.65625 37.636719 54.6875 37.636719 C 54.71875 37.636719 54.746094 37.664062 54.746094 37.695312 " fill-opacity="1" fill-rule="nonzero"/><path fill="#e38b76" d="M 52.761719 37.8125 C 52.761719 37.84375 52.734375 37.871094 52.703125 37.871094 C 52.671875 37.871094 52.644531 37.84375 52.644531 37.8125 C 52.644531 37.78125 52.671875 37.753906 52.703125 37.753906 C 52.734375 37.753906 52.761719 37.78125 52.761719 37.8125 " fill-opacity="1" fill-rule="nonzero"/><path fill="#e38b76" d="M 50.894531 38.277344 C 50.894531 38.308594 50.867188 38.332031 50.835938 38.332031 C 50.804688 38.332031 50.777344 38.308594 50.777344 38.277344 C 50.777344 38.242188 50.804688 38.21875 50.835938 38.21875 C 50.867188 38.21875 50.894531 38.242188 50.894531 38.277344 " fill-opacity="1" fill-rule="nonzero"/><path fill="#e38b76" d="M 52.527344 38.507812 C 52.527344 38.539062 52.503906 38.566406 52.46875 38.566406 C 52.4375 38.566406 52.410156 38.539062 52.410156 38.507812 C 52.410156 38.476562 52.4375 38.449219 52.46875 38.449219 C 52.503906 38.449219 52.527344 38.476562 52.527344 38.507812 " fill-opacity="1" fill-rule="nonzero"/><path fill="#e38b76" d="M 53.230469 38.277344 C 53.230469 38.308594 53.203125 38.332031 53.171875 38.332031 C 53.136719 38.332031 53.113281 38.308594 53.113281 38.277344 C 53.113281 38.242188 53.136719 38.21875 53.171875 38.21875 C 53.203125 38.21875 53.230469 38.242188 53.230469 38.277344 " fill-opacity="1" fill-rule="nonzero"/><path fill="#e38b76" d="M 56.496094 38.449219 C 56.496094 38.480469 56.46875 38.507812 56.4375 38.507812 C 56.40625 38.507812 56.378906 38.480469 56.378906 38.449219 C 56.378906 38.417969 56.40625 38.390625 56.4375 38.390625 C 56.46875 38.390625 56.496094 38.417969 56.496094 38.449219 " fill-opacity="1" fill-rule="nonzero"/><path fill="#e38b76" d="M 56.960938 38.566406 C 56.960938 38.597656 56.9375 38.625 56.902344 38.625 C 56.871094 38.625 56.84375 38.597656 56.84375 38.566406 C 56.84375 38.535156 56.871094 38.507812 56.902344 38.507812 C 56.9375 38.507812 56.960938 38.535156 56.960938 38.566406 " fill-opacity="1" fill-rule="nonzero"/><path fill="#e38b76" d="M 52.296875 37.753906 C 52.296875 37.785156 52.269531 37.8125 52.238281 37.8125 C 52.203125 37.8125 52.179688 37.785156 52.179688 37.753906 C 52.179688 37.722656 52.203125 37.695312 52.238281 37.695312 C 52.269531 37.695312 52.296875 37.722656 52.296875 37.753906 " fill-opacity="1" fill-rule="nonzero"/><path fill="#e38b76" d="M 51.710938 38.21875 C 51.710938 38.25 51.6875 38.277344 51.652344 38.277344 C 51.621094 38.277344 51.59375 38.25 51.59375 38.21875 C 51.59375 38.1875 51.621094 38.160156 51.652344 38.160156 C 51.6875 38.160156 51.710938 38.1875 51.710938 38.21875 " fill-opacity="1" fill-rule="nonzero"/><path fill="#e38b76" d="M 50.3125 38.738281 C 50.3125 38.773438 50.285156 38.796875 50.253906 38.796875 C 50.222656 38.796875 50.195312 38.773438 50.195312 38.738281 C 50.195312 38.707031 50.222656 38.683594 50.253906 38.683594 C 50.285156 38.683594 50.3125 38.707031 50.3125 38.738281 " fill-opacity="1" fill-rule="nonzero"/><path fill="#e38b76" d="M 50.71875 37.753906 C 50.71875 37.785156 50.695312 37.8125 50.660156 37.8125 C 50.628906 37.8125 50.605469 37.785156 50.605469 37.753906 C 50.605469 37.722656 50.628906 37.695312 50.660156 37.695312 C 50.695312 37.695312 50.71875 37.722656 50.71875 37.753906 " fill-opacity="1" fill-rule="nonzero"/><path fill="#e38b76" d="M 51.476562 37.636719 C 51.476562 37.667969 51.453125 37.695312 51.421875 37.695312 C 51.386719 37.695312 51.363281 37.667969 51.363281 37.636719 C 51.363281 37.605469 51.386719 37.578125 51.421875 37.578125 C 51.453125 37.578125 51.476562 37.605469 51.476562 37.636719 " fill-opacity="1" fill-rule="nonzero"/><path fill="#1c130f" d="M 51.726562 36.222656 C 51.125 36.152344 50.695312 36.476562 50.613281 36.542969 C 50.527344 36.613281 50.492188 36.699219 50.515625 36.738281 C 50.539062 36.78125 50.652344 36.789062 50.773438 36.714844 C 50.804688 36.683594 51.386719 36.195312 52.03125 36.414062 C 52.289062 36.503906 52.457031 36.671875 52.542969 36.78125 C 52.609375 36.84375 52.683594 36.859375 52.703125 36.839844 C 52.726562 36.816406 52.710938 36.75 52.65625 36.683594 C 52.570312 36.59375 52.25 36.28125 51.726562 36.222656 " fill-opacity="1" fill-rule="nonzero"/><path fill="#1c130f" d="M 55.890625 36.222656 C 56.496094 36.152344 56.921875 36.476562 57.003906 36.542969 C 57.089844 36.613281 57.128906 36.699219 57.101562 36.738281 C 57.078125 36.78125 56.964844 36.789062 56.84375 36.714844 C 56.8125 36.683594 56.230469 36.195312 55.589844 36.414062 C 55.328125 36.503906 55.160156 36.671875 55.074219 36.78125 C 55.007812 36.84375 54.933594 36.859375 54.914062 36.839844 C 54.890625 36.816406 54.90625 36.75 54.960938 36.683594 C 55.046875 36.59375 55.367188 36.28125 55.890625 36.222656 " fill-opacity="1" fill-rule="nonzero"/><path fill="#d6806d" d="M 51.382812 31.46875 C 51.921875 33.066406 52.699219 33.75 53.3125 34.074219 C 54.652344 34.78125 55.84375 34.140625 57.21875 34.964844 C 58.054688 35.46875 58.511719 36.242188 58.761719 36.804688 C 58.738281 36.492188 58.660156 36.011719 58.421875 35.480469 C 58.296875 35.210938 57.832031 34.273438 56.875 33.734375 C 55.964844 33.21875 55.410156 33.523438 54.34375 33.304688 C 53.570312 33.148438 52.519531 32.71875 51.382812 31.46875 " fill-opacity="1" fill-rule="nonzero"/><path fill="#4f2e2c" d="M 52.882812 28.695312 C 49.75 29.132812 48.324219 31.796875 48.164062 32.109375 C 46.855469 34.667969 47.796875 37.117188 47.949219 37.488281 C 48.292969 37.460938 48.636719 37.429688 48.980469 37.402344 C 49.050781 36.539062 49.261719 35.285156 49.878906 33.902344 C 50.347656 32.855469 50.910156 32.046875 51.382812 31.46875 C 52.425781 32.941406 53.476562 33.511719 54.277344 33.75 C 55.265625 34.046875 55.828125 33.824219 56.660156 34.203125 C 57.828125 34.730469 58.433594 35.941406 58.761719 36.933594 C 59 36.917969 59.234375 36.898438 59.46875 36.882812 C 59.644531 36.398438 59.84375 35.660156 59.839844 34.746094 C 59.835938 34.113281 59.730469 32.148438 58.207031 30.53125 C 56.101562 28.300781 53.113281 28.664062 52.882812 28.695312 " fill-opacity="1" fill-rule="nonzero"/><path fill="#e89880" d="M 59.785156 38.464844 C 59.492188 39.304688 58.878906 39.84375 58.410156 39.664062 C 57.941406 39.484375 57.800781 38.65625 58.09375 37.816406 C 58.386719 36.976562 59.003906 36.4375 59.472656 36.617188 C 59.9375 36.796875 60.078125 37.625 59.785156 38.464844 " fill-opacity="1" fill-rule="nonzero"/><path stroke-linecap="butt" transform="matrix(0.00429132, 0, 0, -0.00426778, 0.0153388, 74.719594)" fill="none" stroke-linejoin="miter" d="M 13778.796196 8727.46928 C 13766.052441 8710.994095 13754.218955 8691.773046 13743.295737 8670.721421 C 13692.320719 8566.378583 13704.154205 8462.035745 13715.077423 8408.949038 " stroke="#d6806d" stroke-width="20" stroke-opacity="1" stroke-miterlimit="10"/><path fill="#e89880" d="M 47.710938 38.464844 C 48.003906 39.304688 48.617188 39.84375 49.085938 39.664062 C 49.550781 39.484375 49.695312 38.65625 49.402344 37.816406 C 49.109375 36.976562 48.492188 36.4375 48.023438 36.617188 C 47.558594 36.796875 47.417969 37.625 47.710938 38.464844 " fill-opacity="1" fill-rule="nonzero"/><path stroke-linecap="butt" transform="matrix(0.00429132, 0, 0, -0.00426778, 0.0153388, 74.719594)" fill="none" stroke-linejoin="miter" d="M 11263.725202 8727.46928 C 11276.468956 8710.994095 11288.302443 8691.773046 11299.225661 8670.721421 C 11350.200679 8566.378583 11338.367193 8462.035745 11327.443974 8408.949038 " stroke="#d6806d" stroke-width="20" stroke-opacity="1" stroke-miterlimit="10"/><path fill="#1c130f" d="M 56.429688 36.660156 C 56.429688 36.894531 56.242188 37.085938 56.003906 37.085938 C 55.769531 37.085938 55.578125 36.894531 55.578125 36.660156 C 55.578125 36.429688 55.769531 36.238281 56.003906 36.238281 C 56.242188 36.238281 56.429688 36.429688 56.429688 36.660156 " fill-opacity="1" fill-rule="nonzero"/><path fill="#1c130f" d="M 52.039062 36.660156 C 52.039062 36.894531 51.851562 37.085938 51.613281 37.085938 C 51.378906 37.085938 51.1875 36.894531 51.1875 36.660156 C 51.1875 36.429688 51.378906 36.238281 51.613281 36.238281 C 51.851562 36.238281 52.039062 36.429688 52.039062 36.660156 " fill-opacity="1" fill-rule="nonzero"/><path fill="#e86363" d="M 55.246094 40.269531 C 54.945312 40.394531 54.425781 40.566406 53.761719 40.574219 C 53.113281 40.582031 52.601562 40.429688 52.296875 40.3125 C 52.355469 40.402344 52.769531 41.019531 53.546875 41.113281 C 54.210938 41.191406 54.875 40.859375 55.246094 40.269531 " fill-opacity="1" fill-rule="nonzero"/><path fill="#e35757" d="M 52.296875 40.3125 C 52.761719 40.292969 53.238281 40.277344 53.726562 40.269531 C 54.246094 40.261719 54.753906 40.261719 55.246094 40.269531 C 54.949219 40.394531 54.433594 40.570312 53.773438 40.578125 C 53.113281 40.589844 52.597656 40.429688 52.296875 40.3125 " fill-opacity="1" fill-rule="nonzero"/><g clip-path="url(#1163c39f15)"><path fill="#4f2e2c" d="M 55.355469 24.328125 C 56.308594 25.183594 56.589844 27.101562 55.992188 29.0625 C 55.324219 29.160156 54.570312 29.230469 53.75 29.242188 C 52.957031 29.25 52.230469 29.199219 51.582031 29.121094 C 51.042969 27.257812 51.3125 25.398438 52.246094 24.46875 C 52.964844 23.753906 53.839844 23.734375 53.839844 23.734375 C 53.839844 23.734375 54.683594 23.71875 55.355469 24.328125 " fill-opacity="1" fill-rule="nonzero"/></g><path fill="#472725" d="M 52.882812 28.695312 C 53.035156 28.675781 54.425781 28.503906 55.960938 29.066406 C 55.972656 29.0625 55.980469 29.0625 55.992188 29.0625 C 56.042969 28.894531 56.085938 28.730469 56.125 28.566406 C 54.574219 27.992188 53.167969 28.164062 53.011719 28.183594 C 52.4375 28.265625 51.917969 28.417969 51.457031 28.621094 C 51.484375 28.761719 51.519531 28.898438 51.558594 29.039062 C 51.960938 28.882812 52.402344 28.761719 52.882812 28.695312 " fill-opacity="1" fill-rule="nonzero"/><g clip-path="url(#5623657dae)"><path fill="#4f2e2c" d="M 51.597656 29.167969 C 51.585938 29.167969 51.570312 29.160156 51.5625 29.152344 C 51.222656 28.738281 50.988281 28.269531 50.867188 27.765625 C 50.828125 27.589844 50.484375 25.996094 51.566406 24.785156 C 52.074219 24.214844 52.699219 23.953125 53.128906 23.832031 C 53.152344 23.828125 53.175781 23.839844 53.183594 23.863281 C 53.191406 23.886719 53.175781 23.910156 53.152344 23.914062 C 52.730469 24.03125 52.125 24.285156 51.628906 24.839844 C 50.578125 26.019531 50.910156 27.574219 50.953125 27.746094 C 51.070312 28.238281 51.296875 28.691406 51.628906 29.097656 C 51.644531 29.113281 51.640625 29.140625 51.625 29.15625 C 51.617188 29.164062 51.605469 29.167969 51.597656 29.167969 " fill-opacity="1" fill-rule="nonzero"/></g><path fill="#4f2e2c" d="M 51.246094 29.25 C 51.226562 29.25 51.210938 29.238281 51.203125 29.21875 C 50.921875 28.101562 51.078125 26.882812 51.628906 25.871094 C 51.835938 25.492188 52.09375 25.144531 52.34375 24.804688 C 52.359375 24.785156 52.386719 24.78125 52.40625 24.796875 C 52.421875 24.8125 52.429688 24.835938 52.414062 24.855469 C 52.164062 25.191406 51.90625 25.539062 51.703125 25.910156 C 51.164062 26.902344 51.011719 28.101562 51.289062 29.195312 C 51.292969 29.21875 51.28125 29.242188 51.257812 29.25 C 51.253906 29.25 51.25 29.25 51.246094 29.25 " fill-opacity="1" fill-rule="nonzero"/><path fill="#472725" d="M 55.871094 28.953125 C 55.871094 28.953125 55.867188 28.953125 55.867188 28.953125 C 55.84375 28.949219 55.828125 28.925781 55.832031 28.902344 C 56.089844 27.289062 55.789062 25.613281 54.984375 24.191406 C 54.972656 24.167969 54.976562 24.144531 55 24.132812 C 55.019531 24.121094 55.046875 24.128906 55.058594 24.148438 C 55.875 25.589844 56.179688 27.285156 55.914062 28.917969 C 55.910156 28.9375 55.894531 28.953125 55.871094 28.953125 " fill-opacity="1" fill-rule="nonzero"/><path fill="#4f2e2c" d="M 55.90625 29.277344 C 55.894531 29.277344 55.886719 29.273438 55.875 29.265625 C 55.859375 29.25 55.859375 29.222656 55.875 29.203125 C 56.386719 28.679688 56.671875 27.960938 56.660156 27.230469 C 56.648438 26.5 56.339844 25.792969 55.8125 25.285156 C 55.796875 25.269531 55.796875 25.242188 55.8125 25.222656 C 55.828125 25.207031 55.855469 25.207031 55.871094 25.222656 C 56.417969 25.746094 56.734375 26.476562 56.746094 27.230469 C 56.757812 27.980469 56.464844 28.722656 55.9375 29.261719 C 55.929688 29.273438 55.917969 29.277344 55.90625 29.277344 " fill-opacity="1" fill-rule="nonzero"/><path fill="#4f2e2c" d="M 58.996094 36.550781 C 58.984375 36.550781 58.972656 36.546875 58.964844 36.535156 L 57.75 35.320312 C 57.539062 35.109375 57.324219 34.890625 57.058594 34.746094 C 56.738281 34.570312 56.375 34.511719 55.96875 34.460938 L 55.800781 34.441406 C 54.613281 34.292969 53.382812 34.140625 52.503906 33.359375 C 51.65625 32.605469 51.355469 31.484375 51.074219 30.207031 C 51.070312 30.183594 51.085938 30.164062 51.109375 30.15625 C 51.132812 30.152344 51.15625 30.167969 51.160156 30.191406 C 51.4375 31.453125 51.734375 32.558594 52.558594 33.292969 C 53.421875 34.0625 54.636719 34.210938 55.8125 34.355469 L 55.980469 34.378906 C 56.378906 34.429688 56.765625 34.488281 57.097656 34.671875 C 57.375 34.820312 57.597656 35.042969 57.8125 35.257812 L 59.027344 36.476562 C 59.042969 36.492188 59.042969 36.519531 59.027344 36.539062 C 59.019531 36.546875 59.007812 36.550781 58.996094 36.550781 " fill-opacity="1" fill-rule="nonzero"/><path fill="#4f2e2c" d="M 48.761719 36.707031 C 48.757812 36.707031 48.753906 36.707031 48.753906 36.707031 C 48.730469 36.703125 48.714844 36.679688 48.71875 36.65625 C 48.996094 35.316406 49.59375 34.042969 50.445312 32.972656 C 50.730469 32.617188 51.042969 32.28125 51.347656 31.953125 C 51.789062 31.480469 52.246094 30.988281 52.605469 30.445312 C 52.621094 30.425781 52.648438 30.417969 52.667969 30.433594 C 52.6875 30.445312 52.691406 30.472656 52.679688 30.492188 C 52.3125 31.042969 51.855469 31.535156 51.410156 32.011719 C 51.109375 32.335938 50.792969 32.671875 50.511719 33.027344 C 49.667969 34.085938 49.078125 35.347656 48.804688 36.675781 C 48.800781 36.695312 48.78125 36.707031 48.761719 36.707031 " fill-opacity="1" fill-rule="nonzero"/><path fill="#f8ac26" d="M 52.0625 28.6875 C 52.140625 28.804688 52.105469 28.964844 51.984375 29.042969 C 51.867188 29.117188 51.707031 29.082031 51.628906 28.964844 C 51.550781 28.84375 51.585938 28.6875 51.707031 28.609375 C 51.828125 28.535156 51.984375 28.566406 52.0625 28.6875 " fill-opacity="1" fill-rule="nonzero"/><path fill="#f8ac26" d="M 52.339844 28.5625 L 52.058594 28.742188 C 52.039062 28.753906 52.011719 28.746094 52 28.726562 C 51.988281 28.707031 51.992188 28.679688 52.011719 28.667969 L 52.292969 28.488281 C 52.3125 28.476562 52.339844 28.484375 52.351562 28.503906 C 52.363281 28.523438 52.359375 28.550781 52.339844 28.5625 " fill-opacity="1" fill-rule="nonzero"/><path fill="#f8ac26" d="M 52.53125 27.570312 C 52.449219 27.683594 52.285156 27.707031 52.171875 27.621094 C 52.058594 27.535156 52.035156 27.375 52.121094 27.261719 C 52.207031 27.148438 52.367188 27.125 52.480469 27.210938 C 52.59375 27.296875 52.617188 27.457031 52.53125 27.570312 " fill-opacity="1" fill-rule="nonzero"/><path fill="#f8ac26" d="M 52.746094 27.78125 L 52.480469 27.585938 C 52.464844 27.570312 52.460938 27.542969 52.472656 27.523438 C 52.488281 27.507812 52.515625 27.503906 52.535156 27.515625 L 52.800781 27.714844 C 52.816406 27.726562 52.820312 27.753906 52.808594 27.773438 C 52.792969 27.792969 52.765625 27.796875 52.746094 27.78125 " fill-opacity="1" fill-rule="nonzero"/><path fill="#f8ac26" d="M 54.105469 26.90625 C 54.035156 27.027344 53.878906 27.070312 53.753906 27 C 53.632812 26.933594 53.585938 26.777344 53.65625 26.652344 C 53.726562 26.53125 53.886719 26.488281 54.007812 26.554688 C 54.132812 26.625 54.175781 26.78125 54.105469 26.90625 " fill-opacity="1" fill-rule="nonzero"/><path fill="#f8ac26" d="M 54.863281 27.835938 C 54.9375 27.71875 55.097656 27.679688 55.21875 27.757812 C 55.339844 27.832031 55.375 27.992188 55.296875 28.109375 C 55.222656 28.230469 55.0625 28.265625 54.945312 28.191406 C 54.824219 28.113281 54.789062 27.957031 54.863281 27.835938 " fill-opacity="1" fill-rule="nonzero"/><path fill="#f8ac26" d="M 54.820312 27.753906 C 54.855469 27.777344 54.894531 27.804688 54.929688 27.828125 C 54.941406 27.835938 54.9375 27.855469 54.925781 27.875 C 54.914062 27.894531 54.894531 27.90625 54.886719 27.902344 C 54.847656 27.878906 54.8125 27.859375 54.777344 27.839844 C 54.746094 27.824219 54.738281 27.789062 54.75 27.765625 C 54.765625 27.746094 54.792969 27.738281 54.820312 27.753906 " fill-opacity="1" fill-rule="nonzero"/><path fill="#ea9d88" d="M 39.527344 64.804688 C 43.449219 65.6875 44.210938 65.894531 44.84375 65.996094 C 45.214844 66.054688 45.796875 66.140625 46.527344 66.210938 C 46.269531 66.925781 46.011719 67.636719 45.757812 68.351562 C 45.4375 68.421875 44.933594 68.535156 44.3125 68.675781 C 35.71875 70.585938 33.410156 70.773438 30.953125 70.242188 C 29.542969 69.941406 27.957031 69.578125 27.582031 68.484375 C 27.109375 67.085938 28.757812 64.917969 30.722656 64.011719 C 32.726562 63.089844 34.992188 63.660156 39.527344 64.804688 " fill-opacity="1" fill-rule="nonzero"/><path fill="#ea9d88" d="M 50.886719 66.75 C 51.449219 67.050781 51.824219 67.445312 52.046875 67.722656 C 52.296875 68.070312 52.492188 68.363281 52.628906 68.578125 C 53.253906 69.550781 53.324219 69.867188 53.214844 70.097656 C 53.203125 70.117188 53.183594 70.175781 53.128906 70.207031 C 53.015625 70.265625 52.859375 70.167969 52.800781 70.128906 C 52.386719 69.871094 51.980469 69.007812 51.484375 68.441406 C 51.34375 68.285156 51.125 68.066406 50.792969 67.851562 C 51.042969 68.230469 51.246094 68.554688 51.398438 68.800781 C 51.589844 69.105469 51.644531 69.207031 51.667969 69.363281 C 51.722656 69.753906 51.535156 70.25 51.238281 70.300781 C 51.128906 70.320312 51.023438 70.277344 50.941406 70.222656 C 50.914062 70.390625 50.800781 70.535156 50.640625 70.59375 C 50.40625 70.6875 50.203125 70.546875 50.191406 70.535156 C 50.109375 70.652344 49.980469 70.800781 49.808594 70.8125 C 49.585938 70.828125 49.445312 70.597656 49.082031 70.25 C 48.832031 70.011719 48.585938 69.820312 48.449219 69.726562 C 47.796875 69.285156 47.359375 69.542969 46.6875 69.21875 C 46.433594 69.097656 46.078125 68.859375 45.742188 68.339844 C 46.003906 67.625 46.265625 66.910156 46.527344 66.195312 C 47.265625 66.226562 47.886719 66.265625 48.339844 66.300781 C 50.179688 66.441406 50.542969 66.570312 50.886719 66.75 " fill-opacity="1" fill-rule="nonzero"/><path fill="#d18272" d="M 50.976562 70.21875 C 50.917969 70.054688 50.867188 69.890625 50.824219 69.722656 C 50.800781 69.636719 50.78125 69.558594 50.734375 69.496094 C 50.6875 69.433594 50.621094 69.371094 50.5625 69.308594 C 50.441406 69.183594 50.320312 69.066406 50.191406 68.949219 C 50.066406 68.832031 49.933594 68.71875 49.804688 68.601562 C 49.957031 68.6875 50.097656 68.789062 50.234375 68.898438 C 50.371094 69.007812 50.5 69.125 50.625 69.25 C 50.652344 69.28125 50.683594 69.3125 50.714844 69.34375 C 50.742188 69.375 50.773438 69.410156 50.800781 69.449219 C 50.855469 69.53125 50.871094 69.625 50.886719 69.707031 C 50.921875 69.875 50.953125 70.046875 50.976562 70.21875 " fill-opacity="1" fill-rule="nonzero"/><path fill="#d18272" d="M 50.199219 70.460938 C 50.15625 70.332031 50.105469 70.207031 50.042969 70.09375 C 49.976562 69.976562 49.90625 69.867188 49.820312 69.769531 C 49.734375 69.667969 49.636719 69.582031 49.539062 69.488281 C 49.441406 69.394531 49.34375 69.292969 49.277344 69.175781 C 49.375 69.273438 49.476562 69.351562 49.582031 69.4375 C 49.6875 69.519531 49.792969 69.609375 49.882812 69.714844 C 49.972656 69.820312 50.046875 69.9375 50.101562 70.0625 C 50.15625 70.191406 50.191406 70.324219 50.199219 70.460938 " fill-opacity="1" fill-rule="nonzero"/><path fill="#f2ab9b" d="M 53.0625 69.304688 C 53.039062 69.300781 52.8125 69.289062 52.753906 69.410156 C 52.726562 69.464844 52.742188 69.527344 52.800781 69.652344 C 52.875 69.808594 53.078125 70.253906 53.199219 70.21875 C 53.210938 70.214844 53.242188 70.199219 53.265625 70.097656 C 53.34375 69.777344 53.148438 69.4375 53.0625 69.304688 " fill-opacity="1" fill-rule="nonzero"/><path fill="#4280ac" d="M 60.710938 37.84375 C 60.636719 38.925781 60.128906 39.769531 59.578125 39.730469 C 59.027344 39.691406 58.644531 38.785156 58.71875 37.707031 C 58.796875 36.625 59.300781 35.78125 59.851562 35.820312 C 60.402344 35.859375 60.785156 36.765625 60.710938 37.84375 " fill-opacity="1" fill-rule="nonzero"/><path fill="#4280ac" d="M 47.75 35.917969 C 47.734375 35.738281 47.441406 31.480469 50.207031 29.765625 C 51.40625 29.023438 52.84375 28.976562 53.613281 28.953125 C 54.421875 28.925781 55.925781 28.878906 57.195312 29.59375 C 58.109375 30.109375 58.832031 30.992188 59.292969 32.148438 C 59.730469 33.25 59.90625 34.546875 59.808594 35.90625 L 59.253906 35.867188 C 59.449219 33.257812 58.53125 30.984375 56.921875 30.074219 C 55.789062 29.433594 54.386719 29.480469 53.632812 29.503906 C 52.859375 29.527344 51.570312 29.570312 50.5 30.234375 C 48.015625 31.773438 48.289062 35.707031 48.300781 35.875 L 47.75 35.917969 " fill-opacity="1" fill-rule="nonzero"/><path fill="#16223b" d="M 59.117188 40.050781 L 58.589844 40.011719 C 58.425781 40.003906 58.304688 39.863281 58.316406 39.699219 L 58.597656 35.675781 C 58.609375 35.515625 58.75 35.390625 58.914062 35.402344 L 59.441406 35.441406 C 59.601562 35.453125 59.726562 35.589844 59.714844 35.753906 L 59.433594 39.777344 C 59.421875 39.9375 59.28125 40.0625 59.117188 40.050781 " fill-opacity="1" fill-rule="nonzero"/><path fill="#4280ac" d="M 46.757812 37.847656 C 46.832031 38.925781 47.339844 39.769531 47.886719 39.730469 C 48.433594 39.691406 48.816406 38.789062 48.742188 37.707031 C 48.667969 36.628906 48.160156 35.785156 47.613281 35.824219 C 47.066406 35.863281 46.683594 36.765625 46.757812 37.847656 " fill-opacity="1" fill-rule="nonzero"/><path fill="#4280ac" d="M 53.84375 41.792969 C 53.289062 41.792969 52.8125 41.960938 52.613281 42.203125 C 52.253906 42.203125 51.746094 42.195312 51.023438 42.179688 C 50.175781 42.160156 49.539062 41.71875 49.128906 40.867188 C 48.804688 40.199219 48.746094 39.519531 48.746094 39.511719 L 48.195312 39.554688 C 48.195312 39.585938 48.257812 40.332031 48.621094 41.09375 C 49.121094 42.136719 49.949219 42.703125 51.011719 42.730469 C 51.695312 42.746094 52.242188 42.753906 52.660156 42.753906 C 52.878906 42.96875 53.328125 43.117188 53.84375 43.117188 C 54.578125 43.117188 55.175781 42.820312 55.175781 42.453125 C 55.175781 42.089844 54.578125 41.792969 53.84375 41.792969 " fill-opacity="1" fill-rule="nonzero"/><path fill="#16223b" d="M 48.34375 40.050781 L 48.871094 40.011719 C 49.035156 40.003906 49.15625 39.863281 49.144531 39.699219 L 48.863281 35.679688 C 48.851562 35.519531 48.710938 35.398438 48.550781 35.40625 L 48.019531 35.445312 C 47.859375 35.457031 47.738281 35.597656 47.746094 35.757812 L 48.03125 39.777344 C 48.042969 39.9375 48.183594 40.0625 48.34375 40.050781 " fill-opacity="1" fill-rule="nonzero"/><path fill="#ea9d88" d="M 62.152344 52.894531 C 61.363281 51.679688 60.257812 49.894531 59.035156 47.636719 C 58.363281 47.867188 57.6875 48.09375 57.015625 48.324219 C 57.082031 48.714844 57.175781 49.273438 57.304688 49.945312 C 57.683594 51.96875 58.359375 55.457031 59.835938 59.46875 C 61.738281 64.625 63.050781 65.429688 63.699219 65.742188 C 63.929688 65.851562 65.644531 66.644531 66.617188 65.910156 C 67.828125 65 67.125 62.300781 66.832031 61.175781 C 66.039062 58.132812 64.605469 56.671875 62.152344 52.894531 " fill-opacity="1" fill-rule="nonzero"/><path fill="#e89880" d="M 55.773438 45.859375 C 55.773438 45.859375 55.15625 43.644531 55.460938 43.394531 C 55.765625 43.144531 56.527344 45.246094 56.527344 45.246094 L 55.773438 45.859375 " fill-opacity="1" fill-rule="nonzero"/><path fill="#ea9d88" d="M 59.058594 47.921875 C 59.058594 47.921875 59.367188 45.21875 59.332031 44.875 C 59.292969 44.53125 59.207031 44.101562 58.972656 43.988281 C 58.742188 43.871094 55.402344 40.898438 55.214844 40.96875 C 55.023438 41.039062 55.042969 41.78125 55.507812 42.089844 C 55.507812 42.089844 54.53125 41.414062 54.386719 41.617188 C 54.246094 41.824219 54.113281 42.449219 55.523438 42.855469 L 54.382812 42.859375 C 54.382812 42.859375 54.328125 43.515625 55.417969 43.457031 L 56.8125 43.730469 L 56.988281 43.949219 L 55.035156 44.867188 C 55.035156 44.867188 55.402344 45.515625 56.085938 45.097656 L 56.414062 44.925781 C 56.414062 44.925781 56.972656 44.875 57.15625 44.855469 C 56.949219 44.988281 56.738281 45.117188 56.53125 45.25 C 56.28125 45.449219 56.035156 45.648438 55.785156 45.847656 C 55.769531 46.160156 55.773438 46.777344 56.113281 47.417969 C 56.25 47.675781 56.460938 48.074219 56.867188 48.296875 C 57.480469 48.628906 58.335938 48.453125 59.058594 47.921875 " fill-opacity="1" fill-rule="nonzero"/><path fill="#d18272" d="M 58.53125 44.414062 C 58.410156 44.394531 58.296875 44.367188 58.179688 44.332031 C 58.066406 44.300781 57.949219 44.265625 57.835938 44.226562 C 57.722656 44.1875 57.613281 44.148438 57.5 44.105469 C 57.390625 44.0625 57.28125 44.015625 57.171875 43.960938 C 57.292969 43.980469 57.40625 44.011719 57.523438 44.042969 C 57.636719 44.074219 57.75 44.109375 57.863281 44.148438 C 57.976562 44.1875 58.089844 44.226562 58.203125 44.269531 C 58.3125 44.3125 58.421875 44.359375 58.53125 44.414062 " fill-opacity="1" fill-rule="nonzero"/><path fill="#d18272" d="M 58.652344 44.027344 C 58.527344 43.949219 58.40625 43.867188 58.28125 43.785156 C 58.15625 43.703125 58.035156 43.617188 57.914062 43.535156 C 57.792969 43.449219 57.671875 43.367188 57.550781 43.277344 C 57.429688 43.195312 57.3125 43.105469 57.191406 43.019531 L 57.214844 43.027344 C 56.996094 43.015625 56.773438 43.003906 56.554688 42.984375 C 56.445312 42.976562 56.332031 42.96875 56.222656 42.960938 C 56.113281 42.949219 56.003906 42.9375 55.894531 42.925781 C 56.003906 42.921875 56.113281 42.921875 56.226562 42.921875 C 56.335938 42.921875 56.445312 42.925781 56.554688 42.925781 C 56.777344 42.929688 56.996094 42.933594 57.21875 42.945312 L 57.230469 42.945312 L 57.242188 42.953125 C 57.363281 43.039062 57.480469 43.125 57.601562 43.210938 C 57.71875 43.296875 57.839844 43.386719 57.957031 43.476562 C 58.074219 43.566406 58.191406 43.65625 58.308594 43.746094 C 58.425781 43.839844 58.539062 43.929688 58.652344 44.027344 " fill-opacity="1" fill-rule="nonzero"/><path fill="#d18272" d="M 55.507812 42.089844 C 55.625 42.113281 55.742188 42.140625 55.855469 42.171875 C 55.972656 42.207031 56.085938 42.242188 56.199219 42.277344 C 56.3125 42.316406 56.425781 42.359375 56.535156 42.402344 C 56.648438 42.445312 56.757812 42.492188 56.863281 42.546875 C 56.746094 42.527344 56.628906 42.496094 56.515625 42.464844 C 56.398438 42.433594 56.285156 42.398438 56.171875 42.359375 C 56.058594 42.320312 55.945312 42.28125 55.835938 42.238281 C 55.726562 42.191406 55.613281 42.144531 55.507812 42.089844 " fill-opacity="1" fill-rule="nonzero"/><path fill="#f2ab9b" d="M 55.878906 41.417969 C 55.878906 41.417969 55.347656 40.949219 55.214844 40.96875 C 55.078125 40.992188 55.589844 41.460938 55.773438 41.523438 L 55.878906 41.417969 " fill-opacity="1" fill-rule="nonzero"/><path fill="#f2ab9b" d="M 55.328125 41.972656 C 55.328125 41.972656 54.710938 41.558594 54.441406 41.585938 C 54.175781 41.609375 54.929688 41.984375 55.242188 42.054688 L 55.328125 41.972656 " fill-opacity="1" fill-rule="nonzero"/><path fill="#f2ab9b" d="M 55.050781 42.855469 L 54.382812 42.859375 C 54.382812 42.859375 54.480469 43.046875 55.042969 42.96875 L 55.050781 42.855469 " fill-opacity="1" fill-rule="nonzero"/><path fill="#f2ab9b" d="M 55.714844 44.546875 L 55.011719 44.863281 C 55.007812 44.875 55.007812 44.886719 55.015625 44.898438 C 55.058594 44.96875 55.3125 44.925781 55.488281 44.832031 C 55.550781 44.800781 55.644531 44.738281 55.734375 44.632812 L 55.714844 44.546875 " fill-opacity="1" fill-rule="nonzero"/><path fill="#d18272" d="M 57.785156 45.257812 C 57.65625 45.398438 57.527344 45.539062 57.40625 45.6875 C 57.285156 45.835938 57.171875 45.984375 57.0625 46.140625 C 56.957031 46.296875 56.855469 46.457031 56.761719 46.625 C 56.664062 46.789062 56.578125 46.957031 56.492188 47.128906 C 56.542969 46.945312 56.617188 46.765625 56.699219 46.59375 C 56.742188 46.503906 56.789062 46.421875 56.839844 46.335938 C 56.886719 46.253906 56.941406 46.175781 56.992188 46.09375 C 57.050781 46.015625 57.105469 45.9375 57.167969 45.863281 C 57.226562 45.785156 57.289062 45.714844 57.355469 45.644531 C 57.488281 45.503906 57.632812 45.371094 57.785156 45.257812 " fill-opacity="1" fill-rule="nonzero"/><path fill="#e0e9f5" d="M 63.328125 70.996094 L 43.765625 70.996094 C 43.546875 70.996094 43.367188 71.175781 43.367188 71.394531 L 43.367188 72.125 L 63.726562 72.125 L 63.726562 71.394531 C 63.726562 71.175781 63.550781 70.996094 63.328125 70.996094 " fill-opacity="1" fill-rule="nonzero"/><path fill="#ffffff" d="M 44.78125 71 L 44.78125 70.894531 C 44.78125 70.769531 44.675781 70.664062 44.546875 70.664062 L 44.152344 70.664062 C 44.023438 70.664062 43.917969 70.769531 43.917969 70.894531 L 43.917969 71 L 44.78125 71 " fill-opacity="1" fill-rule="nonzero"/><path fill="#ffffff" d="M 46.285156 71 L 46.285156 70.894531 C 46.285156 70.769531 46.179688 70.664062 46.054688 70.664062 L 45.65625 70.664062 C 45.527344 70.664062 45.425781 70.769531 45.425781 70.894531 L 45.425781 71 L 46.285156 71 " fill-opacity="1" fill-rule="nonzero"/><path fill="#ffffff" d="M 47.265625 71 L 47.265625 70.894531 C 47.265625 70.769531 47.164062 70.664062 47.035156 70.664062 L 46.640625 70.664062 C 46.511719 70.664062 46.40625 70.769531 46.40625 70.894531 L 46.40625 71 L 47.265625 71 " fill-opacity="1" fill-rule="nonzero"/><path fill="#ffffff" d="M 48.25 71 L 48.25 70.894531 C 48.25 70.769531 48.144531 70.664062 48.019531 70.664062 L 47.621094 70.664062 C 47.492188 70.664062 47.390625 70.769531 47.390625 70.894531 L 47.390625 71 L 48.25 71 " fill-opacity="1" fill-rule="nonzero"/><path fill="#ffffff" d="M 49.230469 71 L 49.230469 70.894531 C 49.230469 70.769531 49.128906 70.664062 49 70.664062 L 48.605469 70.664062 C 48.476562 70.664062 48.371094 70.769531 48.371094 70.894531 L 48.371094 71 L 49.230469 71 " fill-opacity="1" fill-rule="nonzero"/><path fill="#ffffff" d="M 50.554688 71 L 50.554688 70.894531 C 50.554688 70.769531 50.449219 70.664062 50.320312 70.664062 L 49.925781 70.664062 C 49.796875 70.664062 49.695312 70.769531 49.695312 70.894531 L 49.695312 71 L 50.554688 71 " fill-opacity="1" fill-rule="nonzero"/><path fill="#ffffff" d="M 51.535156 71 L 51.535156 70.894531 C 51.535156 70.769531 51.433594 70.664062 51.304688 70.664062 L 50.90625 70.664062 C 50.78125 70.664062 50.675781 70.769531 50.675781 70.894531 L 50.675781 71 L 51.535156 71 " fill-opacity="1" fill-rule="nonzero"/><path fill="#ffffff" d="M 52.519531 71 L 52.519531 70.894531 C 52.519531 70.769531 52.414062 70.664062 52.289062 70.664062 L 51.890625 70.664062 C 51.761719 70.664062 51.660156 70.769531 51.660156 70.894531 L 51.660156 71 L 52.519531 71 " fill-opacity="1" fill-rule="nonzero"/><path fill="#ffffff" d="M 53.5 71 L 53.5 70.894531 C 53.5 70.769531 53.398438 70.664062 53.269531 70.664062 L 52.875 70.664062 C 52.746094 70.664062 52.640625 70.769531 52.640625 70.894531 L 52.640625 71 L 53.5 71 " fill-opacity="1" fill-rule="nonzero"/><path fill="#ffffff" d="M 54.824219 71 L 54.824219 70.894531 C 54.824219 70.769531 54.71875 70.664062 54.589844 70.664062 L 54.195312 70.664062 C 54.066406 70.664062 53.960938 70.769531 53.960938 70.894531 L 53.960938 71 L 54.824219 71 " fill-opacity="1" fill-rule="nonzero"/><path fill="#ffffff" d="M 55.804688 71 L 55.804688 70.894531 C 55.804688 70.769531 55.703125 70.664062 55.574219 70.664062 L 55.175781 70.664062 C 55.046875 70.664062 54.945312 70.769531 54.945312 70.894531 L 54.945312 71 L 55.804688 71 " fill-opacity="1" fill-rule="nonzero"/><path fill="#ffffff" d="M 56.789062 71 L 56.789062 70.894531 C 56.789062 70.769531 56.683594 70.664062 56.554688 70.664062 L 56.160156 70.664062 C 56.03125 70.664062 55.929688 70.769531 55.929688 70.894531 L 55.929688 71 L 56.789062 71 " fill-opacity="1" fill-rule="nonzero"/><path fill="#ffffff" d="M 57.769531 71 L 57.769531 70.894531 C 57.769531 70.769531 57.667969 70.664062 57.539062 70.664062 L 57.140625 70.664062 C 57.015625 70.664062 56.910156 70.769531 56.910156 70.894531 L 56.910156 71 L 57.769531 71 " fill-opacity="1" fill-rule="nonzero"/><path fill="#ffffff" d="M 59.089844 71 L 59.089844 70.894531 C 59.089844 70.769531 58.988281 70.664062 58.859375 70.664062 L 58.460938 70.664062 C 58.335938 70.664062 58.230469 70.769531 58.230469 70.894531 L 58.230469 71 L 59.089844 71 " fill-opacity="1" fill-rule="nonzero"/><path fill="#ffffff" d="M 60.074219 71 L 60.074219 70.894531 C 60.074219 70.769531 59.96875 70.664062 59.84375 70.664062 L 59.445312 70.664062 C 59.316406 70.664062 59.214844 70.769531 59.214844 70.894531 L 59.214844 71 L 60.074219 71 " fill-opacity="1" fill-rule="nonzero"/><path fill="#ffffff" d="M 61.058594 71 L 61.058594 70.894531 C 61.058594 70.769531 60.953125 70.664062 60.824219 70.664062 L 60.429688 70.664062 C 60.300781 70.664062 60.195312 70.769531 60.195312 70.894531 L 60.195312 71 L 61.058594 71 " fill-opacity="1" fill-rule="nonzero"/><path fill="#e0e9f5" d="M 34.195312 70.457031 L 26.429688 70.457031 C 25.503906 70.457031 24.75 71.203125 24.75 72.125 L 35.878906 72.125 C 35.878906 71.203125 35.125 70.457031 34.195312 70.457031 " fill-opacity="1" fill-rule="nonzero"/><g clip-path="url(#39d9814ceb)"><g clip-path="url(#6ec63167c9)"><g clip-path="url(#02a69b0dee)"><g clip-path="url(#8cedf20821)"><path fill="url(#e7a3b55b7c)" d="M 3.441406 52.773438 L 24.007812 80.769531 L 54.136719 58.875 L 33.566406 30.882812 Z M 3.441406 52.773438 " fill-rule="nonzero"/></g></g></g></g><path fill="#e0e9f5" d="M 33.894531 59.792969 C 24.59375 57.488281 17.664062 51.757812 16.300781 45.878906 L 13.917969 45.886719 C 13.390625 45.890625 12.996094 46.367188 13.09375 46.878906 C 14.222656 52.945312 15.351562 59.011719 16.484375 65.074219 C 16.558594 65.472656 16.90625 65.757812 17.308594 65.761719 L 42.476562 65.867188 C 42.921875 65.867188 43.292969 65.523438 43.320312 65.082031 C 43.410156 63.632812 43.503906 62.183594 43.59375 60.734375 C 40.5625 60.917969 37.257812 60.625 33.894531 59.792969 " fill-opacity="1" fill-rule="nonzero"/><path fill="#ffffff" d="M 30.746094 55.65625 L 27.207031 55.65625 C 26.859375 55.65625 26.566406 55.914062 26.527344 56.257812 L 24.742188 72.125 L 33.210938 72.125 C 32.613281 66.835938 32.019531 61.546875 31.425781 56.257812 C 31.386719 55.914062 31.09375 55.65625 30.746094 55.65625 " fill-opacity="1" fill-rule="nonzero"/><path fill="#d1e0f0" d="M 26.527344 56.257812 C 26.566406 55.914062 26.859375 55.65625 27.207031 55.65625 L 26.308594 55.65625 C 25.960938 55.65625 25.667969 55.914062 25.628906 56.257812 L 24.558594 65.792969 L 25.453125 65.796875 L 26.527344 56.257812 " fill-opacity="1" fill-rule="nonzero"/><path fill="#d1e0f0" d="M 30.457031 63.234375 C 30.457031 64.046875 29.792969 64.707031 28.976562 64.707031 C 28.15625 64.707031 27.496094 64.046875 27.496094 63.234375 C 27.496094 62.417969 28.15625 61.757812 28.976562 61.757812 C 29.792969 61.757812 30.457031 62.417969 30.457031 63.234375 " fill-opacity="1" fill-rule="nonzero"/><path fill="#d1e0f0" d="M 29.320312 50.023438 C 28.875 49.625 28.910156 49.074219 28.914062 49.011719 C 28.15625 49.039062 27.550781 49.660156 27.550781 50.421875 C 27.550781 51.203125 28.1875 51.832031 28.96875 51.832031 C 29.753906 51.832031 30.390625 51.203125 30.390625 50.421875 C 30.390625 50.382812 30.386719 50.347656 30.382812 50.308594 C 30.324219 50.324219 29.769531 50.421875 29.320312 50.023438 " fill-opacity="1" fill-rule="nonzero"/><path fill="#44773d" d="M 13.488281 59.589844 C 14.5625 58.6875 15.207031 57.367188 15.570312 56.015625 C 15.675781 55.617188 15.757812 55.214844 15.761719 54.804688 C 15.765625 54.398438 15.6875 53.980469 15.484375 53.625 C 15.371094 53.425781 15.207031 53.242188 14.988281 53.175781 C 14.78125 53.113281 14.558594 53.164062 14.359375 53.242188 C 13.863281 53.4375 13.449219 53.808594 13.136719 54.238281 C 12.824219 54.667969 12.605469 55.160156 12.417969 55.65625 C 12.128906 56.4375 11.910156 57.25 11.773438 58.070312 C 11.707031 58.460938 11.675781 58.839844 11.734375 59.230469 C 11.769531 59.480469 11.785156 59.84375 11.933594 60.058594 C 12.269531 60.539062 13.195312 59.832031 13.488281 59.589844 " fill-opacity="1" fill-rule="nonzero"/><path fill="#44773d" d="M 8.054688 54.988281 C 8.0625 54.207031 8.074219 52.792969 8.894531 52.394531 C 9.203125 52.246094 9.507812 52.300781 9.554688 52.308594 C 10.402344 52.46875 10.792969 53.679688 11.144531 54.769531 C 11.433594 55.664062 11.65625 56.351562 11.585938 57.328125 C 11.496094 58.566406 10.992188 59.46875 10.703125 59.90625 C 10.617188 59.90625 10.527344 59.90625 10.4375 59.90625 C 10.125 59.699219 9.667969 59.351562 9.246094 58.808594 C 8.671875 58.070312 8.457031 57.359375 8.320312 56.878906 C 8.0625 55.988281 8.050781 55.261719 8.054688 54.988281 " fill-opacity="1" fill-rule="nonzero"/><path fill="#44773d" d="M 7.105469 57.4375 C 6.785156 57.113281 6.378906 56.878906 5.964844 56.683594 C 5.101562 56.28125 4.164062 56.03125 3.214844 55.976562 C 3.015625 55.964844 2.796875 55.96875 2.632812 56.085938 C 2.515625 56.171875 2.441406 56.304688 2.40625 56.445312 C 2.320312 56.789062 2.464844 57.117188 2.585938 57.335938 C 3.367188 58.757812 4.960938 59.554688 4.960938 59.554688 C 5.335938 59.742188 5.613281 59.878906 6.03125 59.941406 C 6.792969 60.054688 7.421875 59.832031 7.746094 59.6875 C 7.789062 59.628906 7.832031 59.570312 7.875 59.511719 C 7.871094 59.410156 7.859375 59.265625 7.835938 59.097656 C 7.800781 58.851562 7.765625 58.554688 7.648438 58.261719 C 7.523438 57.953125 7.339844 57.671875 7.105469 57.4375 " fill-opacity="1" fill-rule="nonzero"/><path fill="#336b38" d="M 10.210938 64.9375 C 10.214844 64.9375 10.222656 64.9375 10.230469 64.9375 C 10.289062 64.925781 10.328125 64.867188 10.320312 64.808594 C 10.0625 63.421875 9.628906 62.179688 9.027344 61.113281 C 8.347656 59.910156 7.433594 58.910156 6.386719 58.21875 C 5.953125 57.929688 5.488281 57.691406 5.035156 57.457031 C 4.621094 57.242188 4.195312 57.023438 3.796875 56.769531 C 3.746094 56.734375 3.679688 56.75 3.644531 56.800781 C 3.613281 56.851562 3.628906 56.921875 3.679688 56.953125 C 4.082031 57.214844 4.515625 57.4375 4.933594 57.652344 C 5.378906 57.882812 5.839844 58.121094 6.261719 58.402344 C 7.28125 59.074219 8.171875 60.046875 8.832031 61.21875 C 9.425781 62.265625 9.851562 63.488281 10.101562 64.847656 C 10.109375 64.902344 10.15625 64.9375 10.210938 64.9375 " fill-opacity="1" fill-rule="nonzero"/><path fill="#44773d" d="M 16.105469 59.027344 C 16.382812 58.75 16.730469 58.546875 17.085938 58.378906 C 17.828125 58.035156 18.636719 57.820312 19.453125 57.773438 C 19.628906 57.761719 19.816406 57.765625 19.957031 57.867188 C 20.054688 57.9375 20.121094 58.054688 20.148438 58.171875 C 20.226562 58.46875 20.101562 58.753906 19.996094 58.941406 C 19.324219 60.167969 17.949219 60.855469 17.949219 60.855469 C 17.628906 61.015625 17.390625 61.132812 17.03125 61.1875 C 16.375 61.285156 15.832031 61.089844 15.554688 60.96875 C 15.515625 60.917969 15.480469 60.867188 15.441406 60.816406 C 15.445312 60.726562 15.457031 60.605469 15.476562 60.460938 C 15.507812 60.246094 15.535156 59.988281 15.640625 59.738281 C 15.746094 59.476562 15.902344 59.230469 16.105469 59.027344 " fill-opacity="1" fill-rule="nonzero"/><path fill="#336b38" d="M 13.433594 65.488281 C 13.425781 65.488281 13.421875 65.488281 13.414062 65.484375 C 13.363281 65.476562 13.328125 65.425781 13.339844 65.375 C 13.558594 64.183594 13.933594 63.113281 14.453125 62.195312 C 15.035156 61.160156 15.824219 60.296875 16.726562 59.699219 C 17.097656 59.453125 17.5 59.246094 17.886719 59.046875 C 18.242188 58.863281 18.609375 58.671875 18.953125 58.453125 C 18.996094 58.425781 19.054688 58.4375 19.085938 58.484375 C 19.113281 58.527344 19.101562 58.585938 19.054688 58.613281 C 18.707031 58.835938 18.335938 59.027344 17.976562 59.214844 C 17.589844 59.414062 17.195312 59.617188 16.832031 59.859375 C 15.953125 60.4375 15.1875 61.277344 14.617188 62.285156 C 14.109375 63.1875 13.742188 64.238281 13.527344 65.410156 C 13.519531 65.457031 13.476562 65.488281 13.433594 65.488281 " fill-opacity="1" fill-rule="nonzero"/><path fill="#336b38" d="M 11.464844 64.769531 C 11.523438 64.773438 11.574219 64.730469 11.582031 64.671875 L 11.804688 62.949219 C 12 61.464844 12.199219 59.925781 12.605469 58.460938 C 13.058594 56.824219 13.726562 55.464844 14.59375 54.417969 C 14.632812 54.371094 14.625 54.300781 14.578125 54.261719 C 14.53125 54.222656 14.460938 54.230469 14.421875 54.277344 C 13.535156 55.347656 12.851562 56.738281 12.394531 58.402344 C 11.984375 59.882812 11.78125 61.429688 11.585938 62.921875 L 11.363281 64.644531 C 11.355469 64.703125 11.398438 64.761719 11.457031 64.769531 C 11.460938 64.769531 11.460938 64.769531 11.464844 64.769531 " fill-opacity="1" fill-rule="nonzero"/><path fill="#508247" d="M 8.625 63.496094 C 8.101562 63 7.816406 62.300781 7.679688 61.59375 C 7.636719 61.386719 7.609375 61.179688 7.621094 60.96875 C 7.632812 60.757812 7.6875 60.546875 7.800781 60.371094 C 7.867188 60.273438 7.957031 60.1875 8.070312 60.160156 C 8.179688 60.132812 8.292969 60.167969 8.390625 60.214844 C 8.640625 60.332031 8.839844 60.535156 8.984375 60.765625 C 9.128906 60.996094 9.226562 61.253906 9.304688 61.515625 C 9.425781 61.925781 9.511719 62.347656 9.554688 62.773438 C 9.574219 62.976562 9.578125 63.171875 9.535156 63.371094 C 9.507812 63.496094 9.488281 63.683594 9.40625 63.789062 C 9.21875 64.023438 8.765625 63.628906 8.625 63.496094 " fill-opacity="1" fill-rule="nonzero"/><path fill="#44773d" d="M 9.488281 66.21875 C 9.457031 66.21875 9.433594 66.195312 9.429688 66.164062 L 9.375 65.273438 C 9.324219 64.503906 9.273438 63.710938 9.113281 62.945312 C 8.9375 62.09375 8.640625 61.375 8.230469 60.808594 C 8.214844 60.78125 8.21875 60.746094 8.246094 60.730469 C 8.269531 60.710938 8.304688 60.714844 8.324219 60.742188 C 8.742188 61.320312 9.046875 62.054688 9.226562 62.921875 C 9.386719 63.695312 9.4375 64.496094 9.488281 65.265625 L 9.542969 66.15625 C 9.546875 66.1875 9.523438 66.214844 9.492188 66.214844 C 9.488281 66.21875 9.488281 66.21875 9.488281 66.21875 " fill-opacity="1" fill-rule="nonzero"/><path fill="#336b38" d="M 10.519531 64.863281 C 10.578125 64.863281 10.625 64.820312 10.628906 64.761719 C 10.890625 61.390625 10.664062 58 9.949219 54.691406 C 9.933594 54.632812 9.875 54.59375 9.816406 54.605469 C 9.757812 54.621094 9.71875 54.679688 9.730469 54.738281 C 10.441406 58.027344 10.667969 61.394531 10.410156 64.746094 C 10.40625 64.808594 10.449219 64.859375 10.511719 64.863281 C 10.515625 64.863281 10.515625 64.863281 10.519531 64.863281 " fill-opacity="1" fill-rule="nonzero"/><path fill="#508247" d="M 14.214844 60.675781 C 14.265625 60.257812 14.363281 59.503906 13.957031 59.230469 C 13.804688 59.128906 13.636719 59.136719 13.609375 59.136719 C 13.148438 59.160156 12.847656 59.777344 12.582031 60.332031 C 12.363281 60.789062 12.191406 61.140625 12.15625 61.664062 C 12.113281 62.332031 12.316406 62.847656 12.4375 63.105469 C 12.484375 63.109375 12.53125 63.117188 12.578125 63.125 C 12.761719 63.035156 13.03125 62.882812 13.296875 62.625 C 13.65625 62.273438 13.824219 61.910156 13.933594 61.664062 C 14.136719 61.207031 14.195312 60.820312 14.214844 60.675781 " fill-opacity="1" fill-rule="nonzero"/><path fill="#44773d" d="M 12.167969 65.761719 C 12.136719 65.757812 12.117188 65.730469 12.117188 65.699219 C 12.226562 63.878906 12.601562 62.089844 13.226562 60.378906 C 13.238281 60.347656 13.269531 60.332031 13.300781 60.34375 C 13.332031 60.355469 13.347656 60.386719 13.335938 60.417969 C 12.714844 62.121094 12.347656 63.898438 12.234375 65.707031 C 12.234375 65.738281 12.207031 65.761719 12.171875 65.761719 C 12.171875 65.761719 12.171875 65.761719 12.167969 65.761719 " fill-opacity="1" fill-rule="nonzero"/><path fill="#e65a56" d="M 12.859375 72.125 L 9.691406 72.125 C 7.828125 71.476562 6.496094 69.714844 6.496094 67.640625 C 6.496094 66.394531 6.976562 65.261719 7.765625 64.414062 L 14.785156 64.414062 C 15.574219 65.261719 16.054688 66.394531 16.054688 67.640625 C 16.054688 69.714844 14.71875 71.476562 12.859375 72.125 " fill-opacity="1" fill-rule="nonzero"/><path fill="#db4343" d="M 7.765625 64.414062 L 7.808594 64.414062 C 7.6875 64.671875 6.652344 66.980469 7.832031 69.042969 C 9.003906 71.09375 11.898438 72.0625 14.640625 71.015625 C 14.140625 71.507812 13.535156 71.890625 12.859375 72.125 L 9.691406 72.125 C 7.828125 71.476562 6.496094 69.714844 6.496094 67.640625 C 6.496094 66.394531 6.976562 65.261719 7.765625 64.414062 " fill-opacity="1" fill-rule="nonzero"/><path fill="#ed6262" d="M 14.457031 67.019531 C 15.121094 68.660156 14.570312 69.976562 14.804688 70.023438 C 15.074219 70.078125 16.015625 68.398438 15.648438 66.699219 C 15.585938 66.402344 15.320312 65.183594 14.371094 64.820312 C 14.058594 64.703125 13.539062 64.625 13.382812 64.851562 C 13.148438 65.1875 13.976562 65.824219 14.457031 67.019531 " fill-opacity="1" fill-rule="nonzero"/><g clip-path="url(#7edfaec44d)"><path fill="#db9779" d="M 73.6875 74.71875 L 1.3125 74.71875 C 0.59375 74.71875 0.015625 74.144531 0.015625 73.429688 C 0.015625 72.71875 0.59375 72.144531 1.3125 72.144531 L 73.6875 72.144531 C 74.40625 72.144531 74.984375 72.71875 74.984375 73.429688 C 74.984375 74.144531 74.40625 74.71875 73.6875 74.71875 " fill-opacity="1" fill-rule="nonzero"/></g></svg>