<svg xmlns="http://www.w3.org/2000/svg" width="100" height="100" version="1.0" viewBox="0 0 75 75"><defs><clipPath id="a"><path d="M16.219 16H26v23h-9.781Zm0 0"/></clipPath><clipPath id="b"><path d="M43 17h15.969v15H43Zm0 0"/></clipPath><clipPath id="c"><path d="M16.219 19H25v15h-8.781Zm0 0"/></clipPath><clipPath id="d"><path d="M43.36 12.223h15.6V31h-15.6Zm0 0"/></clipPath><clipPath id="e"><path d="M16.219 19H30v22H16.219Zm0 0"/></clipPath><clipPath id="f"><path d="M16.219 19H20v14h-3.781Zm0 0"/></clipPath></defs><path fill="#729cc2" d="M47.168 73.25c-1.402-6.871-2.805-13.762-3.254-20.773-.027-.407-.414-.575-.719-.5a.506.506 0 0 0-.191-.036c-6.266-.12-12.719-.168-18.578 2.356-.211.09-.293.254-.281.418-.051.101-.676 8.195-.813 9.738a53.939 53.939 0 0 0 .023 9.531c.024.266.2.426.399.489a.535.535 0 0 0 .316.097c2.762.016 5.72.297 8.399-.52.273.2.742.16.87-.26a93.618 93.618 0 0 0 1.388-5.126c.675 1.75 1.347 3.5 2.023 5.25.063.16.172.266.3.316.087.098.212.165.376.172 2.937.141 6.148.598 8.953-.523.348.16.89-.125.789-.629"/><path fill="#f6a376" d="M42.227 19.605c-.086-1.074-.668-2.222-1.715-2.55a.49.49 0 0 0-.305-.203c-2.871-.696-5.809-1.403-8.789-1.235-1.398.082-2.816.332-4.113.88-1.43.605.074 2.124.59 2.894 1.46 2.18 2.988 4.547 5.546 5.55 2.442.961 5.48.063 7.317-1.734.949-.937 1.57-2.25 1.469-3.602"/><g clip-path="url(#a)"><path fill="#f6a376" d="M25.11 18.992c-.376-1.324-1.622-2.137-2.946-2.105.238.46.219 1.035-.273 1.504-.91.863-1.586 1.742-2.102 2.906-.418.933-.7 1.996-.992 3.035.015.156.008.328-.043.512-.266 1.011-.781 1.933-1.024 2.953-.105.437-.039.613-.445.765-.113.981-.594 1.958-.613 2.438-.07 1.691-.305 4.617-.125 6.305.121 1.136.871 1.98 2.414 1.406 1.406-.523 2.062-2.371 2.535-3.64 1.254-3.376 1.98-6.923 2.8-10.419.24-1.011.485-2.023.712-3.039.187-.851.344-1.765.101-2.62"/></g><g clip-path="url(#b)"><path fill="#f6a376" d="M57.89 27.945c-.374-1.234-1.203-.918-2.066-1.847-.984-1.059-2.09-2.008-3.16-2.977-2.324-2.105-4.684-4.644-7.844-5.41a.54.54 0 0 0-.355.023.87.87 0 0 0-.754.567c-.223.562.078 1.351.215 1.902.3 1.2.742 2.383 1.355 3.461.149.262.309.512.477.754-.285.215-.383.715.012.973 3.546 2.316 10.261 5.691 11.347 5.648.528-.02 1.227-.187 1.543-1.254.25-.2-.66-1.48-.77-1.84"/></g><path fill="#d26363" d="M33.855 17.074c.02-.004.012.004-.023.012-.031.031-.062.062-.094.09-.004.004-.008.004-.008.008-.023.03-.042.062-.062.093-.035.067-.094.207-.105.215-.024.086-.047.176-.075.262-.004.004-.004.008-.008.012v.023c.075-.086.165-.168.243-.25.027-.043.054-.082.082-.121.078-.125.152-.254.218-.383-.054.012-.109.027-.168.04"/><path fill="#f5e4da" d="M44.45 52.156c-.052-1.164-.138-2.304-.126-3.441a17.383 17.383 0 0 1-.117-2.387c.043-1.43.281-2.851.469-4.27.367-2.734.738-5.472 1.152-8.203.41-2.699.992-5.382 1.356-8.09.394-2.964-.86-5.687-2.235-8.183.024-.36.07-1.266-.367-1.297-.824-.066-3.238-.14-6.039-.226.215.246.348.57.387.918.18 1.558-.715 3.226-1.72 4.359-1.019 1.148-2.55 1.812-4.07 1.312-2.5-.824-3.53-3.875-4.09-6.175a1.313 1.313 0 0 1 .016-.73c-1.054-.048-1.851-.095-2.226-.145-1.707-.215-3.512-.262-4.992.824-.79.582-2.25 2.187-2.828 3.613-.063.152-.122.3-.176.438 0 .027 0 .054-.004.078a13.89 13.89 0 0 1-.375 2.191 1.255 1.255 0 0 1-.445.676c-.008.605.101 1.285.351 2.219.34 1.273 1.074 2.273 1.758 3.351.82 1.297 1.117 2.63 1.039 4.188-.05 1.011-.203 2.011-.328 3.015.265 3.235.555 6.47.992 9.688.207 1.5.363 2.996.5 4.508.125 1.375.281 2.722.715 4.058.203.621.465 1.426 1.098 1.73.394.188.851.138 1.28.067 2.016-.324 3.97-1.23 6.036-1.203 1.437.023 2.805.527 4.14 1.043.114.023.227.043.344.066 2.297.454 4.754 1.125 7.157.739.351-.055.968-.125 1.437-.29-.047-1.476-.027-2.96-.09-4.44"/><g clip-path="url(#c)"><path fill="#f5e4da" d="M16.246 32.086a.249.249 0 0 0 .223.27c.691.066 1.726.183 2.328.273.687.101 1.367.246 2.047.402.297.051.586.117.87.203.052.012.102.024.153.04.942.222 1.88.468 2.813.718a.403.403 0 0 0 .015-.117c-.066-1.137-.64-2.078-1.199-3.035a855.168 855.168 0 0 0-1.871-3.195c-.52-.891-1.023-2.028-1.836-2.7-.285-.234-.55-.28-.789-.21a.246.246 0 0 1-.309-.29c.282-1.242.606-2.5 1.235-3.601.344-.606-.602-1.434-.906-.809-1.344 2.781-2.672 10.965-2.774 12.05"/></g><path fill="#f6a376" d="M38.727 15.75c-.793-.77-1.497-1.602-2.2-2.45-.691-.827-1.527-1.456-2.636-1.527-.258-.015-.446.075-.567.22-.215.007-.824-.235-.953.027-.289.57-.648 1.109-1.039 1.625-.52 1.093-1.203 2.09-1.875 3.097.43.977 1.438 3.102 2.098 3.754.828.813 1.91 1.363 3.078 1.395.582-.86 1.328-1.618 1.972-2.442.106-.133.243-.125.348-.05a46.184 46.184 0 0 1 1.621-2.372.73.73 0 0 0 .114-.207c.285-.265.398-.718.039-1.07"/><path fill="#824638" d="M37.77 1.266C35.437 0 33.535.82 32.543 1.418c-.457.273-.844.832-1.363.875-.578.05-1.09.25-1.555.594-1.602 1.183-2.566 3.699-1.492 5.418-.547.722-.7 1.73-.473 2.61.328 1.3 1.906 2.956 2.867 4.19 0 0 1.207-1.793.422-2.421-.926-.739-2.855-2.625-1.246-3.711.453-.305.305-.946-.043-1.239-1.191-1.007.184-3.574 1.469-3.863.41-.094.781-.05 1.156-.273.395-.235.672-.614 1.07-.848.73-.426 1.563-.527 2.387-.371.996.187 2.91-.637 2.028-1.113M43.34 7.633c-.125-.426-.352-.73-.598-1.09-.355-.516-.054-1.102-.21-1.672-.216-.8-1.27-1.555-1.938-1.96-.043-.028-1.36.636-1.403.632-.55-.367.215-1.063-.164-.328-.418.805.082 1.836.422 2.574.492 1.082.617 2.106.637 3.281.016 1 .047 1.989.41 2.93-.098.219-.66 2.867-.41 2.688 1.48-1.06 3.82-5.094 3.254-7.055"/><path fill="#824638" d="M41.66 11.988c.059-.922-.156-1.808-.293-2.71-.043-.27-.082-.544-.12-.817-.556-1.375-1.349-2.688-2.274-3.867.117.426.312.843.476 1.195.492 1.082.617 2.106.637 3.281.016 1 .047 1.989.41 2.93-.098.219-.66 2.867-.41 2.688.434-.31.937-.876 1.426-1.567a10.1 10.1 0 0 0 .148-1.133"/><path fill="#824638" d="M40.648 3.293c.082-.113.09-.277-.054-.383-1.36-.984-2.844-2.008-4.598-1.93-.672.032-1.332.227-1.879.63-.379.28-.629.636-1.12.722-.552.098-1.079.102-1.599.176-.543.18-1.039.484-1.382.93-.356.472-.465 1.054-.668 1.597-.211.574-.575 1.125-.73 1.715-.15.547.062 1.125.167 1.664.145.727.086 1.453.106 2.188.027 1.054.351 2.039.78 2.988.49.539.856.594.856 1.515 0 .18 1.399-1.265 1.004-1.402.32-.168.711-.148 1.051-.242.29-.074.563-.2.82-.352.586-.347 1.102-.808 1.63-1.238 1.144-.937 2.398-1.844 3.374-2.965.403-.465.735-.996.883-1.597.09-.36.094-.75.273-1.082.172-.313.458-.497.739-.707.386-.293.797-.641.879-1.145a.999.999 0 0 0-.532-1.082"/><path fill="#f6a376" d="M41.34 5.332c-.031-.098-.098-.148-.172-.16a.33.33 0 0 0-.047-.09c-1.844-2.418-5.285-3.059-7.934-1.617a6.979 6.979 0 0 0-2.933 3.058c-.344.707-.55 1.528-.375 2.309.176.777.715 1.39 1.023 2.113.5 1.164.805 3.254.88 4.485.109 1.808 1.394 3.16 2.905 4.207 1.114.765 1.844 1.02 2.727.105 1.05-1.086 2-2.793 2.582-4.168C41.293 12.5 42.38 8.563 41.34 5.332"/><path fill="#824638" d="M39.691 6.172a.317.317 0 0 0 .016-.152c-.223-1.266-.996-2.391-2.156-2.98-1.39-.708-2.942-.509-4.246.269-.23.136-.473.285-.72.445a.293.293 0 0 0-.19.004 3.37 3.37 0 0 0-1.66 1.258c-.215.312-.325.66-.426 1.011-.02.043-.04.082-.055.13a2.702 2.702 0 0 0-.133.46 2.32 2.32 0 0 1-.289.54c-.512.687-.676 1.21-.535 2.073.086.532.219 1.04.691 1.258.07.106.196.164.34.094 0 0 .004 0 .004-.004a.215.215 0 0 0 .148-.07c.461-.227.649.39 1.176.445.461.05 1.176-.547 1.63-.45.726.153 1.32-.108 1.808-.644 1.117-1.218 3.363-4.289 6.176-2.222.242.18-1.422-1.293-1.579-1.465"/><path fill="#f6a376" d="M32.371 12.02c-.125-.524-.226-1.286-.785-1.61-.832-.488-1.684.004-1.762.89-.058.669.184 1.43.477 2.024.207.418.594 1.16 1.129 1.301.023.008.05.012.074.016.164.062.344.07.535-.028a.664.664 0 0 0 .254-.218c.102-.118.176-.262.223-.403.21-.613 0-1.36-.145-1.972"/><path fill="#824638" d="M42.777 8.957c-.27-.934-.539-1.867-.812-2.8-.203-.7-.422-1.41-.95-1.938-.554-.559-1.343-.946-2.035-1.32-.757-.41-1.539-.731-2.394-.864-.285-.047-.398.348-.188.504.551.41 1.024.895 1.41 1.457.313 1.031.864 2.41 1.887 2.66.364.09.54-.07.73.328.138.282-.91-1.07-.734-.812.391.562.54 2.95 1.93 3.64.203.102 1.227-.613 1.156-.855"/><path fill="#4f2f2d" d="M39.215 12.563c-.086-.25-.426-.18-.54.003-.16.258-.398 1.125-.195 1.403.188.254.329.187.461.074.313-.273.403-1.11.274-1.48M35.215 12.066c-.09-.25-.426-.18-.54.004-.163.262-.398 1.125-.195 1.403.188.254.325.187.458.074.312-.274.406-1.11.277-1.48"/><path fill="#824638" d="M40.91 11.281c-.324-.316-.847-.484-1.242-.687-.211-.106-.566-.192-.684.082-.101.254.047.582.246.742.403.332 1.09.363 1.583.258.16-.035.21-.278.097-.395M36.852 10.29c-.079-.106-.454-.075-.563-.071-.773.02-1.23.246-1.973.504a.242.242 0 0 0-.12.09c-.15.136-.13.48.109.496.828.058 1.84-.059 2.425-.395.23-.137.227-.48.122-.625"/><path fill="#d97f4e" d="M37.695 12.68c-.004-.137-.203-.137-.215 0-.066.84.149 2.64-.617 2.816-.133.031-.074.246.059.207.46-.137.66-.508.73-.96.106-.677.078-1.384.043-2.063"/><path fill="#693327" d="M30.305 5.383c-.617.703-1.067 1.586-1.067 2.535 0 .844.371 1.668 1.055 2.172.055.043.11-.05.055-.09-.676-.5-1.024-1.332-1-2.16.023-.89.453-1.719 1.03-2.38.048-.054-.026-.128-.073-.077M40.406 4.54c-.558-.84-1.57-1.138-2.535-1.122-.07 0-.07.11 0 .105.887-.011 1.82.239 2.375.977.504.676.496 1.66-.191 2.21-.055.048.023.122.078.08.683-.552.742-1.544.273-2.25M36.836 1.398c-.07-.015-.098.09-.031.106 1.195.242 2.57.789 2.816 2.133.012.066.117.039.106-.028-.25-1.382-1.66-1.96-2.891-2.21M36.984 4.535c-1.43.524-2.761 1.73-2.593 3.38.007.065.117.065.109 0-.164-1.599 1.125-2.77 2.516-3.274.062-.024.035-.13-.032-.106"/><path fill="#88452a" d="M42.473 7.734a1.78 1.78 0 0 0-1.09-1.226c-.067-.028-.094.078-.028.101.508.2.88.625 1.012 1.153.016.066.121.039.106-.028"/><path fill="#693327" d="M29.563 11.668c-.583-.34-.735-1-.731-1.633 0-.066-.11-.066-.11 0-.003.672.169 1.367.786 1.727.058.035.113-.059.055-.094M33.629 2.05a2.262 2.262 0 0 0-1.277 2.423c.011.066.117.039.105-.028a2.155 2.155 0 0 1 1.227-2.3c.062-.028.007-.122-.055-.094M33.11 8.691a2 2 0 0 0-1.419.743c-.043.054.032.132.079.078a1.878 1.878 0 0 1 1.34-.711c.07-.008.07-.114 0-.11"/><path fill="#d97f4e" d="M30.555 10.902c-.063.028-.008.121.054.09.477-.226.793.313.989.918a1.152 1.152 0 0 0-.809-.445c-.07-.008-.07.098 0 .105.348.035.648.239.813.547a.05.05 0 0 0 .062.024c.11.406.168.804.188.992.007.066.113.066.109 0-.055-.567-.41-2.711-1.406-2.23"/><path fill="#f5e4da" d="M53.672 20.707c-.625-.535-1.442-.93-2.149-1.348-.75-.445-1.503-.879-2.265-1.304-.817-.457-1.625-.965-2.496-1.317-.887-.36-1.496-.554-2.825-.402-.324.035-1.863 1.613-1.882 1.863-.547.645.86-.058.937.75a56.51 56.51 0 0 0 .395 3.14 59.976 59.976 0 0 0 1.332 6.43c.02.07.05.133.086.184.07.262.316.504.66.457 1.547-.21-.637 4.305.445 4.172-.027-.95 6.86-10.95 7.762-12.625"/><path fill="#fff" d="M37.746 16.98c-.012-.007-.02-.007-.027-.007-.012-.004-.024-.008-.035-.008-.551.074-1.028-.02-1.563-.11-.289-.046-.601-.039-.824.133-.16.082-.277.239-.067.34.375.176.895.227 1.313.262.352.027.738.027 1.031-.172.13-.086.364-.316.172-.438"/><path fill="#e3ccbe" d="M49.957 21.934c-.102-1.028-1.727-1.036-1.625 0 .191 1.984.438 3.964.738 5.933.438-.68.89-1.375 1.336-2.055a99.003 99.003 0 0 1-.449-3.878M48.055 17.371a11.31 11.31 0 0 0-1.293-.633c-.09-.039-.18-.07-.266-.105.02.781-.172 1.582-.402 2.308-.418 1.309-.98 2.559-1.34 3.887-.266.992-.484 2-.68 3.012.196.898.41 1.793.645 2.68.02.07.05.132.086.183a.648.648 0 0 0 .336.41c.324-1.968.668-3.937 1.18-5.855.527-1.957 1.542-3.899 1.734-5.887"/><path fill="#e3ccbe" d="M46.805 21.742a16.16 16.16 0 0 0-.887-2.277c-.39 1.12-.855 2.21-1.164 3.363-.742 2.777-1.121 5.668-1.625 8.496-.508 2.867-1.035 5.735-1.527 8.61-.485 2.84-.864 5.71-.68 8.597.101 1.602.305 3.192.336 4.797a44.085 44.085 0 0 1-.102 3.664c.543.02 1.086.004 1.63-.062.062-.992.105-1.985.105-2.977-.004-1.469-.141-2.918-.266-4.379-.254-2.965-.016-5.863.473-8.793.492-2.945 1.039-5.879 1.562-8.816.516-2.899.899-5.86 1.66-8.707.137-.504.305-1.012.485-1.516"/><path fill="#d97f4e" d="M35.617 20.188c-2.16-1.09-4.012-3.145-3.816-5.704.008-.066-.102-.066-.11 0-.199 2.594 1.676 4.688 3.872 5.797.062.032.117-.062.054-.093"/><path fill="#f6a376" d="M45.406 11.344a8.465 8.465 0 0 1-.36-1.645 21.621 21.621 0 0 1-.163-1.328c-.055-.613.012-1.297-.145-1.894-.125-.47-.504-.852-.812-1.207-.313-.36-.614-.735-.961-1.063a3.298 3.298 0 0 0-.531-.426c-.114-.07-.348-.148-.422-.066-.207-.293-.63-.86-1.035-.82-.391.035-.653.457-.45.804.16.278.309.563.45.848-.297-.113-.68.023-.762.308.09.926.969 1.63 1.258 2.489.343 1.023.093 2.144.109 3.199v.008a8.977 8.977 0 0 0 .45 1.273c.488 1.047 2.19 3.75 2.859 4.723.863.281.882-2.067 1.847-2.438-.59-.859-1.101-1.746-1.332-2.765"/><path fill="#d6b9a7" d="M26.496 33.18a24.238 24.238 0 0 1-2.535-3.211c-.04-.055-.133-.004-.094.054a24.6 24.6 0 0 0 2.555 3.235c.047.05.125-.024.074-.078"/><g clip-path="url(#d)"><path fill="#f6a376" d="M58.953 28.273c.34-3.906-10.41-11.867-11.953-13.988-.313-.433-.852-1.11-1.258-1.922-.164-.328-.476.051-.66.254a.656.656 0 0 0-.176.047c-.605.277-1.883.723-1.426 1.578 1.133 2.117 4.07 6.172 5.41 7.977 1.962 2.64 3.922 5.308 6.2 7.683.793.825 1.89 1.465 3.015.809.47-.277.786-1.734.848-2.438"/></g><path fill="#e3ccbe" d="M24.98 49.39c-.476-2.859-.308-5.82-.312-8.706 0-3.043-.023-6.094.02-9.137.042-2.965.324-5.934.226-8.899-.027-.84-.102-1.68-.219-2.511-.11-.817-.254-1.64-.183-2.469.066-.77.328-1.496.664-2.195-.63 0-1.254.058-1.852.23a8.162 8.162 0 0 0-.262.848c-.359 1.496-.042 2.926.114 4.422.324 3.082-.016 6.199-.086 9.285-.074 3.125-.047 6.25-.047 9.375.004 3.047-.168 6.164.223 9.191.336 2.574 1.105 5.04 2.066 7.434.031-.004.063-.008.094-.016.504-.082 1.004-.199 1.504-.328-.864-2.105-1.575-4.277-1.95-6.523"/><path fill="#442722" d="m27.348 18.36 3.593 1.242c.305.101.625-.047.7-.329l1.91-7.113c.066-.25-.09-.515-.36-.605l-3.593-1.242c-.301-.102-.621.046-.696.324l-1.91 7.117c-.07.25.086.512.356.605"/><path fill="#d6b9a7" d="M25.578 34.27a5.35 5.35 0 0 0-2.441-.641c-.07 0-.07.105 0 .11a5.21 5.21 0 0 1 2.386.624c.059.032.114-.058.055-.093"/><path fill="#f6a376" d="M32.813 13.324c-.79.207-1.567.465-2.325.766.64-.465 1.32-.875 2.04-1.235.636-.316.074-1.27-.563-.953a15.345 15.345 0 0 0-3.656 2.547c-.223.043-.22-.851-.125-1.144.207-.68-.16-.38-.485.25-.418.804-.77 1.636-.972 2.629-.102.488-.915 3.816-1.493 4.789-.066.105.493-.68.54-.586-.04.25.07.515.382.601l2.176.606c.047.011.09.02.129.02.473.042.14.413.234.105.34-1.106 1.344-1.461 1.77-2.051.406-.563.785-1.148 1.18-1.719.261-.383.523-.762.789-1.14.285-.407 1.05-1.028.507-1.551.18-.102.387-.211.48-.406.095-.192.044-.422-.085-.586.371-.332.074-1.098-.523-.942"/><g clip-path="url(#e)"><path fill="#f6a376" d="M29.32 20.164a.54.54 0 0 0-.25-.488 2.67 2.67 0 0 0-2.14-.363l-.07.023c-.227-.277-.887.07-1.09.477-2.47 4.898-5.391 9.039-8.133 13.816-.63 1.098-1.18 2.383-1.09 3.676.074 1.11.86 2.668 2.043 2.949.7.164 1.367-.164 1.969-.48.043-.02.086-.044.125-.067 3.687-5.973 5.308-12.16 8.68-19.047.109-.219.1-.379-.044-.496"/></g><path fill="#d97f4e" d="M38.84 17.79a9.632 9.632 0 0 1-1.168 1.632c-.426.484-.996 1.047-1.703.816-.028-.008-.047 0-.059.02-.015-.008-.035-.004-.05.012-.43.492-.833 1.007-1.208 1.546-.039.055.055.11.094.051.367-.527.766-1.035 1.188-1.52.004-.003.004-.003.004-.007.64.21 1.203-.192 1.624-.637a9.564 9.564 0 0 0 1.372-1.86c.035-.058-.059-.113-.094-.054M32.898 14.094a29.733 29.733 0 0 0-3.242 1.55c-.062.036-.008.13.055.098a29.213 29.213 0 0 1 3.215-1.539c.066-.027.039-.133-.028-.11M32.465 15.164a29.808 29.808 0 0 0-1.95 1.555c-.054.047.024.125.079.078.62-.54 1.261-1.05 1.926-1.54.058-.038 0-.136-.055-.093"/><path fill="#d6b9a7" d="M46.988 25.66a82.074 82.074 0 0 0-1.89 8.192c-.012.07.093.097.105.03a81.575 81.575 0 0 1 1.89-8.19c.02-.067-.085-.098-.105-.032"/><path fill="#704b44" d="M31.207 11.21c-.379-.1-.758-.202-1.137-.304-.21-.054-.515-.191-.718-.043-.192.14-.23.492-.29.7-.117.39-.23.777-.343 1.164-.02.066.082.097.101.03.16-.534.29-1.093.48-1.62.083-.227.387-.223.59-.168.133.035.266.07.395.11.297.077.594.155.89.237.067.016.098-.086.032-.105"/><path fill="#d97f4e" d="M54.254 28.77a7.1 7.1 0 0 1-2.02-2.368c-.035-.062-.132-.007-.097.059a7.22 7.22 0 0 0 2.058 2.406c.059.047.114-.055.059-.097M17.887 33.258l-.563 1.597c-.023.067.082.098.11.032.187-.535.375-1.067.562-1.598.024-.066-.086-.098-.11-.031"/><path fill="#e3ccbe" d="M43.793 16.238c-.438-.02-.988-.043-1.625-.062-.3 4.734-2.512 9.172-3.45 13.804-.593 2.946-.554 5.934-.636 8.922a48.492 48.492 0 0 1-.352 4.578c-.171 1.43-.335 2.856-.324 4.301.028 2.93.57 5.84.489 8.77.535.105 1.074.207 1.617.285.11-2.61-.305-5.203-.442-7.809-.156-2.984.442-5.89.59-8.859.149-3-.02-6.035.488-9.012.461-2.699 1.38-5.293 2.18-7.906.703-2.285 1.313-4.629 1.465-7.012M35.145 41.68c.148-2.617.074-5.254.28-7.867.2-2.508 1.079-4.876 1.493-7.34.281-1.66.34-3.344.176-5.008-.442.46-.965.836-1.54 1.074.055 1.137 0 2.277-.183 3.402-.406 2.477-1.262 4.848-1.52 7.348-.269 2.606-.167 5.25-.3 7.867a121.281 121.281 0 0 1-.258 3.77c-.11 1.293-.36 2.62-.293 3.918.074 1.367.723 2.601.797 3.976.047.887.023 1.766.074 2.645.563.172 1.117.383 1.668.594-.14-1.07-.059-2.16-.117-3.239a9.482 9.482 0 0 0-.242-1.785c-.145-.578-.383-1.129-.496-1.715-.235-1.21.07-2.55.18-3.765.116-1.29.21-2.582.28-3.875"/><path fill="#d6b9a7" d="M38.918 46.898a72.425 72.425 0 0 0-9.242 5.97c-.055.042 0 .136.054.093a72.425 72.425 0 0 1 9.243-5.969c.058-.035.004-.129-.055-.094M37.45 52.285a7.218 7.218 0 0 0-3.122-.496c-.07.004-.07.113 0 .11a7.103 7.103 0 0 1 3.094.492c.062.023.09-.078.027-.106M39.977 19.262a15.027 15.027 0 0 1-1.227 2.761c-.469.825-1.004 1.665-1.75 2.27-1.438 1.18-3.43 1.223-5.2 1.133-.07-.004-.07.105 0 .105 1.407.074 2.895.063 4.208-.511 1.406-.614 2.273-1.899 2.98-3.2.442-.808.805-1.656 1.094-2.53.023-.067-.082-.095-.105-.028"/><path fill="#e3ccbe" d="M30.238 19.871a146.768 146.768 0 0 0-1.289 14.453c-.094 2.512-.035 5.028-.156 7.535-.117 2.528-.773 4.961-1.098 7.457-.27 2.094-.218 4.274.575 6.235.535-.145 1.07-.278 1.609-.371-.785-1.727-.817-3.688-.598-5.551.282-2.395.934-4.723 1.102-7.133.168-2.434.082-4.887.164-7.324a142.232 142.232 0 0 1 1.066-13.434c-.562-.511-1.011-1.16-1.375-1.867"/><g clip-path="url(#f)"><path fill="#e3ccbe" d="M19.977 25.117a3.908 3.908 0 0 0-.188-.172c-.285-.234-.55-.28-.789-.21a.246.246 0 0 1-.309-.29c.282-1.242.606-2.5 1.235-3.601.234-.414-.133-.93-.485-1.016-.257 1.73-.586 3.399-1.093 5.078-.743 2.442-1.645 4.89-1.977 7.418a.286.286 0 0 0 .098.031c.433.043 1.004.106 1.52.168.316-2.453 1.206-4.82 1.925-7.187.023-.07.043-.145.063-.219"/></g><path fill="#e3ccbe" d="M21.848 16.422c-.59.433-1.555 1.441-2.246 2.52a12.23 12.23 0 0 0-.157.855c-.258 1.742-.586 3.422-1.097 5.11-.032.097-.059.19-.09.288.035.14.07.285.113.442.188.699.492 1.316.844 1.91.234-.738.476-1.473.7-2.211a32.944 32.944 0 0 0 1.07-4.91c.23-1.625.683-3.086 1.593-4.442-.25.121-.492.266-.73.438"/><path fill="#d97f4e" d="M33.43 13.785c-.008-.066-.114-.066-.11 0 .016.16-.066.277-.097.422-.02.094-.008.18-.008.273 0 .207-.059.383-.168.563-.04.059-.086.11-.106.18-.03.113.008.242.004.355 0 .137-.023.277-.062.41a1.533 1.533 0 0 1-.531.758c-.055.043 0 .137.054.094.418-.32.664-.813.649-1.34-.008-.191.008-.285.11-.441.073-.118.124-.25.148-.387.023-.16-.016-.32.023-.477.039-.144.11-.254.094-.41M28.086 14.473a1.14 1.14 0 0 0-.406.351c-.043.059.05.114.093.055.098-.133.223-.234.368-.309.066-.035.007-.129-.055-.097M42.758 7.469c-.008-.293 0-.582-.125-.86-.274-.609-.719-1.187-1.106-1.73-.043-.059-.14 0-.101.059.367.511.742 1.039 1.039 1.597.172.317.172.637.18.992.011.352.02.707.03 1.059.005.074.118.074.114 0-.012-.371-.02-.742-.031-1.117M43.504 5.898c-.234-.753-.836-1.343-1.352-1.914-.047-.054-.129.024-.078.079.528.585 1.133 1.18 1.344 1.957.21.761.219 1.59.281 2.37.004.075.117.075.114 0-.067-.82-.067-1.703-.31-2.492M44.59 6.805c-.004-.075-.117-.075-.117 0 .011.574.039 1.152.086 1.726.004.074.117.074.113 0a25.531 25.531 0 0 1-.082-1.726"/><path fill="#537ca3" d="M36.742 64.957c-.777.75-1.558 1.504-2.34 2.254-.05.047.028.125.078.078l.704-.68c-.114.637-.246 1.27-.395 1.899-.016.066.086.094.102.027a30.16 30.16 0 0 0 .406-1.945c.008-.031-.008-.05-.031-.063.52-.496 1.035-.996 1.554-1.492.051-.05-.027-.125-.078-.078M38.117 56.934c-4.004-.176-8.02-.118-12.02.183-.07.004-.07.113 0 .106 3.587-.266 7.188-.34 10.786-.227-.024.004-.047.02-.051.05-.059.774-.113 1.548-.176 2.321-.058.723-.222 1.602-.976 1.899.047-1.41.066-2.828.05-4.239 0-.07-.109-.07-.105 0a99.49 99.49 0 0 1-.156 6.47c-.004.066.101.066.105 0a95.6 95.6 0 0 0 .102-2.114c.66-.238.945-.914 1.039-1.567.133-.914.156-1.851.226-2.77 0-.026-.015-.046-.039-.05.407.016.813.027 1.215.047.07.004.07-.105 0-.11"/><path fill="#537ca3" d="M27.46 57.176c-.198.976-.382 2.008-.745 2.941-.36.926-1.156 1.403-2 1.844-.063.035-.008.129.055.094.796-.414 1.59-.871 1.972-1.723.203-.45.313-.934.434-1.406.144-.57.273-1.145.39-1.723.012-.066-.093-.098-.105-.027M44.242 60.824c-1.02-.84-1.37-2.133-1.586-3.383-.011-.066-.117-.039-.105.032.219 1.261.582 2.578 1.613 3.43.055.042.133-.032.078-.079"/><path fill="#537ca3" d="M25.188 59.223c-.551 1.715-.774 3.511-.868 5.304a67.259 67.259 0 0 0-.015 5.684c.043 1.102.105 2.203.195 3.305.004.066.113.066.105 0a77.342 77.342 0 0 1-.238-5.707c-.008-1.82.016-3.653.25-5.457.137-1.051.352-2.09.676-3.102.02-.066-.082-.094-.105-.027"/></svg>