<svg xmlns="http://www.w3.org/2000/svg" xmlns:xlink="http://www.w3.org/1999/xlink" width="100" zoomAndPan="magnify" viewBox="0 0 75 74.999997" height="100" preserveAspectRatio="xMidYMid meet" version="1.0"><defs><clipPath id="1e34cee879"><path d="M 16.21875 16 L 26 16 L 26 39 L 16.21875 39 Z M 16.21875 16 " clip-rule="nonzero"/></clipPath><clipPath id="91b9149ae3"><path d="M 43 17 L 58.96875 17 L 58.96875 32 L 43 32 Z M 43 17 " clip-rule="nonzero"/></clipPath><clipPath id="b5430b0875"><path d="M 16.21875 19 L 25 19 L 25 34 L 16.21875 34 Z M 16.21875 19 " clip-rule="nonzero"/></clipPath><clipPath id="da8db0ff17"><path d="M 43.359375 12.222656 L 58.960938 12.222656 L 58.960938 31 L 43.359375 31 Z M 43.359375 12.222656 " clip-rule="nonzero"/></clipPath><clipPath id="f5f202885e"><path d="M 16.21875 19 L 30 19 L 30 41 L 16.21875 41 Z M 16.21875 19 " clip-rule="nonzero"/></clipPath><clipPath id="fd920f6403"><path d="M 16.21875 19 L 20 19 L 20 33 L 16.21875 33 Z M 16.21875 19 " clip-rule="nonzero"/></clipPath></defs><path fill="#729cc2" d="M 47.167969 73.25 C 45.765625 66.378906 44.363281 59.488281 43.914062 52.476562 C 43.886719 52.070312 43.5 51.902344 43.195312 51.976562 C 43.136719 51.953125 43.074219 51.941406 43.003906 51.941406 C 36.738281 51.820312 30.285156 51.773438 24.425781 54.296875 C 24.214844 54.386719 24.132812 54.550781 24.144531 54.714844 C 24.09375 54.816406 23.46875 62.910156 23.332031 64.453125 C 23.054688 67.625 23.070312 70.816406 23.355469 73.984375 C 23.378906 74.25 23.554688 74.410156 23.753906 74.472656 C 23.835938 74.53125 23.941406 74.570312 24.070312 74.570312 C 26.832031 74.585938 29.789062 74.867188 32.46875 74.050781 C 32.742188 74.25 33.210938 74.210938 33.339844 73.789062 C 33.851562 72.09375 34.3125 70.382812 34.726562 68.664062 C 35.402344 70.414062 36.074219 72.164062 36.75 73.914062 C 36.8125 74.074219 36.921875 74.179688 37.050781 74.230469 C 37.136719 74.328125 37.261719 74.394531 37.425781 74.402344 C 40.363281 74.542969 43.574219 75 46.378906 73.878906 C 46.726562 74.039062 47.269531 73.753906 47.167969 73.25 " fill-opacity="1" fill-rule="nonzero"/><path fill="#f6a376" d="M 42.226562 19.605469 C 42.140625 18.53125 41.558594 17.382812 40.511719 17.054688 C 40.449219 16.960938 40.351562 16.886719 40.207031 16.851562 C 37.335938 16.15625 34.398438 15.449219 31.417969 15.617188 C 30.019531 15.699219 28.601562 15.949219 27.304688 16.496094 C 25.875 17.101562 27.378906 18.621094 27.894531 19.390625 C 29.355469 21.570312 30.882812 23.9375 33.441406 24.941406 C 35.882812 25.902344 38.921875 25.003906 40.757812 23.207031 C 41.707031 22.269531 42.328125 20.957031 42.226562 19.605469 " fill-opacity="1" fill-rule="nonzero"/><g clip-path="url(#1e34cee879)"><path fill="#f6a376" d="M 25.109375 18.992188 C 24.734375 17.667969 23.488281 16.855469 22.164062 16.886719 C 22.402344 17.347656 22.382812 17.921875 21.890625 18.390625 C 20.980469 19.253906 20.304688 20.132812 19.789062 21.296875 C 19.371094 22.230469 19.089844 23.292969 18.796875 24.332031 C 18.8125 24.488281 18.804688 24.660156 18.753906 24.84375 C 18.488281 25.855469 17.972656 26.777344 17.730469 27.796875 C 17.625 28.234375 17.691406 28.410156 17.285156 28.5625 C 17.171875 29.542969 16.691406 30.519531 16.671875 31 C 16.601562 32.691406 16.367188 35.617188 16.546875 37.304688 C 16.667969 38.441406 17.417969 39.285156 18.960938 38.710938 C 20.367188 38.1875 21.023438 36.339844 21.496094 35.070312 C 22.75 31.695312 23.476562 28.148438 24.296875 24.652344 C 24.535156 23.640625 24.78125 22.628906 25.007812 21.613281 C 25.195312 20.761719 25.351562 19.847656 25.109375 18.992188 " fill-opacity="1" fill-rule="nonzero"/></g><g clip-path="url(#91b9149ae3)"><path fill="#f6a376" d="M 57.890625 27.945312 C 57.515625 26.710938 56.6875 27.027344 55.824219 26.097656 C 54.839844 25.039062 53.734375 24.089844 52.664062 23.121094 C 50.339844 21.015625 47.980469 18.476562 44.820312 17.710938 C 44.683594 17.675781 44.566406 17.691406 44.464844 17.734375 C 44.140625 17.757812 43.851562 17.953125 43.710938 18.300781 C 43.488281 18.863281 43.789062 19.652344 43.925781 20.203125 C 44.226562 21.402344 44.667969 22.585938 45.28125 23.664062 C 45.429688 23.925781 45.589844 24.175781 45.757812 24.417969 C 45.472656 24.632812 45.375 25.132812 45.769531 25.390625 C 49.316406 27.707031 56.03125 31.082031 57.117188 31.039062 C 57.644531 31.019531 58.34375 30.851562 58.660156 29.785156 C 58.910156 29.585938 58 28.304688 57.890625 27.945312 " fill-opacity="1" fill-rule="nonzero"/></g><path fill="#d26363" d="M 33.855469 17.074219 C 33.875 17.070312 33.867188 17.078125 33.832031 17.085938 C 33.800781 17.117188 33.769531 17.148438 33.738281 17.175781 C 33.734375 17.179688 33.730469 17.179688 33.730469 17.183594 C 33.707031 17.214844 33.6875 17.246094 33.667969 17.277344 C 33.632812 17.34375 33.574219 17.484375 33.5625 17.492188 C 33.539062 17.578125 33.515625 17.667969 33.488281 17.753906 C 33.484375 17.757812 33.484375 17.761719 33.480469 17.765625 C 33.480469 17.773438 33.480469 17.78125 33.480469 17.789062 C 33.554688 17.703125 33.644531 17.621094 33.722656 17.539062 C 33.75 17.496094 33.777344 17.457031 33.804688 17.417969 C 33.882812 17.292969 33.957031 17.164062 34.023438 17.035156 C 33.96875 17.046875 33.914062 17.0625 33.855469 17.074219 " fill-opacity="1" fill-rule="nonzero"/><path fill="#f5e4da" d="M 44.449219 52.15625 C 44.398438 50.992188 44.3125 49.851562 44.324219 48.714844 C 44.238281 47.921875 44.183594 47.128906 44.207031 46.328125 C 44.25 44.898438 44.488281 43.476562 44.675781 42.058594 C 45.042969 39.324219 45.414062 36.585938 45.828125 33.855469 C 46.238281 31.15625 46.820312 28.472656 47.183594 25.765625 C 47.578125 22.800781 46.324219 20.078125 44.949219 17.582031 C 44.972656 17.222656 45.019531 16.316406 44.582031 16.285156 C 43.757812 16.21875 41.34375 16.144531 38.542969 16.058594 C 38.757812 16.304688 38.890625 16.628906 38.929688 16.976562 C 39.109375 18.535156 38.214844 20.203125 37.210938 21.335938 C 36.191406 22.484375 34.660156 23.148438 33.140625 22.648438 C 30.640625 21.824219 29.609375 18.773438 29.050781 16.472656 C 28.984375 16.203125 28.996094 15.957031 29.066406 15.742188 C 28.011719 15.695312 27.214844 15.648438 26.839844 15.597656 C 25.132812 15.382812 23.328125 15.335938 21.847656 16.421875 C 21.058594 17.003906 19.597656 18.609375 19.019531 20.035156 C 18.957031 20.1875 18.898438 20.335938 18.84375 20.472656 C 18.84375 20.5 18.84375 20.527344 18.839844 20.550781 C 18.765625 21.289062 18.65625 22.023438 18.464844 22.742188 C 18.390625 23.023438 18.230469 23.253906 18.019531 23.417969 C 18.011719 24.023438 18.121094 24.703125 18.371094 25.636719 C 18.710938 26.910156 19.445312 27.910156 20.128906 28.988281 C 20.949219 30.285156 21.246094 31.617188 21.167969 33.175781 C 21.117188 34.1875 20.964844 35.1875 20.839844 36.191406 C 21.105469 39.425781 21.394531 42.660156 21.832031 45.878906 C 22.039062 47.378906 22.195312 48.875 22.332031 50.386719 C 22.457031 51.761719 22.613281 53.109375 23.046875 54.445312 C 23.25 55.066406 23.511719 55.871094 24.144531 56.175781 C 24.539062 56.363281 24.996094 56.3125 25.425781 56.242188 C 27.441406 55.917969 29.394531 55.011719 31.460938 55.039062 C 32.898438 55.0625 34.265625 55.566406 35.601562 56.082031 C 35.714844 56.105469 35.828125 56.125 35.945312 56.148438 C 38.242188 56.601562 40.699219 57.273438 43.101562 56.886719 C 43.453125 56.832031 44.070312 56.761719 44.539062 56.597656 C 44.492188 55.121094 44.511719 53.636719 44.449219 52.15625 " fill-opacity="1" fill-rule="nonzero"/><g clip-path="url(#b5430b0875)"><path fill="#f5e4da" d="M 16.246094 32.085938 C 16.234375 32.222656 16.332031 32.339844 16.46875 32.355469 C 17.160156 32.421875 18.195312 32.539062 18.796875 32.628906 C 19.484375 32.730469 20.164062 32.875 20.84375 33.03125 C 21.140625 33.082031 21.429688 33.148438 21.714844 33.234375 C 21.765625 33.246094 21.816406 33.257812 21.867188 33.273438 C 22.808594 33.496094 23.746094 33.742188 24.679688 33.992188 C 24.691406 33.953125 24.695312 33.914062 24.695312 33.875 C 24.628906 32.738281 24.054688 31.796875 23.496094 30.839844 C 22.875 29.773438 22.25 28.707031 21.625 27.644531 C 21.105469 26.753906 20.601562 25.617188 19.789062 24.945312 C 19.503906 24.710938 19.238281 24.664062 19 24.734375 C 18.820312 24.789062 18.652344 24.625 18.691406 24.445312 C 18.972656 23.203125 19.296875 21.945312 19.925781 20.84375 C 20.269531 20.238281 19.324219 19.410156 19.019531 20.035156 C 17.675781 22.816406 16.347656 31 16.246094 32.085938 " fill-opacity="1" fill-rule="nonzero"/></g><path fill="#f6a376" d="M 38.726562 15.75 C 37.933594 14.980469 37.230469 14.148438 36.527344 13.300781 C 35.835938 12.472656 35 11.84375 33.890625 11.773438 C 33.632812 11.757812 33.445312 11.847656 33.324219 11.992188 C 33.109375 12 32.5 11.757812 32.371094 12.019531 C 32.082031 12.589844 31.722656 13.128906 31.332031 13.644531 C 30.8125 14.738281 30.128906 15.734375 29.457031 16.742188 C 29.886719 17.71875 30.894531 19.84375 31.554688 20.496094 C 32.382812 21.308594 33.464844 21.859375 34.632812 21.890625 C 35.214844 21.03125 35.960938 20.273438 36.605469 19.449219 C 36.710938 19.316406 36.847656 19.324219 36.953125 19.398438 C 37.46875 18.59375 38.007812 17.800781 38.574219 17.027344 C 38.628906 16.957031 38.664062 16.886719 38.6875 16.820312 C 38.972656 16.554688 39.085938 16.101562 38.726562 15.75 " fill-opacity="1" fill-rule="nonzero"/><path fill="#824638" d="M 37.769531 1.265625 C 35.4375 0 33.535156 0.820312 32.542969 1.417969 C 32.085938 1.691406 31.699219 2.25 31.179688 2.292969 C 30.601562 2.34375 30.089844 2.542969 29.625 2.886719 C 28.023438 4.070312 27.058594 6.585938 28.132812 8.304688 C 27.585938 9.027344 27.433594 10.035156 27.660156 10.914062 C 27.988281 12.214844 29.566406 13.871094 30.527344 15.105469 C 30.527344 15.105469 31.734375 13.3125 30.949219 12.683594 C 30.023438 11.945312 28.09375 10.058594 29.703125 8.972656 C 30.15625 8.667969 30.007812 8.027344 29.660156 7.734375 C 28.46875 6.726562 29.84375 4.160156 31.128906 3.871094 C 31.539062 3.777344 31.910156 3.820312 32.285156 3.597656 C 32.679688 3.363281 32.957031 2.984375 33.355469 2.75 C 34.085938 2.324219 34.917969 2.222656 35.742188 2.378906 C 36.738281 2.566406 38.652344 1.742188 37.769531 1.265625 " fill-opacity="1" fill-rule="nonzero"/><path fill="#824638" d="M 43.339844 7.632812 C 43.214844 7.207031 42.988281 6.902344 42.742188 6.542969 C 42.386719 6.027344 42.6875 5.441406 42.53125 4.871094 C 42.316406 4.070312 41.261719 3.316406 40.59375 2.910156 C 40.550781 2.882812 39.234375 3.546875 39.191406 3.542969 C 38.640625 3.175781 39.40625 2.480469 39.027344 3.214844 C 38.609375 4.019531 39.109375 5.050781 39.449219 5.789062 C 39.941406 6.871094 40.066406 7.894531 40.085938 9.070312 C 40.101562 10.070312 40.132812 11.058594 40.496094 12 C 40.398438 12.21875 39.835938 14.867188 40.085938 14.6875 C 41.566406 13.628906 43.90625 9.59375 43.339844 7.632812 " fill-opacity="1" fill-rule="nonzero"/><path fill="#824638" d="M 41.660156 11.988281 C 41.71875 11.066406 41.503906 10.179688 41.367188 9.277344 C 41.324219 9.007812 41.285156 8.734375 41.246094 8.460938 C 40.691406 7.085938 39.898438 5.773438 38.972656 4.59375 C 39.089844 5.019531 39.285156 5.4375 39.449219 5.789062 C 39.941406 6.871094 40.066406 7.894531 40.085938 9.070312 C 40.101562 10.070312 40.132812 11.058594 40.496094 12 C 40.398438 12.21875 39.835938 14.867188 40.085938 14.6875 C 40.519531 14.378906 41.023438 13.8125 41.511719 13.121094 C 41.578125 12.746094 41.636719 12.367188 41.660156 11.988281 " fill-opacity="1" fill-rule="nonzero"/><path fill="#824638" d="M 40.648438 3.292969 C 40.730469 3.179688 40.738281 3.015625 40.59375 2.910156 C 39.234375 1.925781 37.75 0.902344 35.996094 0.980469 C 35.324219 1.011719 34.664062 1.207031 34.117188 1.609375 C 33.738281 1.890625 33.488281 2.246094 32.996094 2.332031 C 32.445312 2.429688 31.917969 2.433594 31.398438 2.507812 C 30.855469 2.6875 30.359375 2.992188 30.015625 3.4375 C 29.660156 3.910156 29.550781 4.492188 29.347656 5.035156 C 29.136719 5.609375 28.773438 6.160156 28.617188 6.75 C 28.46875 7.296875 28.679688 7.875 28.785156 8.414062 C 28.929688 9.140625 28.871094 9.867188 28.890625 10.601562 C 28.917969 11.65625 29.242188 12.640625 29.671875 13.589844 C 30.160156 14.128906 30.527344 14.183594 30.527344 15.105469 C 30.527344 15.285156 31.925781 13.839844 31.53125 13.703125 C 31.851562 13.535156 32.242188 13.554688 32.582031 13.460938 C 32.871094 13.386719 33.144531 13.261719 33.402344 13.109375 C 33.988281 12.761719 34.503906 12.300781 35.03125 11.871094 C 36.175781 10.933594 37.429688 10.027344 38.40625 8.90625 C 38.808594 8.441406 39.140625 7.910156 39.289062 7.308594 C 39.378906 6.949219 39.382812 6.558594 39.5625 6.226562 C 39.734375 5.914062 40.019531 5.730469 40.300781 5.519531 C 40.6875 5.226562 41.097656 4.878906 41.179688 4.375 C 41.257812 3.910156 41.050781 3.511719 40.648438 3.292969 " fill-opacity="1" fill-rule="nonzero"/><path fill="#f6a376" d="M 41.339844 5.332031 C 41.308594 5.234375 41.242188 5.183594 41.167969 5.171875 C 41.15625 5.140625 41.144531 5.113281 41.121094 5.082031 C 39.277344 2.664062 35.835938 2.023438 33.1875 3.464844 C 31.925781 4.152344 30.878906 5.230469 30.253906 6.523438 C 29.910156 7.230469 29.703125 8.050781 29.878906 8.832031 C 30.054688 9.609375 30.59375 10.222656 30.902344 10.945312 C 31.402344 12.109375 31.707031 14.199219 31.78125 15.429688 C 31.890625 17.238281 33.175781 18.589844 34.6875 19.636719 C 35.800781 20.402344 36.53125 20.65625 37.414062 19.742188 C 38.464844 18.65625 39.414062 16.949219 39.996094 15.574219 C 41.292969 12.5 42.378906 8.5625 41.339844 5.332031 " fill-opacity="1" fill-rule="nonzero"/><path fill="#824638" d="M 39.691406 6.171875 C 39.707031 6.128906 39.714844 6.078125 39.707031 6.019531 C 39.484375 4.753906 38.710938 3.628906 37.550781 3.039062 C 36.160156 2.332031 34.609375 2.53125 33.304688 3.308594 C 33.074219 3.445312 32.832031 3.59375 32.585938 3.753906 C 32.527344 3.734375 32.464844 3.734375 32.394531 3.757812 C 31.722656 3.996094 31.136719 4.429688 30.734375 5.015625 C 30.519531 5.328125 30.410156 5.675781 30.308594 6.027344 C 30.289062 6.070312 30.269531 6.109375 30.253906 6.15625 C 30.195312 6.304688 30.152344 6.460938 30.121094 6.617188 C 30.046875 6.804688 29.957031 6.988281 29.832031 7.15625 C 29.320312 7.84375 29.15625 8.367188 29.296875 9.230469 C 29.382812 9.761719 29.515625 10.269531 29.988281 10.488281 C 30.058594 10.59375 30.183594 10.652344 30.328125 10.582031 C 30.328125 10.582031 30.332031 10.582031 30.332031 10.578125 C 30.394531 10.574219 30.445312 10.546875 30.480469 10.507812 C 30.941406 10.28125 31.128906 10.898438 31.65625 10.953125 C 32.117188 11.003906 32.832031 10.40625 33.285156 10.503906 C 34.011719 10.65625 34.605469 10.394531 35.09375 9.859375 C 36.210938 8.640625 38.457031 5.570312 41.269531 7.636719 C 41.511719 7.816406 39.847656 6.34375 39.691406 6.171875 " fill-opacity="1" fill-rule="nonzero"/><path fill="#f6a376" d="M 32.371094 12.019531 C 32.246094 11.496094 32.144531 10.734375 31.585938 10.410156 C 30.753906 9.921875 29.902344 10.414062 29.824219 11.300781 C 29.765625 11.96875 30.007812 12.730469 30.300781 13.324219 C 30.507812 13.742188 30.894531 14.484375 31.429688 14.625 C 31.453125 14.632812 31.480469 14.636719 31.503906 14.640625 C 31.667969 14.703125 31.847656 14.710938 32.039062 14.613281 C 32.148438 14.558594 32.230469 14.484375 32.292969 14.394531 C 32.394531 14.277344 32.46875 14.132812 32.515625 13.992188 C 32.726562 13.378906 32.515625 12.632812 32.371094 12.019531 " fill-opacity="1" fill-rule="nonzero"/><path fill="#824638" d="M 42.777344 8.957031 C 42.507812 8.023438 42.238281 7.089844 41.964844 6.15625 C 41.761719 5.457031 41.542969 4.746094 41.015625 4.21875 C 40.460938 3.660156 39.671875 3.273438 38.980469 2.898438 C 38.222656 2.488281 37.441406 2.167969 36.585938 2.035156 C 36.300781 1.988281 36.1875 2.382812 36.398438 2.539062 C 36.949219 2.949219 37.421875 3.433594 37.808594 3.996094 C 38.121094 5.027344 38.671875 6.40625 39.695312 6.65625 C 40.058594 6.746094 40.234375 6.585938 40.425781 6.984375 C 40.5625 7.265625 39.515625 5.914062 39.691406 6.171875 C 40.082031 6.734375 40.230469 9.121094 41.621094 9.8125 C 41.824219 9.914062 42.847656 9.199219 42.777344 8.957031 " fill-opacity="1" fill-rule="nonzero"/><path fill="#4f2f2d" d="M 39.214844 12.5625 C 39.128906 12.3125 38.789062 12.382812 38.675781 12.566406 C 38.515625 12.824219 38.277344 13.691406 38.480469 13.96875 C 38.667969 14.222656 38.808594 14.15625 38.941406 14.042969 C 39.253906 13.769531 39.34375 12.933594 39.214844 12.5625 " fill-opacity="1" fill-rule="nonzero"/><path fill="#4f2f2d" d="M 35.214844 12.066406 C 35.125 11.816406 34.789062 11.886719 34.675781 12.070312 C 34.511719 12.332031 34.277344 13.195312 34.480469 13.472656 C 34.667969 13.726562 34.804688 13.660156 34.9375 13.546875 C 35.25 13.273438 35.34375 12.4375 35.214844 12.066406 " fill-opacity="1" fill-rule="nonzero"/><path fill="#824638" d="M 40.910156 11.28125 C 40.585938 10.964844 40.0625 10.796875 39.667969 10.59375 C 39.457031 10.488281 39.101562 10.402344 38.984375 10.675781 C 38.882812 10.929688 39.03125 11.257812 39.230469 11.417969 C 39.632812 11.75 40.320312 11.78125 40.8125 11.675781 C 40.972656 11.640625 41.023438 11.398438 40.910156 11.28125 " fill-opacity="1" fill-rule="nonzero"/><path fill="#824638" d="M 36.851562 10.289062 C 36.773438 10.183594 36.398438 10.214844 36.289062 10.21875 C 35.515625 10.238281 35.058594 10.464844 34.316406 10.722656 C 34.261719 10.742188 34.222656 10.773438 34.195312 10.8125 C 34.046875 10.949219 34.066406 11.292969 34.304688 11.308594 C 35.132812 11.367188 36.144531 11.25 36.730469 10.914062 C 36.960938 10.777344 36.957031 10.433594 36.851562 10.289062 " fill-opacity="1" fill-rule="nonzero"/><path fill="#d97f4e" d="M 37.695312 12.679688 C 37.691406 12.542969 37.492188 12.542969 37.480469 12.679688 C 37.414062 13.519531 37.628906 15.320312 36.863281 15.496094 C 36.730469 15.527344 36.789062 15.742188 36.921875 15.703125 C 37.382812 15.566406 37.582031 15.195312 37.652344 14.742188 C 37.757812 14.066406 37.730469 13.359375 37.695312 12.679688 " fill-opacity="1" fill-rule="nonzero"/><path fill="#693327" d="M 30.304688 5.382812 C 29.6875 6.085938 29.238281 6.96875 29.238281 7.917969 C 29.238281 8.761719 29.609375 9.585938 30.292969 10.089844 C 30.347656 10.132812 30.402344 10.039062 30.347656 10 C 29.671875 9.5 29.324219 8.667969 29.347656 7.839844 C 29.371094 6.949219 29.800781 6.121094 30.378906 5.460938 C 30.425781 5.40625 30.351562 5.332031 30.304688 5.382812 " fill-opacity="1" fill-rule="nonzero"/><path fill="#693327" d="M 40.40625 4.539062 C 39.847656 3.699219 38.835938 3.402344 37.871094 3.417969 C 37.800781 3.417969 37.800781 3.527344 37.871094 3.523438 C 38.757812 3.511719 39.691406 3.761719 40.246094 4.5 C 40.75 5.175781 40.742188 6.160156 40.054688 6.710938 C 40 6.757812 40.078125 6.832031 40.132812 6.789062 C 40.816406 6.238281 40.875 5.246094 40.40625 4.539062 " fill-opacity="1" fill-rule="nonzero"/><path fill="#693327" d="M 36.835938 1.398438 C 36.765625 1.382812 36.738281 1.488281 36.804688 1.503906 C 38 1.746094 39.375 2.292969 39.621094 3.636719 C 39.632812 3.703125 39.738281 3.675781 39.726562 3.609375 C 39.476562 2.226562 38.066406 1.648438 36.835938 1.398438 " fill-opacity="1" fill-rule="nonzero"/><path fill="#693327" d="M 36.984375 4.535156 C 35.554688 5.058594 34.222656 6.265625 34.390625 7.914062 C 34.398438 7.980469 34.507812 7.980469 34.5 7.914062 C 34.335938 6.316406 35.625 5.144531 37.015625 4.640625 C 37.078125 4.617188 37.050781 4.511719 36.984375 4.535156 " fill-opacity="1" fill-rule="nonzero"/><path fill="#88452a" d="M 42.472656 7.734375 C 42.328125 7.167969 41.925781 6.71875 41.382812 6.507812 C 41.316406 6.480469 41.289062 6.585938 41.355469 6.609375 C 41.863281 6.808594 42.234375 7.234375 42.367188 7.761719 C 42.382812 7.828125 42.488281 7.800781 42.472656 7.734375 " fill-opacity="1" fill-rule="nonzero"/><path fill="#693327" d="M 29.5625 11.667969 C 28.980469 11.328125 28.828125 10.667969 28.832031 10.035156 C 28.832031 9.96875 28.722656 9.96875 28.722656 10.035156 C 28.71875 10.707031 28.890625 11.402344 29.507812 11.761719 C 29.566406 11.796875 29.621094 11.703125 29.5625 11.667969 " fill-opacity="1" fill-rule="nonzero"/><path fill="#693327" d="M 33.628906 2.050781 C 32.699219 2.492188 32.191406 3.460938 32.351562 4.472656 C 32.363281 4.539062 32.46875 4.511719 32.457031 4.445312 C 32.304688 3.480469 32.800781 2.5625 33.683594 2.144531 C 33.746094 2.117188 33.691406 2.023438 33.628906 2.050781 " fill-opacity="1" fill-rule="nonzero"/><path fill="#693327" d="M 33.109375 8.691406 C 32.546875 8.734375 32.046875 8.996094 31.691406 9.433594 C 31.648438 9.488281 31.722656 9.566406 31.769531 9.511719 C 32.101562 9.09375 32.574219 8.84375 33.109375 8.800781 C 33.179688 8.792969 33.179688 8.6875 33.109375 8.691406 " fill-opacity="1" fill-rule="nonzero"/><path fill="#d97f4e" d="M 30.554688 10.902344 C 30.492188 10.929688 30.546875 11.023438 30.609375 10.992188 C 31.085938 10.765625 31.402344 11.304688 31.597656 11.910156 C 31.402344 11.65625 31.113281 11.496094 30.789062 11.464844 C 30.71875 11.457031 30.71875 11.5625 30.789062 11.570312 C 31.136719 11.605469 31.4375 11.808594 31.601562 12.117188 C 31.617188 12.144531 31.644531 12.148438 31.664062 12.140625 C 31.773438 12.546875 31.832031 12.945312 31.851562 13.132812 C 31.859375 13.199219 31.964844 13.199219 31.960938 13.132812 C 31.90625 12.566406 31.550781 10.421875 30.554688 10.902344 " fill-opacity="1" fill-rule="nonzero"/><path fill="#f5e4da" d="M 53.671875 20.707031 C 53.046875 20.171875 52.230469 19.777344 51.523438 19.359375 C 50.773438 18.914062 50.019531 18.480469 49.257812 18.054688 C 48.441406 17.597656 47.632812 17.089844 46.761719 16.738281 C 45.875 16.378906 45.265625 16.183594 43.9375 16.335938 C 43.613281 16.371094 42.074219 17.949219 42.054688 18.199219 C 41.507812 18.84375 42.914062 18.140625 42.992188 18.949219 C 43.09375 20 43.226562 21.046875 43.386719 22.089844 C 43.710938 24.257812 44.160156 26.402344 44.71875 28.519531 C 44.738281 28.589844 44.769531 28.652344 44.804688 28.703125 C 44.875 28.964844 45.121094 29.207031 45.464844 29.160156 C 47.011719 28.949219 44.828125 33.464844 45.910156 33.332031 C 45.882812 32.382812 52.769531 22.382812 53.671875 20.707031 " fill-opacity="1" fill-rule="nonzero"/><path fill="#ffffff" d="M 37.746094 16.980469 C 37.734375 16.972656 37.726562 16.972656 37.71875 16.972656 C 37.707031 16.96875 37.695312 16.964844 37.683594 16.964844 C 37.132812 17.039062 36.65625 16.945312 36.121094 16.855469 C 35.832031 16.808594 35.519531 16.816406 35.296875 16.988281 C 35.136719 17.070312 35.019531 17.226562 35.230469 17.328125 C 35.605469 17.503906 36.125 17.554688 36.542969 17.589844 C 36.894531 17.617188 37.28125 17.617188 37.574219 17.417969 C 37.703125 17.332031 37.9375 17.101562 37.746094 16.980469 " fill-opacity="1" fill-rule="nonzero"/><path fill="#e3ccbe" d="M 49.957031 21.933594 C 49.855469 20.90625 48.230469 20.898438 48.332031 21.933594 C 48.523438 23.917969 48.769531 25.898438 49.070312 27.867188 C 49.507812 27.1875 49.960938 26.492188 50.40625 25.8125 C 50.230469 24.523438 50.082031 23.230469 49.957031 21.933594 " fill-opacity="1" fill-rule="nonzero"/><path fill="#e3ccbe" d="M 48.054688 17.371094 C 47.636719 17.136719 47.207031 16.917969 46.761719 16.738281 C 46.671875 16.699219 46.582031 16.667969 46.496094 16.632812 C 46.515625 17.414062 46.324219 18.214844 46.09375 18.941406 C 45.675781 20.25 45.113281 21.5 44.753906 22.828125 C 44.488281 23.820312 44.269531 24.828125 44.074219 25.839844 C 44.269531 26.738281 44.484375 27.632812 44.71875 28.519531 C 44.738281 28.589844 44.769531 28.652344 44.804688 28.703125 C 44.851562 28.871094 44.96875 29.03125 45.140625 29.113281 C 45.464844 27.144531 45.808594 25.175781 46.320312 23.257812 C 46.847656 21.300781 47.863281 19.359375 48.054688 17.371094 " fill-opacity="1" fill-rule="nonzero"/><path fill="#e3ccbe" d="M 46.804688 21.742188 C 46.574219 20.964844 46.265625 20.203125 45.917969 19.464844 C 45.527344 20.585938 45.0625 21.675781 44.753906 22.828125 C 44.011719 25.605469 43.632812 28.496094 43.128906 31.324219 C 42.621094 34.191406 42.09375 37.058594 41.601562 39.933594 C 41.117188 42.773438 40.738281 45.644531 40.921875 48.53125 C 41.023438 50.132812 41.226562 51.722656 41.257812 53.328125 C 41.28125 54.550781 41.234375 55.773438 41.15625 56.992188 C 41.699219 57.011719 42.242188 56.996094 42.785156 56.929688 C 42.847656 55.9375 42.890625 54.945312 42.890625 53.953125 C 42.886719 52.484375 42.75 51.035156 42.625 49.574219 C 42.371094 46.609375 42.609375 43.710938 43.097656 40.78125 C 43.589844 37.835938 44.136719 34.902344 44.660156 31.964844 C 45.175781 29.066406 45.558594 26.105469 46.320312 23.257812 C 46.457031 22.753906 46.625 22.246094 46.804688 21.742188 " fill-opacity="1" fill-rule="nonzero"/><path fill="#d97f4e" d="M 35.617188 20.1875 C 33.457031 19.097656 31.605469 17.042969 31.800781 14.484375 C 31.808594 14.417969 31.699219 14.417969 31.691406 14.484375 C 31.492188 17.078125 33.367188 19.171875 35.5625 20.28125 C 35.625 20.3125 35.679688 20.21875 35.617188 20.1875 " fill-opacity="1" fill-rule="nonzero"/><path fill="#f6a376" d="M 45.40625 11.34375 C 45.238281 10.808594 45.105469 10.257812 45.046875 9.699219 C 44.980469 9.257812 44.921875 8.816406 44.882812 8.371094 C 44.828125 7.757812 44.894531 7.074219 44.738281 6.476562 C 44.613281 6.007812 44.234375 5.625 43.925781 5.269531 C 43.613281 4.910156 43.3125 4.535156 42.964844 4.207031 C 42.800781 4.054688 42.628906 3.898438 42.433594 3.78125 C 42.320312 3.710938 42.085938 3.632812 42.011719 3.714844 C 41.804688 3.421875 41.382812 2.855469 40.976562 2.894531 C 40.585938 2.929688 40.324219 3.351562 40.527344 3.699219 C 40.6875 3.976562 40.835938 4.261719 40.976562 4.546875 C 40.679688 4.433594 40.296875 4.570312 40.214844 4.855469 C 40.304688 5.78125 41.183594 6.484375 41.472656 7.34375 C 41.816406 8.367188 41.566406 9.488281 41.582031 10.542969 C 41.582031 10.546875 41.582031 10.546875 41.582031 10.550781 C 41.660156 10.832031 41.746094 11.109375 41.851562 11.382812 C 41.910156 11.53125 41.96875 11.679688 42.03125 11.824219 C 42.519531 12.871094 44.222656 15.574219 44.890625 16.546875 C 45.753906 16.828125 45.773438 14.480469 46.738281 14.109375 C 46.148438 13.25 45.636719 12.363281 45.40625 11.34375 " fill-opacity="1" fill-rule="nonzero"/><path fill="#d6b9a7" d="M 26.496094 33.179688 C 25.5625 32.183594 24.714844 31.109375 23.960938 29.96875 C 23.921875 29.914062 23.828125 29.964844 23.867188 30.023438 C 24.628906 31.171875 25.480469 32.253906 26.421875 33.257812 C 26.46875 33.308594 26.546875 33.234375 26.496094 33.179688 " fill-opacity="1" fill-rule="nonzero"/><g clip-path="url(#da8db0ff17)"><path fill="#f6a376" d="M 58.953125 28.273438 C 59.292969 24.367188 48.542969 16.40625 47 14.285156 C 46.6875 13.851562 46.148438 13.175781 45.742188 12.363281 C 45.578125 12.035156 45.265625 12.414062 45.082031 12.617188 C 45.027344 12.625 44.96875 12.636719 44.90625 12.664062 C 44.300781 12.941406 43.023438 13.386719 43.480469 14.242188 C 44.613281 16.359375 47.550781 20.414062 48.890625 22.21875 C 50.851562 24.859375 52.8125 27.527344 55.089844 29.902344 C 55.882812 30.726562 56.980469 31.367188 58.105469 30.710938 C 58.574219 30.433594 58.890625 28.976562 58.953125 28.273438 " fill-opacity="1" fill-rule="nonzero"/></g><path fill="#e3ccbe" d="M 24.980469 49.390625 C 24.503906 46.53125 24.671875 43.570312 24.667969 40.683594 C 24.667969 37.640625 24.644531 34.589844 24.6875 31.546875 C 24.730469 28.582031 25.011719 25.613281 24.914062 22.648438 C 24.886719 21.808594 24.8125 20.96875 24.695312 20.136719 C 24.585938 19.320312 24.441406 18.496094 24.511719 17.667969 C 24.578125 16.898438 24.839844 16.171875 25.175781 15.472656 C 24.546875 15.472656 23.921875 15.53125 23.324219 15.703125 C 23.222656 15.980469 23.132812 16.265625 23.0625 16.550781 C 22.703125 18.046875 23.019531 19.476562 23.175781 20.972656 C 23.5 24.054688 23.160156 27.171875 23.089844 30.257812 C 23.015625 33.382812 23.042969 36.507812 23.042969 39.632812 C 23.046875 42.679688 22.875 45.796875 23.265625 48.824219 C 23.601562 51.398438 24.371094 53.863281 25.332031 56.257812 C 25.363281 56.253906 25.394531 56.25 25.425781 56.242188 C 25.929688 56.160156 26.429688 56.042969 26.929688 55.914062 C 26.066406 53.808594 25.355469 51.636719 24.980469 49.390625 " fill-opacity="1" fill-rule="nonzero"/><path fill="#442722" d="M 27.347656 18.359375 L 30.941406 19.601562 C 31.246094 19.703125 31.566406 19.554688 31.640625 19.273438 L 33.550781 12.160156 C 33.617188 11.910156 33.460938 11.644531 33.191406 11.554688 L 29.597656 10.3125 C 29.296875 10.210938 28.976562 10.359375 28.902344 10.636719 L 26.992188 17.753906 C 26.921875 18.003906 27.078125 18.265625 27.347656 18.359375 " fill-opacity="1" fill-rule="nonzero"/><path fill="#d6b9a7" d="M 25.578125 34.269531 C 24.820312 33.863281 23.992188 33.644531 23.136719 33.628906 C 23.066406 33.628906 23.066406 33.734375 23.136719 33.738281 C 23.976562 33.753906 24.78125 33.964844 25.523438 34.363281 C 25.582031 34.394531 25.636719 34.304688 25.578125 34.269531 " fill-opacity="1" fill-rule="nonzero"/><path fill="#f6a376" d="M 32.8125 13.324219 C 32.023438 13.53125 31.246094 13.789062 30.488281 14.089844 C 31.128906 13.625 31.808594 13.214844 32.527344 12.855469 C 33.164062 12.539062 32.601562 11.585938 31.964844 11.902344 C 30.625 12.570312 29.394531 13.429688 28.308594 14.449219 C 28.085938 14.492188 28.089844 13.597656 28.183594 13.304688 C 28.390625 12.625 28.023438 12.925781 27.699219 13.554688 C 27.28125 14.359375 26.929688 15.191406 26.726562 16.183594 C 26.625 16.671875 25.8125 20 25.234375 20.972656 C 25.167969 21.078125 25.726562 20.292969 25.773438 20.386719 C 25.734375 20.636719 25.84375 20.902344 26.15625 20.988281 L 28.332031 21.59375 C 28.378906 21.605469 28.421875 21.613281 28.460938 21.613281 C 28.933594 21.65625 28.601562 22.027344 28.695312 21.71875 C 29.035156 20.613281 30.039062 20.257812 30.464844 19.667969 C 30.871094 19.105469 31.25 18.519531 31.644531 17.949219 C 31.90625 17.566406 32.167969 17.1875 32.433594 16.808594 C 32.71875 16.402344 33.484375 15.78125 32.941406 15.257812 C 33.121094 15.15625 33.328125 15.046875 33.421875 14.851562 C 33.515625 14.660156 33.464844 14.429688 33.335938 14.265625 C 33.707031 13.933594 33.410156 13.167969 32.8125 13.324219 " fill-opacity="1" fill-rule="nonzero"/><g clip-path="url(#f5f202885e)"><path fill="#f6a376" d="M 29.320312 20.164062 C 29.328125 19.984375 29.257812 19.800781 29.070312 19.675781 C 28.441406 19.25 27.667969 19.132812 26.929688 19.3125 C 26.90625 19.320312 26.882812 19.328125 26.859375 19.335938 C 26.632812 19.058594 25.972656 19.40625 25.769531 19.8125 C 23.300781 24.710938 20.378906 28.851562 17.636719 33.628906 C 17.007812 34.726562 16.457031 36.011719 16.546875 37.304688 C 16.621094 38.414062 17.40625 39.972656 18.589844 40.253906 C 19.289062 40.417969 19.957031 40.089844 20.558594 39.773438 C 20.601562 39.753906 20.644531 39.730469 20.683594 39.707031 C 24.371094 33.734375 25.992188 27.546875 29.363281 20.660156 C 29.472656 20.441406 29.464844 20.28125 29.320312 20.164062 " fill-opacity="1" fill-rule="nonzero"/></g><path fill="#d97f4e" d="M 38.839844 17.789062 C 38.507812 18.371094 38.117188 18.921875 37.671875 19.421875 C 37.246094 19.90625 36.675781 20.46875 35.96875 20.238281 C 35.941406 20.230469 35.921875 20.238281 35.910156 20.257812 C 35.894531 20.25 35.875 20.253906 35.859375 20.269531 C 35.429688 20.761719 35.027344 21.277344 34.652344 21.816406 C 34.613281 21.871094 34.707031 21.925781 34.746094 21.867188 C 35.113281 21.339844 35.511719 20.832031 35.933594 20.347656 C 35.9375 20.34375 35.9375 20.34375 35.9375 20.339844 C 36.578125 20.550781 37.140625 20.148438 37.5625 19.703125 C 38.09375 19.144531 38.550781 18.515625 38.933594 17.84375 C 38.96875 17.785156 38.875 17.730469 38.839844 17.789062 " fill-opacity="1" fill-rule="nonzero"/><path fill="#d97f4e" d="M 32.898438 14.09375 C 31.785156 14.546875 30.703125 15.0625 29.65625 15.644531 C 29.59375 15.679688 29.648438 15.773438 29.710938 15.742188 C 30.753906 15.164062 31.824219 14.648438 32.925781 14.203125 C 32.992188 14.175781 32.964844 14.070312 32.898438 14.09375 " fill-opacity="1" fill-rule="nonzero"/><path fill="#d97f4e" d="M 32.464844 15.164062 C 31.792969 15.65625 31.144531 16.171875 30.515625 16.71875 C 30.460938 16.765625 30.539062 16.84375 30.59375 16.796875 C 31.214844 16.257812 31.855469 15.746094 32.519531 15.257812 C 32.578125 15.21875 32.519531 15.121094 32.464844 15.164062 " fill-opacity="1" fill-rule="nonzero"/><path fill="#d6b9a7" d="M 46.988281 25.660156 C 46.21875 28.359375 45.585938 31.09375 45.097656 33.851562 C 45.085938 33.921875 45.191406 33.949219 45.203125 33.882812 C 45.691406 31.121094 46.324219 28.386719 47.09375 25.691406 C 47.113281 25.625 47.007812 25.59375 46.988281 25.660156 " fill-opacity="1" fill-rule="nonzero"/><path fill="#704b44" d="M 31.207031 11.210938 C 30.828125 11.109375 30.449219 11.007812 30.070312 10.90625 C 29.859375 10.851562 29.554688 10.714844 29.351562 10.863281 C 29.160156 11.003906 29.121094 11.355469 29.0625 11.5625 C 28.945312 11.953125 28.832031 12.339844 28.71875 12.726562 C 28.699219 12.792969 28.800781 12.824219 28.820312 12.757812 C 28.980469 12.222656 29.109375 11.664062 29.300781 11.136719 C 29.382812 10.910156 29.6875 10.914062 29.890625 10.96875 C 30.023438 11.003906 30.15625 11.039062 30.285156 11.078125 C 30.582031 11.15625 30.878906 11.234375 31.175781 11.316406 C 31.242188 11.332031 31.273438 11.230469 31.207031 11.210938 " fill-opacity="1" fill-rule="nonzero"/><path fill="#d97f4e" d="M 54.253906 28.769531 C 53.410156 28.136719 52.726562 27.332031 52.234375 26.402344 C 52.199219 26.339844 52.101562 26.394531 52.136719 26.460938 C 52.636719 27.40625 53.335938 28.222656 54.195312 28.867188 C 54.253906 28.914062 54.308594 28.8125 54.253906 28.769531 " fill-opacity="1" fill-rule="nonzero"/><path fill="#d97f4e" d="M 17.886719 33.257812 C 17.699219 33.792969 17.511719 34.324219 17.324219 34.855469 C 17.300781 34.921875 17.40625 34.953125 17.433594 34.886719 C 17.621094 34.351562 17.808594 33.820312 17.996094 33.289062 C 18.019531 33.222656 17.910156 33.191406 17.886719 33.257812 " fill-opacity="1" fill-rule="nonzero"/><path fill="#e3ccbe" d="M 43.792969 16.238281 C 43.355469 16.21875 42.804688 16.195312 42.167969 16.175781 C 41.867188 20.910156 39.65625 25.347656 38.71875 29.980469 C 38.125 32.925781 38.164062 35.914062 38.082031 38.902344 C 38.039062 40.4375 37.917969 41.957031 37.730469 43.480469 C 37.558594 44.910156 37.394531 46.335938 37.40625 47.78125 C 37.433594 50.710938 37.976562 53.621094 37.894531 56.550781 C 38.429688 56.65625 38.96875 56.757812 39.511719 56.835938 C 39.621094 54.226562 39.207031 51.632812 39.070312 49.027344 C 38.914062 46.042969 39.511719 43.136719 39.660156 40.167969 C 39.808594 37.167969 39.640625 34.132812 40.148438 31.15625 C 40.609375 28.457031 41.527344 25.863281 42.328125 23.25 C 43.03125 20.964844 43.640625 18.621094 43.792969 16.238281 " fill-opacity="1" fill-rule="nonzero"/><path fill="#e3ccbe" d="M 35.144531 41.679688 C 35.292969 39.0625 35.21875 36.425781 35.425781 33.8125 C 35.625 31.304688 36.503906 28.9375 36.917969 26.472656 C 37.199219 24.8125 37.257812 23.128906 37.09375 21.464844 C 36.652344 21.925781 36.128906 22.300781 35.554688 22.539062 C 35.609375 23.675781 35.554688 24.816406 35.371094 25.941406 C 34.964844 28.417969 34.109375 30.789062 33.851562 33.289062 C 33.582031 35.894531 33.683594 38.539062 33.550781 41.15625 C 33.484375 42.414062 33.398438 43.671875 33.292969 44.925781 C 33.183594 46.21875 32.933594 47.546875 33 48.84375 C 33.074219 50.210938 33.722656 51.445312 33.796875 52.820312 C 33.84375 53.707031 33.820312 54.585938 33.871094 55.464844 C 34.433594 55.636719 34.988281 55.847656 35.539062 56.058594 C 35.398438 54.988281 35.480469 53.898438 35.421875 52.820312 C 35.390625 52.222656 35.324219 51.617188 35.179688 51.035156 C 35.035156 50.457031 34.796875 49.90625 34.683594 49.320312 C 34.449219 48.109375 34.753906 46.769531 34.863281 45.554688 C 34.980469 44.265625 35.074219 42.972656 35.144531 41.679688 " fill-opacity="1" fill-rule="nonzero"/><path fill="#d6b9a7" d="M 38.917969 46.898438 C 35.6875 48.652344 32.597656 50.648438 29.675781 52.867188 C 29.621094 52.910156 29.675781 53.003906 29.730469 52.960938 C 32.652344 50.742188 35.742188 48.746094 38.972656 46.992188 C 39.03125 46.957031 38.976562 46.863281 38.917969 46.898438 " fill-opacity="1" fill-rule="nonzero"/><path fill="#d6b9a7" d="M 37.449219 52.285156 C 36.457031 51.890625 35.394531 51.722656 34.328125 51.789062 C 34.257812 51.792969 34.257812 51.902344 34.328125 51.898438 C 35.386719 51.832031 36.433594 51.996094 37.421875 52.390625 C 37.484375 52.414062 37.511719 52.3125 37.449219 52.285156 " fill-opacity="1" fill-rule="nonzero"/><path fill="#d6b9a7" d="M 39.976562 19.261719 C 39.660156 20.21875 39.253906 21.144531 38.75 22.023438 C 38.28125 22.847656 37.746094 23.6875 37 24.292969 C 35.5625 25.472656 33.570312 25.515625 31.800781 25.425781 C 31.730469 25.421875 31.730469 25.53125 31.800781 25.53125 C 33.207031 25.605469 34.695312 25.59375 36.007812 25.019531 C 37.414062 24.40625 38.28125 23.121094 38.988281 21.820312 C 39.429688 21.011719 39.792969 20.164062 40.082031 19.289062 C 40.105469 19.222656 40 19.195312 39.976562 19.261719 " fill-opacity="1" fill-rule="nonzero"/><path fill="#e3ccbe" d="M 30.238281 19.871094 C 29.574219 24.664062 29.136719 29.488281 28.949219 34.324219 C 28.855469 36.835938 28.914062 39.351562 28.792969 41.859375 C 28.675781 44.386719 28.019531 46.820312 27.695312 49.316406 C 27.425781 51.410156 27.476562 53.589844 28.269531 55.550781 C 28.804688 55.40625 29.339844 55.273438 29.878906 55.179688 C 29.09375 53.453125 29.0625 51.492188 29.28125 49.628906 C 29.5625 47.234375 30.214844 44.90625 30.382812 42.496094 C 30.550781 40.0625 30.464844 37.609375 30.546875 35.171875 C 30.625 32.699219 30.769531 30.226562 30.976562 27.761719 C 31.144531 25.75 31.359375 23.742188 31.613281 21.738281 C 31.050781 21.226562 30.601562 20.578125 30.238281 19.871094 " fill-opacity="1" fill-rule="nonzero"/><g clip-path="url(#fd920f6403)"><path fill="#e3ccbe" d="M 19.976562 25.117188 C 19.917969 25.058594 19.851562 25 19.789062 24.945312 C 19.503906 24.710938 19.238281 24.664062 19 24.734375 C 18.820312 24.789062 18.652344 24.625 18.691406 24.445312 C 18.972656 23.203125 19.296875 21.945312 19.925781 20.84375 C 20.160156 20.429688 19.792969 19.914062 19.441406 19.828125 C 19.183594 21.558594 18.855469 23.226562 18.347656 24.90625 C 17.605469 27.347656 16.703125 29.796875 16.371094 32.324219 C 16.402344 32.339844 16.433594 32.351562 16.46875 32.355469 C 16.902344 32.398438 17.472656 32.460938 17.988281 32.523438 C 18.304688 30.070312 19.195312 27.703125 19.914062 25.335938 C 19.9375 25.265625 19.957031 25.191406 19.976562 25.117188 " fill-opacity="1" fill-rule="nonzero"/></g><path fill="#e3ccbe" d="M 21.847656 16.421875 C 21.257812 16.855469 20.292969 17.863281 19.601562 18.941406 C 19.539062 19.222656 19.488281 19.507812 19.445312 19.796875 C 19.1875 21.539062 18.859375 23.21875 18.347656 24.90625 C 18.316406 25.003906 18.289062 25.097656 18.257812 25.195312 C 18.292969 25.335938 18.328125 25.480469 18.371094 25.636719 C 18.558594 26.335938 18.863281 26.953125 19.214844 27.546875 C 19.449219 26.808594 19.691406 26.074219 19.914062 25.335938 C 20.40625 23.714844 20.742188 22.101562 20.984375 20.425781 C 21.214844 18.800781 21.667969 17.339844 22.578125 15.984375 C 22.328125 16.105469 22.085938 16.25 21.847656 16.421875 " fill-opacity="1" fill-rule="nonzero"/><path fill="#d97f4e" d="M 33.429688 13.785156 C 33.421875 13.71875 33.316406 13.71875 33.320312 13.785156 C 33.335938 13.945312 33.253906 14.0625 33.222656 14.207031 C 33.203125 14.300781 33.214844 14.386719 33.214844 14.480469 C 33.214844 14.6875 33.15625 14.863281 33.046875 15.042969 C 33.007812 15.101562 32.960938 15.152344 32.941406 15.222656 C 32.910156 15.335938 32.949219 15.464844 32.945312 15.578125 C 32.945312 15.714844 32.921875 15.855469 32.882812 15.988281 C 32.789062 16.292969 32.601562 16.550781 32.351562 16.746094 C 32.296875 16.789062 32.351562 16.882812 32.40625 16.839844 C 32.824219 16.519531 33.070312 16.027344 33.054688 15.5 C 33.046875 15.308594 33.0625 15.214844 33.164062 15.058594 C 33.238281 14.941406 33.289062 14.808594 33.3125 14.671875 C 33.335938 14.511719 33.296875 14.351562 33.335938 14.195312 C 33.375 14.050781 33.445312 13.941406 33.429688 13.785156 " fill-opacity="1" fill-rule="nonzero"/><path fill="#d97f4e" d="M 28.085938 14.472656 C 27.921875 14.558594 27.785156 14.675781 27.679688 14.824219 C 27.636719 14.882812 27.730469 14.9375 27.773438 14.878906 C 27.871094 14.746094 27.996094 14.644531 28.140625 14.570312 C 28.207031 14.535156 28.148438 14.441406 28.085938 14.472656 " fill-opacity="1" fill-rule="nonzero"/><path fill="#d97f4e" d="M 42.757812 7.46875 C 42.75 7.175781 42.757812 6.886719 42.632812 6.609375 C 42.359375 6 41.914062 5.421875 41.527344 4.878906 C 41.484375 4.820312 41.386719 4.878906 41.425781 4.9375 C 41.792969 5.449219 42.167969 5.976562 42.464844 6.535156 C 42.636719 6.851562 42.636719 7.171875 42.644531 7.527344 C 42.65625 7.878906 42.664062 8.234375 42.675781 8.585938 C 42.679688 8.660156 42.792969 8.660156 42.789062 8.585938 C 42.777344 8.214844 42.769531 7.84375 42.757812 7.46875 " fill-opacity="1" fill-rule="nonzero"/><path fill="#d97f4e" d="M 43.503906 5.898438 C 43.269531 5.144531 42.667969 4.554688 42.152344 3.984375 C 42.105469 3.929688 42.023438 4.007812 42.074219 4.0625 C 42.601562 4.648438 43.207031 5.242188 43.417969 6.019531 C 43.628906 6.78125 43.636719 7.609375 43.699219 8.390625 C 43.703125 8.464844 43.816406 8.464844 43.8125 8.390625 C 43.746094 7.570312 43.746094 6.6875 43.503906 5.898438 " fill-opacity="1" fill-rule="nonzero"/><path fill="#d97f4e" d="M 44.589844 6.804688 C 44.585938 6.730469 44.472656 6.730469 44.472656 6.804688 C 44.484375 7.378906 44.511719 7.957031 44.558594 8.53125 C 44.5625 8.605469 44.675781 8.605469 44.671875 8.53125 C 44.625 7.957031 44.597656 7.378906 44.589844 6.804688 " fill-opacity="1" fill-rule="nonzero"/><path fill="#537ca3" d="M 36.742188 64.957031 C 35.964844 65.707031 35.183594 66.460938 34.402344 67.210938 C 34.351562 67.257812 34.429688 67.335938 34.480469 67.289062 L 35.183594 66.609375 C 35.070312 67.246094 34.9375 67.878906 34.789062 68.507812 C 34.773438 68.574219 34.875 68.601562 34.890625 68.535156 C 35.046875 67.890625 35.183594 67.242188 35.296875 66.589844 C 35.304688 66.558594 35.289062 66.539062 35.265625 66.527344 C 35.785156 66.03125 36.300781 65.53125 36.820312 65.035156 C 36.871094 64.984375 36.792969 64.910156 36.742188 64.957031 " fill-opacity="1" fill-rule="nonzero"/><path fill="#537ca3" d="M 38.117188 56.933594 C 34.113281 56.757812 30.097656 56.816406 26.097656 57.117188 C 26.027344 57.121094 26.027344 57.230469 26.097656 57.222656 C 29.683594 56.957031 33.285156 56.882812 36.882812 56.996094 C 36.859375 57 36.835938 57.015625 36.832031 57.046875 C 36.773438 57.820312 36.71875 58.59375 36.65625 59.367188 C 36.597656 60.089844 36.433594 60.96875 35.679688 61.265625 C 35.726562 59.855469 35.746094 58.4375 35.730469 57.027344 C 35.730469 56.957031 35.621094 56.957031 35.625 57.027344 C 35.636719 58.464844 35.617188 59.902344 35.566406 61.34375 C 35.542969 62.0625 35.507812 62.777344 35.46875 63.496094 C 35.464844 63.5625 35.570312 63.5625 35.574219 63.496094 C 35.617188 62.792969 35.648438 62.085938 35.675781 61.382812 C 36.335938 61.144531 36.621094 60.46875 36.714844 59.816406 C 36.847656 58.902344 36.871094 57.964844 36.941406 57.046875 C 36.941406 57.019531 36.925781 57 36.902344 56.996094 C 37.308594 57.011719 37.714844 57.023438 38.117188 57.042969 C 38.1875 57.046875 38.1875 56.9375 38.117188 56.933594 " fill-opacity="1" fill-rule="nonzero"/><path fill="#537ca3" d="M 27.460938 57.175781 C 27.261719 58.152344 27.078125 59.183594 26.714844 60.117188 C 26.355469 61.042969 25.558594 61.519531 24.714844 61.960938 C 24.652344 61.996094 24.707031 62.089844 24.769531 62.054688 C 25.566406 61.640625 26.359375 61.183594 26.742188 60.332031 C 26.945312 59.882812 27.054688 59.398438 27.175781 58.925781 C 27.320312 58.355469 27.449219 57.78125 27.566406 57.203125 C 27.578125 57.136719 27.472656 57.105469 27.460938 57.175781 " fill-opacity="1" fill-rule="nonzero"/><path fill="#537ca3" d="M 44.242188 60.824219 C 43.222656 59.984375 42.871094 58.691406 42.65625 57.441406 C 42.644531 57.375 42.539062 57.402344 42.550781 57.472656 C 42.769531 58.734375 43.132812 60.050781 44.164062 60.902344 C 44.21875 60.945312 44.296875 60.871094 44.242188 60.824219 " fill-opacity="1" fill-rule="nonzero"/><path fill="#537ca3" d="M 25.1875 59.222656 C 24.636719 60.9375 24.414062 62.734375 24.320312 64.527344 C 24.226562 66.417969 24.238281 68.316406 24.304688 70.210938 C 24.347656 71.3125 24.410156 72.414062 24.5 73.515625 C 24.503906 73.582031 24.613281 73.582031 24.605469 73.515625 C 24.457031 71.617188 24.375 69.710938 24.367188 67.808594 C 24.359375 65.988281 24.382812 64.15625 24.617188 62.351562 C 24.753906 61.300781 24.96875 60.261719 25.292969 59.25 C 25.3125 59.183594 25.210938 59.15625 25.1875 59.222656 " fill-opacity="1" fill-rule="nonzero"/></svg>